<?xml version="1.0" encoding="utf-8"?>
<!-- Generator: Adobe Illustrator 21.1.0, SVG Export Plug-In . SVG Version: 6.00 Build 0)  -->
<svg version="1.1" id="Layer_1" xmlns="http://www.w3.org/2000/svg" xmlns:xlink="http://www.w3.org/1999/xlink" x="0px" y="0px"
	 viewBox="0 0 75 30" style="enable-background:new 0 0 75 30;" xml:space="preserve">
<style type="text/css">
	.st0{fill:#FFFFFF;}
</style>
<g id="Shape_1_copy">
	<g>
		<path class="st0" d="M13.959,18.665l-0.434-0.087c-0.077,0.232-0.193,0.531-0.347,0.898c-0.155,0.367-0.39,0.729-0.709,1.085
			c-0.318,0.356-0.752,0.661-1.302,0.91c-0.55,0.252-1.249,0.377-2.098,0.377c-0.849,0-1.529-0.183-2.04-0.55
			c-0.511-0.366-0.897-0.829-1.158-1.389c-0.26-0.56-0.429-1.187-0.506-1.881c-0.077-0.694-0.116-1.359-0.116-1.996
			c0-0.309,0.005-0.565,0.014-0.767c0.01-0.203,0.014-0.4,0.014-0.593h8.912c0-1.061-0.178-1.948-0.535-2.662
			c-0.357-0.714-0.801-1.287-1.331-1.722c-0.531-0.434-1.104-0.748-1.721-0.94c-0.618-0.193-1.197-0.29-1.736-0.29
			c-0.907,0-1.756,0.188-2.546,0.564c-0.791,0.376-1.481,0.873-2.069,1.49C3.662,11.73,3.2,12.439,2.863,13.239
			c-0.337,0.801-0.506,1.626-0.506,2.474c0,0.985,0.164,1.876,0.492,2.677c0.328,0.8,0.791,1.49,1.389,2.069
			c0.598,0.579,1.307,1.022,2.127,1.331c0.82,0.308,1.712,0.462,2.677,0.462s1.751-0.149,2.358-0.448
			c0.608-0.299,1.09-0.646,1.447-1.041c0.356-0.396,0.618-0.791,0.781-1.187C13.79,19.181,13.901,18.877,13.959,18.665z
			 M5.553,12.444c0.126-0.579,0.313-1.089,0.564-1.534c0.25-0.443,0.588-0.796,1.013-1.056c0.424-0.26,0.964-0.39,1.62-0.39
			c0.366,0,0.709,0.053,1.027,0.159c0.318,0.106,0.588,0.285,0.81,0.536c0.221,0.251,0.395,0.589,0.521,1.013
			c0.125,0.424,0.188,0.965,0.188,1.62v0.723c0,0.231-0.02,0.482-0.058,0.752H5.307C5.346,13.63,5.428,13.022,5.553,12.444z
			 M56,13.427c0-2.874-1.408-4.311-4.224-4.311c-0.598,0-1.133,0.077-1.606,0.232c-0.474,0.154-0.882,0.362-1.23,0.622
			c-0.348,0.261-0.637,0.555-0.868,0.883c-0.231,0.328-0.415,0.665-0.549,1.013h-0.058c-0.232-0.983-0.719-1.687-1.462-2.112
			c-0.742-0.424-1.596-0.637-2.56-0.637c-1.081,0-2.001,0.27-2.763,0.81c-0.763,0.54-1.346,1.389-1.751,2.546h-0.059V9.435h-4.658
			V9.84h2.228v11.602h-2.835V9.435h-4.687V9.84h2.199v6.712c0,0.811-0.126,1.539-0.376,2.185c-0.251,0.646-0.565,1.2-0.941,1.663
			c-0.376,0.463-0.791,0.82-1.244,1.07c-0.454,0.252-0.893,0.377-1.317,0.377c-0.501,0-0.907-0.092-1.215-0.275
			c-0.308-0.183-0.56-0.434-0.752-0.752c-0.193-0.319-0.324-0.69-0.391-1.114c-0.068-0.424-0.101-0.887-0.101-1.389V9.435h-6.626
			V5.412c0-1.465,0.29-2.546,0.868-3.24c0.579-0.695,1.263-1.042,2.054-1.042c0.366,0,0.723,0.073,1.07,0.217
			c0.347,0.145,0.521,0.43,0.521,0.854c0,0.328-0.092,0.622-0.275,0.882c-0.184,0.26-0.275,0.555-0.275,0.883
			c0,0.386,0.159,0.636,0.477,0.752c0.318,0.116,0.603,0.174,0.854,0.174c0.502,0,0.858-0.154,1.07-0.463
			c0.213-0.309,0.318-0.646,0.318-1.013c0-0.251-0.068-0.535-0.202-0.854c-0.135-0.319-0.347-0.612-0.637-0.883
			C23.71,1.41,23.338,1.184,22.885,1c-0.453-0.183-0.999-0.275-1.635-0.275c-0.849,0-1.649,0.237-2.402,0.709
			c-0.752,0.473-1.38,1.027-1.881,1.664c-0.193,0.232-0.366,0.488-0.521,0.767c-0.155,0.279-0.289,0.607-0.405,0.983
			c-0.116,0.377-0.207,0.81-0.275,1.302c-0.067,0.492-0.101,1.075-0.101,1.751v1.534h-2.228V9.84h2.228v11.602h-2.228v0.405h7.35
			v-0.405h-2.633V9.84h4.137v8.217c0,0.579,0.048,1.066,0.145,1.461c0.096,0.395,0.212,0.72,0.347,0.969
			c0.134,0.251,0.284,0.449,0.448,0.593c0.164,0.145,0.314,0.266,0.449,0.362c0.27,0.193,0.646,0.376,1.129,0.55
			c0.482,0.174,1.109,0.261,1.88,0.261c0.636,0,1.191-0.102,1.664-0.304c0.472-0.203,0.887-0.462,1.244-0.782
			c0.357-0.318,0.656-0.674,0.897-1.07c0.241-0.396,0.449-0.786,0.622-1.172h0.058v2.922h9.982v-0.405H38.93v-6.423
			c0-1.003,0.139-1.851,0.419-2.546c0.279-0.695,0.627-1.259,1.041-1.692c0.415-0.434,0.863-0.753,1.346-0.955
			c0.483-0.203,0.926-0.304,1.331-0.304c0.578,0,1.042,0.203,1.389,0.607c0.347,0.405,0.521,1.032,0.521,1.881v9.432h-2.228v0.405
			h6.944v-0.405h-2.228v-7.378c0-0.772,0.121-1.447,0.362-2.026c0.241-0.578,0.555-1.051,0.94-1.418
			c0.387-0.366,0.82-0.641,1.303-0.825c0.482-0.183,0.964-0.275,1.447-0.275c0.618,0,1.104,0.184,1.462,0.55
			c0.356,0.366,0.535,0.878,0.535,1.534v9.837h-2.228v0.405h6.944v-0.405H56L56,13.427L56,13.427z M68.485,10.925
			c-0.646-0.588-1.37-1.046-2.17-1.374c-0.8-0.328-1.586-0.492-2.358-0.492c-0.772,0-1.558,0.164-2.358,0.492
			c-0.8,0.328-1.525,0.786-2.17,1.374c-0.646,0.589-1.177,1.287-1.591,2.098c-0.415,0.81-0.622,1.688-0.622,2.633
			c0,0.907,0.193,1.761,0.578,2.561c0.387,0.8,0.893,1.5,1.52,2.097c0.626,0.599,1.345,1.071,2.155,1.418
			c0.81,0.347,1.639,0.52,2.488,0.52c0.849,0,1.679-0.173,2.489-0.52c0.81-0.347,1.528-0.82,2.155-1.418
			c0.627-0.597,1.133-1.297,1.519-2.097c0.386-0.8,0.579-1.654,0.579-2.561c0-0.945-0.208-1.823-0.622-2.633
			C69.661,12.212,69.132,11.513,68.485,10.925z M67.487,18.925c-0.213,0.81-0.492,1.432-0.839,1.866
			c-0.348,0.434-0.753,0.719-1.216,0.854c-0.463,0.135-0.955,0.202-1.476,0.202c-0.52,0-1.012-0.067-1.475-0.202
			c-0.463-0.135-0.868-0.419-1.215-0.854c-0.348-0.434-0.627-1.056-0.84-1.866c-0.212-0.81-0.318-1.9-0.318-3.27
			c0-1.157,0.077-2.127,0.232-2.908c0.154-0.781,0.391-1.418,0.709-1.909c0.318-0.492,0.719-0.844,1.201-1.056
			c0.482-0.212,1.051-0.318,1.707-0.318c0.656,0,1.226,0.106,1.707,0.318c0.483,0.212,0.883,0.564,1.201,1.056
			c0.319,0.491,0.555,1.128,0.709,1.909c0.154,0.781,0.232,1.751,0.232,2.908C67.806,17.026,67.699,18.115,67.487,18.925z
			 M2.685,28.195h0.451v-3.672H2.685V28.195z M4.915,25.475c-0.329,0-0.608,0.098-0.837,0.295c-0.274,0.238-0.411,0.603-0.411,1.095
			c0,0.449,0.115,0.793,0.344,1.032c0.23,0.239,0.531,0.358,0.903,0.358c0.232,0,0.446-0.054,0.643-0.162
			c0.196-0.108,0.346-0.261,0.448-0.458c0.103-0.196,0.154-0.465,0.154-0.807c0-0.423-0.116-0.754-0.348-0.994
			C5.579,25.594,5.28,25.475,4.915,25.475z M5.473,27.629c-0.149,0.17-0.335,0.255-0.559,0.255c-0.226,0-0.413-0.085-0.561-0.253
			c-0.149-0.17-0.223-0.425-0.223-0.766c0-0.341,0.075-0.596,0.223-0.765c0.149-0.168,0.336-0.253,0.561-0.253
			c0.222,0,0.408,0.085,0.558,0.254c0.149,0.17,0.224,0.42,0.224,0.748C5.696,27.198,5.622,27.459,5.473,27.629z M7.801,27.158
			c-0.072,0.197-0.128,0.365-0.168,0.505c-0.052-0.185-0.108-0.364-0.17-0.535l-0.571-1.593H6.415l1.012,2.66h0.421l1.007-2.66
			H8.392L7.801,27.158z M10.346,25.475c-0.368,0-0.667,0.123-0.897,0.371c-0.23,0.247-0.346,0.594-0.346,1.042
			c0,0.432,0.114,0.769,0.342,1.008c0.228,0.24,0.537,0.36,0.926,0.36c0.309,0,0.563-0.075,0.762-0.225
			c0.199-0.15,0.335-0.362,0.408-0.634l-0.466-0.057c-0.068,0.19-0.161,0.328-0.278,0.415c-0.117,0.087-0.258,0.13-0.424,0.13
			c-0.222,0-0.408-0.077-0.556-0.233c-0.149-0.155-0.231-0.379-0.248-0.671h1.984c0.002-0.054,0.003-0.094,0.003-0.12
			c0-0.439-0.113-0.779-0.338-1.022C10.993,25.595,10.702,25.475,10.346,25.475z M9.594,26.609c0.015-0.232,0.093-0.417,0.234-0.556
			c0.141-0.139,0.315-0.208,0.522-0.208c0.229,0,0.415,0.087,0.559,0.26c0.093,0.112,0.15,0.279,0.17,0.503L9.594,26.609
			L9.594,26.609z M15.965,27.072l-0.153,0.514l-0.133-0.508l-0.398-1.543h-0.463l-0.423,1.558c-0.085,0.338-0.131,0.521-0.138,0.549
			l-0.158-0.571l-0.423-1.535H13.21l0.814,2.66h0.471l0.539-2.046l0.103,0.453l0.423,1.593h0.469l0.832-2.66h-0.439L15.965,27.072z
			 M18.999,25.591c-0.145-0.077-0.316-0.116-0.514-0.116c-0.321,0-0.586,0.122-0.797,0.365v-1.317h-0.451v3.672h0.451v-1.455
			c0-0.208,0.025-0.373,0.075-0.491c0.05-0.118,0.134-0.213,0.252-0.281c0.118-0.07,0.244-0.104,0.377-0.104
			c0.179,0,0.317,0.051,0.414,0.155c0.098,0.102,0.147,0.266,0.147,0.492v1.686h0.451v-1.686c0-0.261-0.031-0.459-0.094-0.596
			C19.248,25.775,19.145,25.668,18.999,25.591z M22.246,27.08v-0.601c0-0.2-0.008-0.338-0.022-0.416
			c-0.027-0.123-0.073-0.226-0.14-0.306c-0.067-0.082-0.171-0.149-0.313-0.202c-0.142-0.054-0.326-0.08-0.554-0.08
			c-0.229,0-0.43,0.032-0.604,0.093c-0.174,0.063-0.307,0.153-0.398,0.269c-0.092,0.116-0.158,0.268-0.198,0.457l0.441,0.06
			c0.048-0.189,0.123-0.321,0.224-0.395c0.101-0.074,0.257-0.111,0.47-0.111c0.227,0,0.398,0.051,0.514,0.153
			c0.085,0.076,0.128,0.205,0.128,0.389c0,0.017-0.001,0.056-0.003,0.118c-0.172,0.06-0.44,0.112-0.804,0.155
			c-0.179,0.022-0.312,0.044-0.401,0.068c-0.12,0.034-0.228,0.082-0.324,0.148c-0.096,0.064-0.174,0.152-0.233,0.259
			c-0.059,0.107-0.089,0.226-0.089,0.356c0,0.223,0.078,0.405,0.236,0.548c0.157,0.142,0.382,0.213,0.674,0.213
			c0.177,0,0.343-0.029,0.497-0.088c0.155-0.059,0.315-0.159,0.482-0.3c0.013,0.125,0.043,0.235,0.09,0.328h0.471
			c-0.057-0.102-0.095-0.208-0.114-0.319C22.256,27.764,22.246,27.499,22.246,27.08z M21.79,27.025c0,0.199-0.024,0.35-0.073,0.451
			c-0.063,0.132-0.163,0.236-0.298,0.312c-0.135,0.076-0.29,0.114-0.463,0.114c-0.175,0-0.308-0.04-0.4-0.12
			c-0.091-0.08-0.137-0.18-0.137-0.3c0-0.078,0.021-0.15,0.063-0.214c0.042-0.064,0.101-0.113,0.178-0.146
			c0.077-0.034,0.208-0.064,0.393-0.09c0.327-0.047,0.573-0.104,0.737-0.171C21.79,26.86,21.79,27.025,21.79,27.025z M23.732,27.81
			c-0.067,0-0.118-0.011-0.154-0.033c-0.036-0.021-0.061-0.051-0.077-0.088c-0.016-0.037-0.024-0.12-0.024-0.248v-1.555h0.453
			v-0.351h-0.453v-0.93l-0.448,0.27v0.659h-0.331v0.351h0.331v1.53c0,0.271,0.018,0.448,0.055,0.533
			c0.037,0.084,0.1,0.152,0.191,0.204c0.09,0.052,0.217,0.078,0.381,0.078c0.1,0,0.214-0.014,0.341-0.04l-0.065-0.399
			C23.848,27.804,23.782,27.81,23.732,27.81z M26.959,27.085c-0.072,0.198-0.133,0.399-0.185,0.606
			c-0.057-0.215-0.121-0.421-0.193-0.616l-0.554-1.54h-0.486l1.009,2.666c-0.018,0.048-0.032,0.085-0.04,0.11
			c-0.063,0.178-0.109,0.291-0.138,0.335c-0.038,0.06-0.088,0.107-0.148,0.14c-0.06,0.034-0.14,0.05-0.24,0.05
			c-0.073,0-0.16-0.013-0.258-0.04l0.05,0.424c0.107,0.037,0.203,0.055,0.29,0.055c0.144,0,0.267-0.035,0.371-0.104
			c0.104-0.069,0.195-0.179,0.276-0.327c0.06-0.11,0.145-0.312,0.253-0.603l1.012-2.706h-0.451L26.959,27.085z M29.441,25.475
			c-0.329,0-0.608,0.098-0.837,0.295c-0.274,0.238-0.411,0.603-0.411,1.095c0,0.449,0.115,0.793,0.344,1.032
			c0.23,0.239,0.531,0.358,0.903,0.358c0.232,0,0.446-0.054,0.643-0.162c0.196-0.108,0.346-0.261,0.448-0.458
			c0.103-0.196,0.154-0.465,0.154-0.807c0-0.423-0.116-0.754-0.348-0.994C30.106,25.594,29.807,25.475,29.441,25.475z M30,27.629
			c-0.149,0.17-0.335,0.255-0.559,0.255c-0.226,0-0.413-0.085-0.561-0.253c-0.149-0.17-0.223-0.425-0.223-0.766
			c0-0.341,0.074-0.596,0.223-0.765c0.149-0.168,0.336-0.253,0.561-0.253c0.222,0,0.408,0.085,0.558,0.254
			c0.149,0.17,0.224,0.42,0.224,0.748C30.223,27.198,30.149,27.459,30,27.629z M32.911,26.96c0,0.227-0.025,0.4-0.074,0.52
			c-0.049,0.119-0.134,0.213-0.252,0.282c-0.118,0.07-0.245,0.105-0.381,0.105c-0.135,0-0.249-0.034-0.341-0.102
			c-0.092-0.067-0.152-0.16-0.18-0.279c-0.018-0.082-0.028-0.24-0.028-0.476v-1.475h-0.451v1.648c0,0.193,0.009,0.333,0.028,0.421
			c0.027,0.132,0.073,0.243,0.139,0.335c0.066,0.091,0.167,0.166,0.304,0.227c0.136,0.06,0.282,0.09,0.439,0.09
			c0.356,0,0.637-0.15,0.844-0.451v0.391h0.403v-2.66h-0.451L32.911,26.96L32.911,26.96z M37.19,25.84
			c-0.078-0.108-0.18-0.196-0.305-0.264c-0.125-0.069-0.268-0.102-0.428-0.102c-0.219,0-0.417,0.057-0.594,0.173
			c-0.177,0.115-0.31,0.281-0.398,0.498c-0.088,0.216-0.133,0.457-0.133,0.723c0,0.272,0.049,0.513,0.147,0.723
			c0.097,0.209,0.236,0.372,0.413,0.49c0.178,0.117,0.373,0.175,0.585,0.175c0.327,0,0.575-0.132,0.744-0.395v0.335h0.419v-3.672
			H37.19L37.19,25.84L37.19,25.84z M37.021,27.642c-0.138,0.162-0.305,0.242-0.502,0.242c-0.195,0-0.365-0.085-0.509-0.253
			c-0.143-0.168-0.215-0.423-0.215-0.764c0-0.353,0.068-0.611,0.202-0.775c0.134-0.163,0.302-0.246,0.503-0.246
			c0.205,0,0.379,0.085,0.519,0.256c0.141,0.17,0.211,0.438,0.211,0.802C37.228,27.235,37.158,27.482,37.021,27.642z M39.428,25.475
			c-0.329,0-0.609,0.098-0.837,0.295c-0.274,0.238-0.411,0.603-0.411,1.095c0,0.449,0.115,0.793,0.344,1.032
			c0.23,0.239,0.531,0.358,0.903,0.358c0.232,0,0.447-0.054,0.643-0.162c0.196-0.108,0.346-0.261,0.448-0.458
			c0.103-0.196,0.154-0.465,0.154-0.807c0-0.423-0.116-0.754-0.348-0.994C40.092,25.594,39.793,25.475,39.428,25.475z
			 M39.986,27.629c-0.148,0.17-0.335,0.255-0.558,0.255c-0.226,0-0.412-0.085-0.561-0.253c-0.149-0.17-0.223-0.425-0.223-0.766
			c0-0.341,0.075-0.596,0.223-0.765c0.149-0.168,0.336-0.253,0.561-0.253c0.222,0,0.408,0.085,0.557,0.254
			c0.15,0.17,0.224,0.42,0.224,0.748C40.209,27.198,40.135,27.459,39.986,27.629z M72.431,8.078
			c-0.142-0.253-0.339-0.448-0.591-0.583c-0.252-0.136-0.511-0.204-0.777-0.204c-0.264,0-0.523,0.068-0.775,0.204
			c-0.252,0.136-0.449,0.33-0.591,0.583c-0.142,0.253-0.213,0.517-0.213,0.792c0,0.273,0.07,0.535,0.209,0.786
			c0.14,0.251,0.334,0.446,0.584,0.584c0.25,0.139,0.512,0.208,0.785,0.208c0.273,0,0.535-0.069,0.786-0.208
			c0.251-0.139,0.446-0.334,0.585-0.584c0.14-0.251,0.209-0.513,0.209-0.786C72.644,8.596,72.573,8.331,72.431,8.078z M72.316,9.587
			c-0.127,0.229-0.305,0.407-0.535,0.535c-0.229,0.128-0.469,0.191-0.718,0.191s-0.488-0.064-0.717-0.191
			c-0.229-0.128-0.406-0.306-0.533-0.535c-0.127-0.229-0.19-0.467-0.19-0.717c0-0.251,0.065-0.492,0.194-0.722
			c0.129-0.231,0.309-0.409,0.539-0.533c0.23-0.125,0.466-0.187,0.708-0.187c0.243,0,0.48,0.062,0.71,0.187
			c0.23,0.125,0.41,0.303,0.539,0.533c0.129,0.231,0.194,0.472,0.194,0.722C72.506,9.12,72.442,9.358,72.316,9.587z M71.682,9.556
			l-0.465-0.664c0.177-0.046,0.303-0.112,0.38-0.197c0.076-0.085,0.115-0.184,0.115-0.297c0-0.138-0.056-0.256-0.169-0.353
			c-0.113-0.097-0.277-0.146-0.492-0.146h-0.859v0.08c0.067,0,0.114,0.009,0.141,0.028c0.028,0.019,0.046,0.045,0.057,0.079
			c0.004,0.019,0.007,0.084,0.007,0.194v1.165c0,0.114-0.005,0.183-0.016,0.207c-0.013,0.033-0.035,0.058-0.065,0.075
			c-0.03,0.017-0.08,0.026-0.151,0.026v0.074h0.817V9.751c-0.099,0-0.166-0.011-0.199-0.033c-0.033-0.022-0.055-0.058-0.063-0.107
			V8.923h0.169l0.655,0.902h0.41V9.752c-0.05-0.004-0.09-0.016-0.118-0.033C71.789,9.689,71.739,9.635,71.682,9.556z M71.102,8.777
			c-0.081,0.034-0.209,0.051-0.384,0.051V8.033c0.068-0.024,0.131-0.036,0.187-0.036c0.131,0,0.238,0.041,0.322,0.122
			c0.084,0.082,0.126,0.183,0.126,0.303c0,0.079-0.021,0.149-0.065,0.21C71.245,8.694,71.183,8.742,71.102,8.777z"/>
	</g>
</g>
</svg>
