<?xml version="1.0" encoding="utf-8"?>
<!-- Generator: Adobe Illustrator 21.1.0, SVG Export Plug-In . SVG Version: 6.00 Build 0)  -->
<svg version="1.1" id="Layer_1" xmlns="http://www.w3.org/2000/svg" xmlns:xlink="http://www.w3.org/1999/xlink" x="0px" y="0px"
	 viewBox="0 0 76 24" style="enable-background:new 0 0 76 24;" xml:space="preserve">
<style type="text/css">
	.st0{fill:#FFFFFF;}
</style>
<path class="st0" d="M12.532,19.978l-0.467-0.087c-0.085,0.262-0.212,0.59-0.382,1.006c-0.17,0.415-0.424,0.809-0.763,1.202
	s-0.806,0.743-1.4,1.005c-0.594,0.284-1.357,0.415-2.269,0.415s-1.654-0.197-2.205-0.612c-0.551-0.415-0.975-0.918-1.251-1.552
	s-0.467-1.312-0.551-2.098c-0.085-0.765-0.127-1.508-0.127-2.229c0-0.35,0-0.634,0.021-0.852c0-0.219,0.021-0.437,0.021-0.656h9.627
	c0-1.18-0.191-2.164-0.573-2.973c-0.382-0.787-0.869-1.443-1.442-1.923c-0.571-0.482-1.186-0.832-1.865-1.05
	C8.249,9.355,7.613,9.246,7.019,9.246c-0.975,0-1.887,0.219-2.757,0.634c-0.848,0.415-1.59,0.984-2.227,1.661
	C1.4,12.219,0.891,13.027,0.53,13.902C0.191,14.842,0,15.76,0,16.699c0,1.093,0.17,2.098,0.53,2.973
	c0.36,0.896,0.848,1.661,1.506,2.295c0.636,0.656,1.421,1.137,2.29,1.486c0.891,0.35,1.845,0.524,2.884,0.524
	s1.887-0.175,2.545-0.503c0.657-0.328,1.188-0.721,1.569-1.159c0.382-0.437,0.657-0.874,0.848-1.311
	C12.363,20.568,12.469,20.219,12.532,19.978z M3.456,13.049c0.127-0.656,0.339-1.224,0.615-1.705
	c0.276-0.503,0.636-0.896,1.103-1.18s1.039-0.437,1.76-0.437c0.403,0,0.763,0.066,1.103,0.175c0.339,0.109,0.636,0.328,0.869,0.59
	c0.233,0.284,0.424,0.656,0.573,1.137c0.127,0.481,0.212,1.071,0.212,1.814c0,0.284,0,0.547,0,0.809s-0.021,0.546-0.064,0.831H3.181
	C3.223,14.382,3.329,13.705,3.456,13.049z M57.997,14.142c0-3.191-1.527-4.809-4.559-4.809c-0.636,0-1.23,0.087-1.739,0.262
	s-0.954,0.393-1.336,0.699c-0.382,0.284-0.679,0.612-0.933,0.984c-0.254,0.372-0.445,0.743-0.594,1.137h-0.064
	c-0.254-1.093-0.785-1.88-1.59-2.361c-0.806-0.481-1.718-0.699-2.757-0.699c-1.166,0-2.163,0.306-2.99,0.896
	c-0.827,0.612-1.463,1.552-1.887,2.842h-0.064V9.705h-5.026v0.459h2.417v12.918h-0.657h-1.76h-0.657V9.705h-5.068v0.459h2.375v7.475
	c0,0.896-0.127,1.705-0.403,2.426s-0.615,1.333-1.018,1.858s-0.848,0.918-1.336,1.202s-0.976,0.415-1.421,0.415
	c-0.551,0-0.975-0.109-1.315-0.306c-0.339-0.197-0.615-0.481-0.806-0.831c-0.212-0.35-0.339-0.765-0.424-1.246
	c-0.064-0.481-0.106-0.984-0.106-1.552v-9.9H20.95h-1.824H17.07V5.224c0-1.639,0.318-2.842,0.933-3.607s1.357-1.158,2.227-1.158
	c0.403,0,0.785,0.087,1.166,0.24c0.382,0.153,0.573,0.481,0.573,0.962c0,0.372-0.106,0.699-0.297,0.984
	c-0.191,0.284-0.297,0.612-0.297,0.984c0,0.437,0.17,0.699,0.509,0.831c0.339,0.131,0.657,0.197,0.933,0.197
	c0.551,0,0.933-0.175,1.166-0.525s0.339-0.721,0.339-1.137c0-0.284-0.064-0.59-0.212-0.962c-0.148-0.35-0.382-0.678-0.679-0.984
	c-0.318-0.306-0.721-0.546-1.209-0.765C21.693,0.109,21.121,0,20.421,0c-0.912,0-1.781,0.262-2.587,0.787s-1.484,1.137-2.036,1.858
	c-0.212,0.262-0.403,0.546-0.573,0.852S14.907,4.175,14.78,4.59s-0.233,0.896-0.297,1.443c-0.064,0.546-0.106,1.202-0.106,1.945
	v1.705h-2.396v0.459h2.417V23.06h-2.417v0.459h7.952V23.06H17.07V10.164h2.057h1.824h0.594v9.158c0,0.656,0.042,1.18,0.149,1.618
	c0.106,0.437,0.233,0.809,0.382,1.071c0.148,0.284,0.297,0.503,0.488,0.656c0.17,0.153,0.339,0.306,0.488,0.393
	c0.297,0.219,0.7,0.415,1.23,0.612c0.53,0.197,1.209,0.284,2.036,0.284c0.679,0,1.294-0.109,1.802-0.328
	c0.509-0.219,0.954-0.525,1.336-0.874c0.382-0.35,0.7-0.743,0.976-1.202c0.254-0.437,0.488-0.874,0.679-1.312h0.064v3.257h3.287
	h1.76h5.747v-0.459h-2.417v-7.104c0-1.115,0.148-2.055,0.445-2.841c0.297-0.765,0.679-1.399,1.124-1.88s0.933-0.831,1.463-1.071
	c0.53-0.219,0.997-0.328,1.442-0.328c0.615,0,1.124,0.219,1.506,0.678C45.91,10.951,46.1,11.65,46.1,12.59v10.514h-2.417v0.459
	h7.507v-0.459h-2.417v-8.24c0-0.853,0.127-1.618,0.382-2.251c0.255-0.634,0.594-1.18,1.018-1.574
	c0.424-0.415,0.891-0.721,1.399-0.918c0.53-0.197,1.039-0.306,1.569-0.306c0.657,0,1.188,0.197,1.59,0.612
	c0.382,0.415,0.573,0.984,0.573,1.705v10.951h-2.417v0.459h7.507v-0.459h-2.417v-8.94h0.02V14.142z M71.483,11.366
	c-0.7-0.656-1.484-1.158-2.354-1.53C68.26,9.464,67.412,9.29,66.585,9.29S64.91,9.465,64.04,9.836
	c-0.869,0.372-1.654,0.874-2.354,1.53s-1.272,1.443-1.718,2.339c-0.445,0.896-0.679,1.88-0.679,2.929
	c0,1.005,0.212,1.967,0.615,2.863c0.424,0.896,0.975,1.661,1.633,2.339c0.679,0.678,1.463,1.202,2.333,1.574
	c0.87,0.393,1.782,0.59,2.694,0.59s1.824-0.197,2.693-0.59s1.654-0.918,2.333-1.574s1.23-1.443,1.633-2.339
	c0.424-0.896,0.636-1.836,0.636-2.863c0-1.049-0.233-2.033-0.679-2.929C72.756,12.809,72.183,12.022,71.483,11.366z M70.402,20.284
	c-0.233,0.896-0.53,1.596-0.912,2.076c-0.382,0.481-0.806,0.809-1.315,0.962s-1.039,0.219-1.59,0.219
	c-0.573,0-1.103-0.066-1.59-0.219c-0.509-0.153-0.933-0.459-1.315-0.962c-0.382-0.481-0.679-1.18-0.912-2.076
	c-0.233-0.896-0.339-2.12-0.339-3.65c0-1.29,0.085-2.361,0.254-3.235c0.17-0.874,0.424-1.574,0.763-2.12
	c0.339-0.547,0.785-0.94,1.294-1.18c0.53-0.24,1.145-0.35,1.845-0.35s1.315,0.109,1.845,0.35c0.53,0.24,0.954,0.634,1.293,1.18
	c0.339,0.546,0.594,1.268,0.763,2.12c0.17,0.874,0.254,1.945,0.254,3.235C70.741,18.164,70.635,19.366,70.402,20.284z M75.745,8.197
	c-0.148-0.284-0.36-0.503-0.636-0.656s-0.551-0.219-0.848-0.219c-0.276,0-0.573,0.066-0.827,0.219
	c-0.276,0.153-0.488,0.372-0.636,0.656c-0.148,0.284-0.233,0.568-0.233,0.874s0.085,0.59,0.233,0.874
	c0.148,0.284,0.361,0.503,0.636,0.656c0.276,0.153,0.551,0.24,0.848,0.24s0.572-0.087,0.848-0.24s0.488-0.372,0.636-0.656
	C75.915,9.661,76,9.377,76,9.071C75.979,8.765,75.894,8.481,75.745,8.197z M75.618,9.88c-0.127,0.262-0.339,0.459-0.573,0.59
	c-0.255,0.153-0.509,0.219-0.785,0.219s-0.53-0.066-0.785-0.219c-0.255-0.153-0.445-0.35-0.573-0.59
	c-0.127-0.262-0.212-0.525-0.212-0.809s0.064-0.546,0.212-0.809C73.05,8,73.241,7.803,73.475,7.672
	c0.254-0.131,0.509-0.219,0.763-0.219s0.509,0.066,0.763,0.219c0.254,0.131,0.445,0.328,0.572,0.59
	c0.148,0.262,0.212,0.525,0.212,0.809C75.83,9.355,75.767,9.617,75.618,9.88z M74.94,9.836l-0.509-0.743
	c0.191-0.044,0.318-0.131,0.403-0.219s0.127-0.197,0.127-0.328c0-0.153-0.064-0.284-0.191-0.393C74.643,8.044,74.473,8,74.24,8
	h-0.933v0.087c0.064,0,0.127,0,0.148,0.022s0.042,0.044,0.064,0.087c0,0.022,0,0.087,0,0.219v1.29c0,0.131,0,0.197-0.021,0.24
	c-0.021,0.044-0.042,0.066-0.064,0.087c-0.042,0.022-0.085,0.022-0.17,0.022v0.088h0.891v-0.088c-0.106,0-0.17-0.022-0.212-0.044
	c-0.042-0.022-0.064-0.066-0.064-0.109V9.137h0.191l0.7,1.005h0.445v-0.088c-0.064,0-0.106-0.022-0.127-0.044
	C75.046,9.989,75.003,9.924,74.94,9.836z M74.304,8.962c-0.085,0.044-0.233,0.066-0.424,0.066V8.131
	c0.064-0.022,0.148-0.044,0.212-0.044c0.148,0,0.255,0.044,0.339,0.131s0.127,0.197,0.127,0.328c0,0.087-0.021,0.175-0.064,0.24
	C74.473,8.874,74.388,8.94,74.304,8.962z"/>
</svg>
