<?xml version="1.0" encoding="utf-8"?>
<!-- Generator: Adobe Illustrator 21.0.0, SVG Export Plug-In . SVG Version: 6.00 Build 0)  -->
<svg version="1.1" id="Слой_1" xmlns="http://www.w3.org/2000/svg" xmlns:xlink="http://www.w3.org/1999/xlink" x="0px" y="0px"
	 viewBox="0 0 20 20" style="enable-background:new 0 0 20 20;" xml:space="preserve">
<style type="text/css">
	.st0{fill:#FFFFFF;}
</style>
<path id="Close" class="st0" d="M11.311,10.013l7.406-7.366c0.355-0.351,0.355-0.92,0-1.271c-0.354-0.351-0.929-0.351-1.284,0
	l-7.4,7.359L2.566,1.266c-0.354-0.355-0.929-0.355-1.284,0c-0.354,0.356-0.354,0.932,0,1.287l7.463,7.464l-7.49,7.448
	c-0.354,0.351-0.354,0.92,0,1.271c0.354,0.351,0.929,0.351,1.284,0l7.483-7.442l7.438,7.439c0.354,0.355,0.929,0.355,1.284,0
	c0.354-0.356,0.354-0.932,0-1.287L11.311,10.013z"/>
</svg>
