<?xml version="1.0" encoding="UTF-8" standalone="no"?>
<svg width="24px" height="24px" viewBox="0 0 24 24" version="1.1" xmlns="http://www.w3.org/2000/svg" xmlns:xlink="http://www.w3.org/1999/xlink">
    <!-- Generator: Sketch 50.2 (55047) - http://www.bohemiancoding.com/sketch -->
    <title>Fill 1</title>
    <desc>Created with Sketch.</desc>
    <defs></defs>
    <g id="Symbols" stroke="none" stroke-width="1" fill="none" fill-rule="evenodd">
        <g id="Forms-/-Button-/-Button-Success" transform="translate(-60.000000, -7.000000)" fill="#FFFFFF">
            <g id="Submenu-/-Button-Success">
                <g id="Group" transform="translate(60.000000, 0.000000)">
                    <path d="M12,7 C15.3214457,7 18.1517726,8.16962971 20.4910697,10.5089303 C22.8303703,12.8482274 24,15.6785543 24,19 C24,22.3214457 22.8303703,25.1517726 20.4910697,27.4910697 C18.1517726,29.8303689 15.3214457,31 12,31 C8.67855429,31 5.84822743,29.8303689 3.50893029,27.4910697 C1.16963109,25.1517726 0,22.3214457 0,19 C0,15.6785543 1.16963109,12.8482274 3.50893029,10.5089303 C5.84822743,8.16962971 8.67855429,7 12,7 Z M18.1862069,14.4826168 C18.2220701,14.4467278 18.24,14.392896 18.24,14.3211215 C18.24,14.2134579 18.2220701,14.1416834 18.1862069,14.1057944 L16.5186207,12.8138318 C16.4827575,12.7779428 16.4110345,12.76 16.3034483,12.76 C16.2317253,12.76 16.1779322,12.7779428 16.142069,12.8138318 L10.1710345,20.5117757 C8.59309427,19.0044791 7.78620804,18.2328983 7.75034483,18.1970093 C7.64275862,18.0893458 7.53517241,18.035514 7.42758621,18.035514 C7.39172299,18.035514 7.32,18.0893458 7.21241379,18.1970093 L5.86758621,19.5428037 L5.8137931,19.5966355 C5.77792989,19.6325245 5.76,19.7042991 5.76,19.8119626 C5.76,19.8837372 5.77792989,19.9375689 5.8137931,19.9734579 L5.92137931,20.0272897 C8.71863446,22.7188923 10.1351713,24.0826157 10.1710345,24.1185047 C10.2786207,24.2261682 10.368277,24.28 10.44,24.28 C10.511723,24.28 10.6013793,24.2261682 10.7089655,24.1185047 L18.1862069,14.4826168 Z" id="Fill-1"></path>
                </g>
            </g>
        </g>
    </g>
</svg>