<?xml version="1.0" encoding="utf-8"?>
<!-- Generator: Adobe Illustrator 21.1.0, SVG Export Plug-In . SVG Version: 6.00 Build 0)  -->
<svg version="1.1" id="Layer_1" xmlns="http://www.w3.org/2000/svg" xmlns:xlink="http://www.w3.org/1999/xlink" x="0px" y="0px"
	 viewBox="0 0 17.338 21.433" style="enable-background:new 0 0 17.338 21.433;" xml:space="preserve" preserveAspectRatio="XMinYMid">
<style type="text/css">
	.st0{fill:#807041;}
</style>
<title>B7849FE1-E952-4261-B673-2D9356B75F17</title>
<desc>Created with sketchtool.</desc>
<g id="Symbols">
	<g id="Assets-_x2F_-Icons-_x2F_-Documen">
		<g id="Group-2" transform="translate(0.000000, 1.058594)">
			<path id="Fill-1" class="st0" d="M16.482,3.486c0.235,0.223,0.436,0.526,0.604,0.909s0.252,0.734,0.252,1.053v13.778
				c0,0.319-0.118,0.59-0.353,0.813c-0.235,0.223-0.52,0.335-0.856,0.335H1.209c-0.336,0-0.621-0.112-0.856-0.335
				C0.118,19.816,0,19.545,0,19.226V0.09C0-0.229,0.118-0.5,0.353-0.724s0.52-0.335,0.856-0.335h9.281
				c0.336,0,0.705,0.08,1.108,0.239C12-0.66,12.319-0.469,12.554-0.245L16.482,3.486z M10.892,0.568v4.497h4.734
				c-0.084-0.231-0.176-0.395-0.277-0.49l-3.941-3.744C11.308,0.735,11.135,0.648,10.892,0.568z M15.727,18.844V6.596h-5.237
				c-0.336,0-0.621-0.112-0.856-0.335C9.398,6.038,9.281,5.767,9.281,5.448V0.472H1.612v18.371H15.727z"/>
		</g>
	</g>
</g>
</svg>
