<?xml version="1.0" encoding="utf-8"?>
<!-- Generator: Adobe Illustrator 21.0.0, SVG Export Plug-In . SVG Version: 6.00 Build 0)  -->
<svg version="1.1" id="Layer_1" xmlns="http://www.w3.org/2000/svg" xmlns:xlink="http://www.w3.org/1999/xlink" x="0px" y="0px"
	 viewBox="0 0 89.621 89.621" style="enable-background:new 0 0 89.621 89.621;" xml:space="preserve">
<style type="text/css">
	.st0{fill:#FFFFFF;}
</style>
<g id="XMLID_96_">
	<path id="XMLID_112_" class="st0" d="M2.954,34.399c0.913,0.267,1.87-0.259,2.136-1.174C10.194,15.692,26.527,3.447,44.81,3.447
		c2.927,0,5.836,0.306,8.67,0.91c-0.062,2.48,1.008,4.181,1.697,5.274c0.191,0.303,0.452,0.717,0.482,0.773
		c0,6.181-1.263,7.187-1.249,7.191c-2.794,0-7.378,2.495-9.102,5.713c-1.058,1.973-0.972,4.062,0.24,5.883
		c0.83,1.246,1.545,2.631,2.239,3.972c1.465,2.836,3.09,5.984,5.643,5.984c0.539,0,1.121-0.142,1.752-0.456
		c2.01-1.005,3.451-3.863,4.843-6.624c0.613-1.217,1.515-3.002,2.049-3.569c1.75,0.238,2.604,1.819,3.76,4.325
		c0.851,1.845,1.733,3.749,3.463,4.614c2.912,1.457,12.49-0.069,17.783-2.317c0.791-0.336,1.213-1.205,0.989-2.035
		C84.452,19.711,74.627,8.587,61.782,3.327c-0.88-0.362-1.889,0.061-2.249,0.942c-0.36,0.881,0.062,1.887,0.943,2.247
		C71.853,11.177,80.666,20.819,84.311,32.5c-5.364,1.891-12.247,2.46-13.472,1.854c-0.648-0.323-1.3-1.732-1.874-2.974
		c-1.201-2.603-2.847-6.167-7.049-6.353c-2.172-0.131-3.395,2.368-4.968,5.489c-0.924,1.83-2.318,4.597-3.43,5.143
		c-0.639-0.15-1.909-2.609-2.668-4.078c-0.702-1.358-1.496-2.898-2.434-4.302c-0.508-0.761-0.529-1.485-0.069-2.343
		c1.184-2.21,4.737-3.893,6.063-3.893c3.116,0,4.696-3.578,4.696-10.638c0-1.003-0.515-1.819-1.011-2.61
		c-0.731-1.157-1.484-2.355-1.037-4.398c0.197-0.908-0.361-1.812-1.262-2.039C52.226,0.457,48.53,0,44.81,0
		C25.004,0,7.309,13.267,1.78,32.264C1.513,33.177,2.04,34.134,2.954,34.399L2.954,34.399z M2.954,34.399"/>
	<path id="XMLID_108_" class="st0" d="M65.486,45.707c-0.498,0.141-1.18,0.338-1.36,0.352c-2.382,0-3.891,1.844-4.993,3.189
		c-0.42,0.514-1.181,1.436-1.665,1.45c-0.779-0.389-1.598-0.586-2.434-0.586c-2.032,0-3.792,1.208-4.184,2.877
		c-0.278,1.171,0.131,2.776,2.105,3.764c2.799,1.399,5.692,2.845,6.98,4.133c0.886,0.886,2.417,1.393,4.205,1.393
		c2.714,0,6.323-1.318,7.562-5.037c0.489-1.464,1.66-2.585,2.792-3.668c1.314-1.259,2.556-2.448,2.574-4.152
		c0.012-1.007-0.435-1.968-1.324-2.859c-1.211-1.21-2.861-1.825-4.905-1.825C68.877,44.738,66.916,45.298,65.486,45.707
		L65.486,45.707z M73.619,49.376c-0.081,0.339-0.939,1.161-1.509,1.707c-1.302,1.245-2.92,2.794-3.678,5.069
		c-0.851,2.551-3.726,2.68-4.293,2.68c-1.005,0-1.636-0.265-1.767-0.382c-1.685-1.685-4.692-3.19-7.878-4.781
		c-0.007-0.003-0.012-0.005-0.019-0.009c0.324-0.132,0.923-0.141,1.451,0.121c0.557,0.279,1.129,0.42,1.697,0.42
		c1.908,0,3.113-1.471,4.174-2.769c0.778-0.947,1.579-1.927,2.327-1.927c0.611,0,1.323-0.204,2.306-0.484
		c1.305-0.373,2.928-0.836,4.407-0.836c1.111,0,1.918,0.267,2.466,0.816C73.544,49.241,73.61,49.376,73.619,49.376L73.619,49.376z
		 M73.619,49.376"/>
	<path id="XMLID_105_" class="st0" d="M89.193,38.609c-0.131-0.944-1.014-1.601-1.943-1.471c-0.943,0.131-1.603,1.001-1.472,1.944
		c0.263,1.894,0.395,3.823,0.395,5.73c0,22.643-18.286,41.092-40.866,41.359c-6.129-3.914-11.874-8.709-9.315-14.678
		c4.596-10.726,0.32-14.723-1.508-16.432l-0.343-0.326c-0.522-0.52-1.111-0.875-1.63-1.187c-1.261-0.756-1.601-0.96-0.924-2.992
		c0.449-1.349,1.044-1.978,1.733-2.707c1.594-1.685,2.813-3.363,2.813-8.237c0-2.837-1.44-5.099-3.949-6.208
		c-2.846-1.259-6.646-0.814-8.656,1.01c-1.254,1.141-1.676,2.694-1.156,4.257c1.229,3.679-1.579,8.998-6.825,12.933
		c-1.39,1.041-1.803,0.563-2.051,0.279c-1.539-1.773-1.42-6.819-0.157-8.08c0.846-0.846,1.098-1.927,0.673-2.889
		c-1.396-3.167-10.302-2.922-12.068-2.839c-0.839,0.039-1.529,0.677-1.632,1.512C0.093,41.367,0,42.931,0,44.811
		c0,20.665,13.993,38.552,34.026,43.503c0.921,0.229,1.858-0.336,2.086-1.261c0.229-0.924-0.336-1.858-1.26-2.085
		C16.361,80.399,3.447,63.884,3.447,44.81c0-1.195,0.041-2.252,0.133-3.329c2.916-0.003,5.392,0.334,6.656,0.721
		c-1.977,3.087-1.759,9.155,0.657,11.94c1.732,1.996,4.245,2.079,6.723,0.219c6.622-4.965,9.772-11.554,8.027-16.78
		c-0.055-0.17-0.11-0.33,0.207-0.618c0.906-0.824,3.214-1.172,4.941-0.407c1.276,0.564,1.897,1.564,1.897,3.056
		c0,3.89-0.784,4.721-1.87,5.869c-0.806,0.853-1.809,1.913-2.499,3.986c-1.549,4.655,0.936,6.148,2.421,7.038
		c0.385,0.23,0.747,0.447,0.966,0.668c0.126,0.125,0.269,0.26,0.426,0.406c1.517,1.416,4.336,4.055,0.694,12.554
		c-4.129,9.636,6.519,16.354,11.065,19.224c0.276,0.173,0.595,0.265,0.92,0.265c24.708,0,44.811-20.102,44.811-44.81
		C89.62,42.746,89.477,40.66,89.193,38.609L89.193,38.609z M89.193,38.609"/>
	<path id="XMLID_97_" class="st0" d="M46.129,69.831c-2.151,0-4.674,2.474-5.595,4.696c-0.718,1.736-0.505,3.354,0.588,4.447
		c1.03,1.029,2.556,1.62,4.19,1.62c1.634,0,3.161-0.591,4.191-1.62c1.144-1.145,1.424-2.827,0.786-4.734
		c-0.429-1.289-1.28-2.653-2.273-3.647C47.523,70.101,46.853,69.831,46.129,69.831L46.129,69.831z M47.067,76.535
		c-0.765,0.765-2.755,0.745-3.499,0.019c-0.023-0.074-0.023-0.505,0.434-1.26c0.595-0.981,1.434-1.674,1.889-1.92
		c0.489,0.581,0.913,1.308,1.128,1.955C47.212,75.899,47.228,76.374,47.067,76.535L47.067,76.535z M47.067,76.535"/>
</g>
</svg>
