<?xml version="1.0" encoding="utf-8"?>
<!-- Generator: Adobe Illustrator 21.0.0, SVG Export Plug-In . SVG Version: 6.00 Build 0)  -->
<svg version="1.1" id="Layer_1" xmlns="http://www.w3.org/2000/svg" xmlns:xlink="http://www.w3.org/1999/xlink" x="0px" y="0px"
	 viewBox="0 0 105 105" style="enable-background:new 0 0 105 105;" xml:space="preserve">
<style type="text/css">
	.st0{fill:#FFFFFF;}
</style>
<path id="XMLID_103_" class="st0" d="M101.962,32.791L76.325,7.154c-0.696-0.695-1.615-1.075-2.605-1.073
	c-0.984,0.003-1.907,0.39-2.597,1.091L69.91,8.401c-1.514,1.535-3.523,2.547-5.657,2.852l-1.858,0.265
	c-2.262,0.324-4.42,1.249-6.22,2.649l-5.429-5.428c-1.369-1.371-3.191-2.124-5.13-2.124h-6.735c-0.725,0-1.406-0.283-1.918-0.795
	c-1.055-1.053-2.456-1.634-3.946-1.634c-1.491,0-2.893,0.58-3.947,1.634L3.7,31.19c-2.312,2.312-2.312,6.074,0,8.387
	c0.413,0.412,0.684,0.957,0.767,1.534l0.888,6.218c0.221,1.543,0.949,3,2.052,4.103l5.68,5.681l-0.899,0.899
	c-3.248,3.248-3.248,8.533,0,11.781c1.574,1.574,3.665,2.44,5.891,2.44c0.431,0,0.858-0.033,1.276-0.096
	c-0.389,2.534,0.391,5.214,2.339,7.162c1.948,1.948,4.628,2.728,7.162,2.339c-0.063,0.419-0.096,0.845-0.096,1.276
	c0,2.226,0.867,4.318,2.44,5.891c1.574,1.574,3.666,2.441,5.891,2.441c0.431,0,0.858-0.033,1.276-0.096
	c-0.388,2.534,0.391,5.215,2.339,7.163c1.624,1.624,3.757,2.436,5.891,2.436c1.934,0,3.868-0.67,5.423-2.006
	c1.545,1.381,3.493,2.072,5.441,2.072c2.093,0,4.185-0.797,5.778-2.39l0.225-0.225c1.9-1.899,2.666-4.508,2.302-6.98
	c0.398,0.059,0.8,0.089,1.202,0.089c2.093,0,4.185-0.797,5.778-2.389l0.225-0.226c1.9-1.899,2.666-4.508,2.302-6.98
	c0.398,0.059,0.8,0.089,1.202,0.089c2.092,0,4.185-0.797,5.778-2.39l0.225-0.225c1.9-1.899,2.666-4.508,2.302-6.98
	c0.398,0.059,0.8,0.089,1.202,0.089c2.093,0,4.185-0.796,5.778-2.39l0.225-0.225c3.07-3.07,3.181-7.994,0.335-11.199l2.289-2.289
	c2.48-2.48,3.847-5.778,3.847-9.286V46.44c0-3.197,1.245-6.203,3.507-8.465C103.391,36.546,103.391,34.221,101.962,32.791
	L101.962,32.791z M46.599,97.535c-1.366,0-2.651-0.532-3.616-1.498c-0.966-0.966-1.498-2.25-1.498-3.615
	c0-1.172,0.392-2.283,1.114-3.186c0.217,0.284,0.452,0.556,0.711,0.815l6.414,6.414C48.834,97.158,47.746,97.535,46.599,97.535
	L46.599,97.535z M61.191,95.925l-0.225,0.226c-1.932,1.932-5.075,1.932-7.006,0l-8.373-8.374c-1.932-1.932-1.932-5.075,0-7.006
	l0.225-0.225c0.966-0.966,2.234-1.449,3.504-1.449c1.268,0,2.537,0.483,3.503,1.449l8.373,8.373
	C63.122,90.851,63.122,93.993,61.191,95.925L61.191,95.925z M70.697,86.418l-0.225,0.225v0.001c-1.932,1.932-5.075,1.932-7.006,0
	l-8.373-8.374c-1.932-1.932-1.932-5.075,0-7.006l0.225-0.225c0.966-0.966,2.234-1.449,3.503-1.449c1.27,0,2.538,0.483,3.504,1.449
	l8.373,8.373C72.629,81.344,72.629,84.486,70.697,86.418L70.697,86.418z M80.203,76.912l-0.225,0.225
	c-1.932,1.932-5.075,1.932-7.006,0L64.6,68.764c-0.936-0.936-1.452-2.18-1.452-3.504c0-1.322,0.516-2.567,1.452-3.503l0.225-0.226
	c0.966-0.966,2.234-1.449,3.504-1.449c1.269,0,2.537,0.483,3.503,1.449l8.373,8.374C82.135,71.838,82.135,74.98,80.203,76.912
	L80.203,76.912z M89.71,67.406l-0.225,0.225c-1.932,1.932-5.075,1.932-7.006,0l-8.374-8.373c-1.932-1.932-1.932-5.075,0-7.006
	l0.226-0.225c0.966-0.966,2.234-1.449,3.503-1.449c1.268,0,2.538,0.483,3.504,1.449L89.71,60.4
	C91.642,62.331,91.642,65.475,89.71,67.406L89.71,67.406z M99.698,35.688c-2.691,2.895-4.461,6.521-4.461,10.473v0.746
	c0,2.63-1.045,5.152-2.904,7.011l-2.277,2.277l-6.444-6.444c-3.191-3.191-8.365-3.191-11.557,0l-0.225,0.225
	c-1.9,1.899-2.666,4.508-2.302,6.98c-2.472-0.364-5.081,0.402-6.98,2.302l-0.126,0.126c-1.45,1.451-2.368,3.372-2.48,5.419
	c-0.031,0.562-0.005,1.117,0.075,1.659c-2.471-0.362-5.078,0.404-6.976,2.302l-0.225,0.226c-1.9,1.899-2.666,4.508-2.302,6.98
	c-2.472-0.364-5.081,0.402-6.98,2.301l-0.225,0.226c-2.091,2.09-2.81,5.04-2.157,7.721c-0.162,0.077-0.313,0.18-0.447,0.314
	c-2.211,2.211-5.961,1.97-7.837-0.726c-0.412-0.593-0.692-1.272-0.815-1.985c-0.289-1.694,0.244-3.344,1.421-4.52l8.828-8.827
	c0.64-0.64,0.627-1.686-0.036-2.31c-0.642-0.603-1.665-0.541-2.288,0.083l-8.779,8.78c-2.019,2.018-5.32,1.992-7.307-0.078
	c-1.876-1.955-1.823-5.065,0-7.069l0.077-0.085l8.826-8.827c0.628-0.628,0.628-1.647,0-2.275c-0.628-0.628-1.647-0.628-2.275,0
	l-8.83,8.829c-1.185,1.184-2.851,1.716-4.558,1.411c-0.699-0.124-1.368-0.402-1.95-0.809c-1.419-0.993-2.219-2.545-2.219-4.22
	c0-1.366,0.532-2.65,1.498-3.615l14.77-14.77c0.621-0.621,0.623-1.626,0.005-2.249c-0.008-0.008-0.015-0.015-0.023-0.023
	c-0.621-0.625-1.634-0.627-2.256-0.004L15.363,54.837l-5.68-5.68c-0.613-0.613-1.019-1.425-1.141-2.283l-0.889-6.218
	c-0.184-1.29-0.816-2.455-1.718-3.397c-1.017-1.06-1.003-2.75,0.04-3.794L31.294,8.148c0.431-0.432,1.002-0.715,1.612-0.743
	c0.665-0.031,1.295,0.21,1.766,0.672c1.102,1.081,2.536,1.754,4.078,1.754h6.87c1.071,0,2.096,0.425,2.853,1.183L71.86,34.402
	c2.023,2.023,2.076,5.386,0.02,7.375c-1.998,1.932-5.196,1.911-7.169-0.062L48.767,25.77c-1.198-1.198-3.14-1.198-4.338,0
	L32.286,37.914c-0.623,0.623-0.623,1.631,0,2.253l0.022,0.023c0.623,0.622,1.631,0.622,2.253,0l12.038-12.038l15.721,15.721
	c3.261,3.261,8.695,3.36,11.936,0.079c1.588-1.609,2.444-3.75,2.401-6.019c-0.042-2.199-0.995-4.281-2.549-5.836L58.474,16.466
	c1.291-0.924,2.801-1.536,4.376-1.761l1.858-0.266c2.844-0.406,5.476-1.733,7.492-3.778l1.213-1.228
	c0.108-0.11,0.232-0.133,0.317-0.134c0.09,0,0.21,0.022,0.318,0.131l25.637,25.637c0.109,0.109,0.131,0.232,0.131,0.317
	C99.818,35.465,99.797,35.582,99.698,35.688L99.698,35.688z M99.698,35.688"/>
</svg>
