<?xml version="1.0" encoding="utf-8"?>
<!-- Generator: Adobe Illustrator 21.1.0, SVG Export Plug-In . SVG Version: 6.00 Build 0)  -->
<svg version="1.1" id="Layer_1" xmlns="http://www.w3.org/2000/svg" xmlns:xlink="http://www.w3.org/1999/xlink" x="0px" y="0px"
	 viewBox="0 0 28 39.407" style="enable-background:new 0 0 28 39.407;" xml:space="preserve">
<style type="text/css">
	.st0{clip-path:url(#SVGID_2_);}
	.st1{clip-path:url(#SVGID_4_);fill:#FFFFFF;}
</style>
<g>
	<defs>
		<path id="SVGID_1_" d="M14,19c1.684,0,3.105-0.589,4.263-1.768C19.421,16.054,20,14.643,20,13s-0.579-3.054-1.737-4.232
			C17.105,7.589,15.684,7,14,7s-3.105,0.589-4.263,1.768C8.579,9.946,8,11.357,8,13s0.579,3.054,1.737,4.232
			C10.895,18.411,12.316,19,14,19z M14,0c3.85,0,7.146,1.349,9.888,4.046C26.629,6.744,28,9.998,28,13.81
			c0,3.049-1.167,6.715-3.5,10.995c-2.333,4.281-4.667,7.799-7,10.555L14,39.407c-0.408-0.411-0.919-0.982-1.531-1.715
			c-0.612-0.733-1.721-2.155-3.325-4.266C7.54,31.315,6.125,29.262,4.9,27.268c-1.225-1.994-2.348-4.251-3.369-6.773
			C0.51,17.974,0,15.745,0,13.81c0-3.812,1.371-7.066,4.112-9.764C6.854,1.349,10.15,0,14,0z"/>
	</defs>
	<clipPath id="SVGID_2_">
		<use xlink:href="#SVGID_1_"  style="overflow:visible;"/>
	</clipPath>
	<g class="st0">
		<defs>
			<rect id="SVGID_3_" x="-235" y="-286" width="330" height="349"/>
		</defs>
		<clipPath id="SVGID_4_">
			<use xlink:href="#SVGID_3_"  style="overflow:visible;"/>
		</clipPath>
		<rect x="-5" y="-5" class="st1" width="38" height="49.407"/>
	</g>
</g>
</svg>
