<?xml version="1.0" encoding="utf-8"?>
<!-- Generator: Adobe Illustrator 21.0.0, SVG Export Plug-In . SVG Version: 6.00 Build 0)  -->
<svg version="1.1" id="Layer_1" xmlns="http://www.w3.org/2000/svg" xmlns:xlink="http://www.w3.org/1999/xlink" x="0px" y="0px"
	 viewBox="0 0 20 20" style="enable-background:new 0 0 20 20;" xml:space="preserve">
<style type="text/css">
	.st0{fill:#b5a781;}
</style>
<g id="XMLID_32_">
	<path id="XMLID_42_" class="st0" d="M10.004,12.509l-2.179-1.903L1.602,15.94c0.226,0.209,0.528,0.344,0.866,0.344h15.066
		c0.336,0,0.638-0.135,0.864-0.344l-6.223-5.334L10.004,12.509z M10.004,12.509"/>
	<path id="XMLID_39_" class="st0" d="M18.398,4.052c-0.22-0.207-0.528-0.336-0.864-0.336H2.468c-0.331,0-0.639,0.129-0.866,0.342
		l8.402,7.192L18.398,4.052z M18.398,4.052"/>
	<path id="XMLID_36_" class="st0" d="M1.203,4.814v10.444l6.075-5.161L1.203,4.814z M1.203,4.814"/>
	<path id="XMLID_33_" class="st0" d="M12.722,10.097l6.075,5.161V4.814L12.722,10.097z M12.722,10.097"/>
</g>
</svg>
