<?xml version="1.0" encoding="utf-8"?>
<!-- Generator: Adobe Illustrator 21.0.0, SVG Export Plug-In . SVG Version: 6.00 Build 0)  -->
<svg version="1.1" id="Layer_1" xmlns="http://www.w3.org/2000/svg" xmlns:xlink="http://www.w3.org/1999/xlink" x="0px" y="0px" width="77" height="99.677"
	 viewBox="0 0 77 99.677" style="enable-background:new 0 0 77 99.677;" xml:space="preserve">
<style type="text/css">
	.st0{fill:#092F68;}
	.st1{fill:#FFFFFF;}
</style>
<circle id="XMLID_40_" class="st0" cx="38.5" cy="38.5" r="38.5"/>
<path id="XMLID_38_" class="st0" d="M77,38.5C77,17.237,59.763,0,38.5,0S0,17.237,0,38.5s38.5,61.177,38.5,61.177S77,59.763,77,38.5
	z"/>
<g id="XMLID_41_">
	<g id="XMLID_124_">
		<path id="XMLID_222_" class="st1" d="M41.8,21.83c-0.064-0.49-0.362-1.063-0.551-1.337c-0.953-1.163-2.084-1.541-3.42-1.374
			c-1.35,0.167-2.452,1.419-2.813,2.648C36.929,22.963,39.892,23.066,41.8,21.83z"/>
		<path id="XMLID_221_" class="st1" d="M33.696,22.493l0.061,0.071c0.433,0.282,0.827,0.551,1.288,0.754
			c2.446,1.295,5.981,0.975,8.075-0.762c-0.329-0.135-0.672-0.285-1.029-0.315c-1.944,1.302-5.026,1.323-7.037,0.125
			c-0.211-0.055-0.314-0.268-0.553-0.257L33.696,22.493z"/>
		<path id="XMLID_220_" class="st1" d="M30.271,24.401c0.29,0.059,0.594,0.065,0.874-0.048c0.778-0.5,1.607-0.919,2.409-1.339
			l-0.58-0.105C31.964,23.114,31.089,23.863,30.271,24.401z"/>
		<path id="XMLID_219_" class="st1" d="M32.898,24.642c0.588-0.305,1.165-0.663,1.714-1.009c-0.198-0.018-0.34-0.179-0.566-0.131
			c-0.773,0.301-1.535,0.655-2.194,1.184C32.194,24.772,32.565,24.78,32.898,24.642z"/>
		<path id="XMLID_218_" class="st1" d="M33.512,24.998c0.92,0.258,1.622-0.402,2.279-0.838
			C34.858,23.876,34.169,24.589,33.512,24.998z"/>
		<path id="XMLID_217_" class="st1" d="M35.042,25.215c0.776,0.228,1.421-0.288,1.946-0.713
			C36.187,24.234,35.631,24.857,35.042,25.215z"/>
		<path id="XMLID_216_" class="st1" d="M29.239,25.054c-0.968,0.76-1.923,1.494-2.814,2.375c0.369,0.048,0.768-0.024,1.037-0.282
			c0.942-0.774,1.953-1.652,2.932-2.307C29.985,24.792,29.548,24.796,29.239,25.054z"/>
		<path id="XMLID_215_" class="st1" d="M36.318,25.573c0.184,0.017,0.422,0.048,0.595-0.027c0.227-0.075,0.351-0.31,0.33-0.562
			C36.921,25.176,36.626,25.368,36.318,25.573z"/>
		<path id="XMLID_214_" class="st1" d="M29.328,26.472c0.264,0.045,0.607,0.079,0.86,0.005c0.642-0.33,1.301-0.859,1.865-1.284
			C30.91,24.811,30.197,26.027,29.328,26.472z"/>
		<path id="XMLID_213_" class="st1" d="M31.511,26.464l0.237,0.032c0.817,0.176,1.348-0.567,1.925-0.952l-0.634-0.026
			C32.402,25.597,32.02,26.144,31.511,26.464z"/>
		<path id="XMLID_212_" class="st1" d="M34.809,25.634c-0.581-0.065-0.948,0.403-1.378,0.712c0.697,0.186,1.315-0.237,1.813-0.69
			C35.085,25.679,34.967,25.624,34.809,25.634z"/>
		<path id="XMLID_211_" class="st1" d="M36.56,25.975c-0.539-0.183-1.045,0.031-1.436,0.38C35.66,26.657,36.159,26.218,36.56,25.975
			z"/>
		<g id="XMLID_206_">
			<path id="XMLID_210_" class="st1" d="M46.52,34.705c-0.342-0.087-0.765-0.095-1.022,0.164c-0.361,0.178-0.117,0.768-0.65,0.701
				c-0.085,0.046-0.373,0.151-0.404,0.362c0.25,0.032,0.526,0.104,0.681,0.332c0.218-0.287,0.514-0.545,0.885-0.577
				c0.531-0.082,0.988,0.193,1.297,0.609c0.203-0.208,0.442-0.242,0.643-0.383c-0.139-0.254-0.417-0.313-0.708-0.293l-0.138-0.36
				C47.003,35.006,46.729,34.841,46.52,34.705z"/>
			<path id="XMLID_209_" class="st1" d="M49.169,37.684c0.236-0.511,0.682-0.965,1.074-1.406c-0.289-0.112-0.646-0.119-0.9,0.034
				c-0.429,0.282-0.532,0.783-0.49,1.286l-0.618-0.132c0.07-0.197,0.14-0.38,0.145-0.618c-0.077-0.094-0.141-0.228-0.286-0.244
				c-0.197-0.044-0.397,0.005-0.519,0.174c-0.162,0.142-0.047,0.37-0.13,0.513c-0.185-0.03-0.383-0.008-0.554-0.091
				c0.085-0.303,0.079-0.62-0.141-0.863c-0.21-0.084-0.379-0.233-0.63-0.212c-0.239,0.048-0.506,0.174-0.631,0.41
				c-0.096,0.17-0.075,0.395-0.052,0.567c-0.225,0.009-0.413,0.123-0.636,0.066c0.055-0.118,0.005-0.251,0.008-0.37
				c-0.075-0.187-0.205-0.322-0.403-0.352c-0.146,0.01-0.292,0.073-0.374,0.191c-0.11,0.209-0.089,0.474,0.039,0.662
				c-0.147,0.09-0.32,0.138-0.466,0.136c0.046-0.29-0.068-0.557-0.129-0.823c-0.204-0.335-0.612-0.436-1.01-0.379
				c0.396,0.67,0.778,1.366,1.027,2.125c1.599-0.549,3.715-0.531,5.371-0.046C48.976,38.102,49.06,37.88,49.169,37.684z"/>
			<path id="XMLID_208_" class="st1" d="M48.497,39.468c0.07-0.211,0.194-0.433,0.159-0.658c-1.525-0.455-3.546-0.59-5.039-0.026
				c0.075,0.187,0.03,0.45,0.146,0.585C45.24,38.977,47.039,39.015,48.497,39.468z"/>
			<path id="XMLID_207_" class="st1" d="M48.451,40.393c0.082-0.131-0.007-0.291-0.111-0.372c-1.248-0.437-2.887-0.497-4.19-0.181
				c-0.093,0.051-0.241,0.127-0.269,0.246c-0.029,0.132,0.02,0.278,0.151,0.347c1.022,0.471,2.347,0.38,3.499,0.285
				C47.863,40.685,48.234,40.68,48.451,40.393z"/>
		</g>
		<g id="XMLID_201_">
			<path id="XMLID_205_" class="st1" d="M29.35,36.237c0.178-0.274,0.487-0.506,0.818-0.552c0.571-0.107,1.028,0.18,1.364,0.571
				l0.36-0.164c0.107-0.064,0.266-0.074,0.282-0.219c-0.167-0.242-0.444-0.287-0.721-0.293c-0.05-0.16-0.073-0.319-0.189-0.454
				c-0.231-0.322-0.571-0.501-0.969-0.496c-0.305,0.033-0.598,0.146-0.749,0.434c-0.162,0.155-0.091,0.554-0.381,0.508
				c-0.199,0.049-0.492,0.135-0.51,0.373C28.933,35.924,29.155,36.087,29.35,36.237z"/>
			<path id="XMLID_204_" class="st1" d="M34.495,36.225c-0.314-0.152-0.738-0.108-1.007,0.072c-0.39,0.309-0.4,0.772-0.41,1.248
				c-0.198-0.031-0.395-0.101-0.579-0.144c0.109-0.17,0.141-0.407,0.106-0.62c-0.09-0.121-0.232-0.27-0.405-0.26
				c-0.159,0.036-0.332,0.086-0.415,0.242c-0.082,0.131-0.152,0.315-0.076,0.462c-0.172,0.023-0.41,0.005-0.567-0.065
				c0.056-0.171,0.088-0.435-0.014-0.609c-0.1-0.266-0.402-0.379-0.652-0.437c-0.239,0.035-0.477,0.056-0.64,0.264
				c-0.136,0.182-0.248,0.471-0.147,0.711c-0.212,0.035-0.426,0.11-0.65,0.092c0.004-0.185,0.048-0.409-0.081-0.557
				c-0.117-0.095-0.247-0.204-0.42-0.167c-0.133,0.05-0.281,0.153-0.323,0.284c-0.097,0.209,0.018,0.437,0.067,0.596
				c-0.159,0.01-0.281,0.166-0.452,0.11c0.019-0.277,0.025-0.581-0.129-0.809c-0.204-0.348-0.626-0.423-1.011-0.339
				c0.449,0.644,0.765,1.365,1.054,2.085c1.612-0.548,3.73-0.597,5.373-0.112C33.411,37.485,33.861,36.82,34.495,36.225z"/>
			<path id="XMLID_203_" class="st1" d="M27.961,38.747l-0.094,0.09l0.147,0.559c1.464-0.419,3.316-0.42,4.774,0.021
				c0.044-0.211,0.168-0.433,0.12-0.646C31.397,38.277,29.466,38.276,27.961,38.747z"/>
			<path id="XMLID_202_" class="st1" d="M32.773,40.17c-0.088-0.2-0.325-0.258-0.522-0.328c-0.948-0.179-2.031-0.281-2.987-0.128
				c-0.399,0.124-1.066,0.07-1.122,0.518c0.075,0.227,0.311,0.284,0.495,0.367c1.252,0.225,2.706,0.282,3.89-0.077
				C32.661,40.459,32.782,40.33,32.773,40.17z"/>
		</g>
		<g id="XMLID_196_">
			<path id="XMLID_200_" class="st1" d="M38.353,44.292c0.506-0.175,0.852,0.064,1.189,0.375c0.222,0.468,0.26,0.237,0.707,0.061
				c-0.113-0.293-0.564-0.554-0.695-0.59c-0.126-0.28-0.171-0.367-0.326-0.569c-0.285-0.271-0.524-0.263-0.854-0.256
				c-0.49,0.029-0.699,0.541-0.813,0.935c-0.162,0.142-0.415,0.229-0.485,0.413l0.418,0.26
				C37.71,44.648,38.007,44.391,38.353,44.292z"/>
			<path id="XMLID_199_" class="st1" d="M42.641,45.427c0.096-0.183,0.351-0.35,0.407-0.507c-0.264-0.032-0.541-0.051-0.768,0.05
				c-0.57,0.08-0.729,0.699-0.832,1.173l-0.604-0.145c0.018-0.237,0.01-0.476-0.159-0.638c-0.13-0.096-0.328-0.126-0.488-0.077
				c-0.227,0.114-0.272,0.351-0.369,0.561c-0.171-0.043-0.397,0.032-0.554-0.064c0.045-0.264,0.038-0.554-0.09-0.769
				c-0.155-0.135-0.285-0.257-0.497-0.262c-0.225,0.009-0.437,0.057-0.587,0.239c-0.15,0.196-0.221,0.445-0.174,0.711
				c-0.095,0.13-0.332,0.073-0.504,0.096c-0.182-0.162-0.044-0.451-0.279-0.601c-0.103-0.108-0.315-0.086-0.449-0.049
				c-0.134,0.077-0.256,0.206-0.311,0.351c-0.082,0.13,0.019,0.357-0.089,0.435c-0.817,0.512-0.204-0.672-0.667-0.98
				c-0.086-0.3-0.778-0.42-1.111-0.321c0.476,0.658,0.877,1.374,1.046,2.145l0.119,0.002c1.907-0.727,4.333-0.359,6.241,0.104
				C42.157,46.395,42.301,45.856,42.641,45.427z"/>
			<path id="XMLID_198_" class="st1" d="M41.674,47.39c-1.789-0.474-3.994-0.626-5.766-0.041c-0.331,0.033-0.02,0.33-0.05,0.502
				c1.706-0.625,3.884-0.381,5.648,0L41.674,47.39z"/>
			<path id="XMLID_197_" class="st1" d="M41.158,48.676c0.055-0.105,0.045-0.264-0.072-0.319c-0.327-0.192-0.709-0.266-1.106-0.288
				c-1.229-0.039-2.588-0.199-3.693,0.161c-0.134,0.076-0.308,0.178-0.246,0.378c0.259,0.257,0.63,0.252,0.972,0.337
				c1.096,0.077,2.261,0.087,3.346,0.031C40.65,48.93,40.954,48.909,41.158,48.676z"/>
		</g>
		<g id="XMLID_173_">
			<path id="XMLID_195_" class="st1" d="M28.391,29.334c0.135-0.143,0.165-0.368,0.114-0.554c-0.077-0.173-0.261-0.229-0.433-0.245
				c-0.159,0.037-0.32,0.154-0.362,0.325c-0.043,0.211,0.007,0.41,0.19,0.519C28.059,29.461,28.257,29.451,28.391,29.334z"/>
			<path id="XMLID_194_" class="st1" d="M26.375,30.545c0.382,0.085,0.729-0.108,0.958-0.369c0.216-0.274,0.223-0.697,0.082-1.017
				c-0.102-0.213-0.337-0.429-0.574-0.485c-0.395-0.125-0.807,0.04-1.063,0.34c-0.189,0.222-0.168,0.566-0.146,0.871
				C25.746,30.205,26.073,30.461,26.375,30.545z"/>
			<path id="XMLID_193_" class="st1" d="M23.504,31.479c-0.33,0.828,0.387,1.487,0.521,2.23c0.372-0.96,0.784-1.906,1.287-2.823
				c0.084-0.277,0.022-0.582-0.199-0.797c-0.13-0.148-0.354-0.164-0.566-0.181c-0.133,0.011-0.239,0.076-0.334,0.193
				c-0.283,0.326-0.186,0.87-0.085,1.229C23.889,31.339,23.652,31.283,23.504,31.479z"/>
			<path id="XMLID_192_" class="st1" d="M24.91,33.776c0.493-0.244,1.232-0.126,1.466-0.744c0.096-0.237-0.099-0.425-0.136-0.624
				c0.423,0.02,0.81-0.186,0.988-0.566c0.004-0.238,0.035-0.515-0.188-0.664c-0.26-0.308-0.789-0.277-1.071-0.057
				c-0.701,0.849-1.061,1.848-1.407,2.848L24.91,33.776z"/>
			<path id="XMLID_191_" class="st1" d="M22.89,33.506c-0.081,0.118-0.137,0.276-0.072,0.409c0.064,0.12,0.128,0.253,0.286,0.295
				c0.184,0.069,0.331-0.048,0.478-0.138c0.121-0.157,0.125-0.395,0.009-0.555C23.423,33.29,23.052,33.31,22.89,33.506z"/>
			<path id="XMLID_190_" class="st1" d="M25.821,34.663c0.055-0.131,0.111-0.329,0.02-0.463c-0.103-0.173-0.327-0.269-0.539-0.233
				c-0.2,0.076-0.269,0.26-0.298,0.458c0.023,0.199,0.153,0.346,0.351,0.402C25.553,34.871,25.713,34.794,25.821,34.663z"/>
			<path id="XMLID_189_" class="st1" d="M23.03,34.725c-0.19,0.328-0.277,0.776-0.137,1.149c0.165,0.413,0.571,0.71,1.02,0.73
				c0.449,0.034,0.823-0.212,1.08-0.539c0.178-0.354,0.238-0.843,0.032-1.19c-0.168-0.28-0.416-0.469-0.692-0.566
				C23.845,34.169,23.353,34.334,23.03,34.725z"/>
			<path id="XMLID_188_" class="st1" d="M24.48,40.051c0.195-0.605,1.188-0.708,1.015-1.465c-0.037-0.16-0.194-0.255-0.312-0.349
				c0.001-0.093,0.095-0.131,0.162-0.21c0.162-0.209,0.3-0.564,0.132-0.831c-0.117-0.148-0.246-0.308-0.43-0.364
				c-0.29-0.084-0.543,0.044-0.719,0.266c-0.426,1.025-0.035,2.261,0.028,3.294L24.48,40.051z"/>
			<path id="XMLID_187_" class="st1" d="M22.441,38.485c-0.413,1.012,0.906,1.258,1.33,2.018c0.005-0.304-0.028-0.715-0.116-1.033
				c-0.133-0.809,0.067-1.745-0.319-2.439c-0.157-0.108-0.327-0.23-0.552-0.207c-0.16,0.063-0.36,0.14-0.468,0.31
				c-0.148,0.183-0.113,0.474-0.037,0.687C22.25,38.059,22.934,38.268,22.441,38.485z"/>
			<path id="XMLID_186_" class="st1" d="M25.22,40.909c0.12-0.037,0.266-0.101,0.334-0.233c0.081-0.144,0.058-0.343-0.033-0.463
				c-0.116-0.174-0.353-0.257-0.552-0.207c-0.226,0.102-0.257,0.353-0.247,0.591C24.812,40.797,25.009,40.906,25.22,40.909z"/>
			<path id="XMLID_185_" class="st1" d="M22.86,41.322c0.144,0.095,0.302,0.124,0.462,0.047c0.187-0.103,0.243-0.34,0.194-0.552
				c-0.051-0.093-0.142-0.214-0.247-0.242c-0.131-0.042-0.264-0.004-0.384,0.02c-0.094,0.091-0.202,0.209-0.204,0.354
				C22.705,41.081,22.716,41.241,22.86,41.322z"/>
			<path id="XMLID_184_" class="st1" d="M24.497,43.226c0.449,0.02,0.89-0.238,1.094-0.631c0.164-0.315,0.105-0.765-0.049-1.072
				c-0.129-0.227-0.363-0.455-0.613-0.512c-0.434-0.139-0.899-0.002-1.195,0.311c-0.309,0.286-0.37,0.814-0.23,1.2
				C23.668,42.948,24.074,43.166,24.497,43.226z"/>
			<path id="XMLID_183_" class="st1" d="M27.268,44.473c-0.089-0.226-0.301-0.23-0.471-0.352c0.109-0.236,0.102-0.594-0.013-0.833
				c-0.233-0.321-0.776-0.277-0.992,0.011c-0.162,0.156-0.166,0.421-0.129,0.633c0.33,0.892,0.752,1.785,1.428,2.522
				C27.009,45.752,27.429,45.15,27.268,44.473z"/>
			<path id="XMLID_182_" class="st1" d="M24.446,45.579c-0.082,0.171-0.019,0.37,0.111,0.505c0.616,0.367,1.41,0.353,2.04,0.667
				c-0.311-0.415-0.635-0.816-0.866-1.283c-0.336-0.508-0.417-1.25-1.021-1.537c-0.223-0.109-0.437,0.033-0.623,0.109
				c-0.175,0.196-0.351,0.431-0.223,0.697c0.167,0.307,0.455,0.536,0.811,0.568C24.621,45.436,24.475,45.447,24.446,45.579z"/>
			<path id="XMLID_181_" class="st1" d="M27.8,46.782c0.171,0.069,0.37,0.046,0.504-0.084c0.094-0.131,0.15-0.315,0.087-0.475
				c-0.116-0.213-0.392-0.324-0.605-0.234c-0.133,0.077-0.267,0.154-0.256,0.326C27.526,46.527,27.656,46.675,27.8,46.782z"/>
			<path id="XMLID_180_" class="st1" d="M26.538,47.953c0.185,0.043,0.332-0.1,0.427-0.231c0.043-0.171,0.072-0.409-0.084-0.543
				c-0.118-0.082-0.236-0.149-0.395-0.125c-0.133,0.024-0.24,0.115-0.334,0.193c-0.055,0.119-0.124,0.289-0.033,0.396
				C26.197,47.802,26.353,47.95,26.538,47.953z"/>
			<path id="XMLID_179_" class="st1" d="M28.66,49.256c0.28-0.141,0.562-0.388,0.66-0.717c0.044-0.277,0.023-0.609-0.146-0.848
				c-0.284-0.428-0.851-0.582-1.316-0.378c-0.332,0.114-0.524,0.481-0.608,0.797c-0.058,0.33,0.083,0.61,0.251,0.864
				C27.787,49.308,28.222,49.356,28.66,49.256z"/>
			<path id="XMLID_178_" class="st1" d="M31.324,49.774c0.459,0.285,0.891,0.557,1.324,0.788c-0.363-0.507-0.219-1.206-0.568-1.715
				c-0.208-0.228-0.485-0.298-0.789-0.29c-0.103-0.187-0.113-0.398-0.255-0.573c-0.141-0.266-0.404-0.403-0.722-0.355
				c-0.186,0.076-0.374,0.232-0.429,0.416C29.67,48.955,30.722,49.381,31.324,49.774z"/>
			<path id="XMLID_177_" class="st1" d="M30.293,51.424c0.766,0.092,1.343-0.468,2.018-0.457c-0.341-0.217-0.787-0.449-1.18-0.707
				c-0.59-0.327-1.098-0.837-1.811-0.901c-0.265,0.036-0.466,0.218-0.615,0.441c-0.055,0.158-0.099,0.421,0.031,0.568
				c0.233,0.335,0.696,0.316,1.066,0.335C29.836,51.007,29.99,51.314,30.293,51.424z"/>
			<path id="XMLID_176_" class="st1" d="M33.759,50.514c0.094-0.117,0.097-0.29,0.073-0.448c-0.076-0.24-0.312-0.336-0.55-0.34
				c-0.133,0.037-0.266,0.088-0.334,0.22c-0.069,0.144-0.098,0.329-0.047,0.475c0.064,0.121,0.182,0.215,0.3,0.27
				C33.424,50.773,33.611,50.67,33.759,50.514z"/>
			<path id="XMLID_175_" class="st1" d="M33.733,52.192c0.209,0.176,0.525,0.233,0.791,0.145c0.226-0.089,0.441-0.271,0.551-0.507
				c0.136-0.263,0.088-0.581-0.053-0.834c-0.207-0.321-0.6-0.525-0.985-0.412c-0.306,0.101-0.56,0.308-0.645,0.625
				C33.292,51.604,33.418,51.989,33.733,52.192z"/>
			<path id="XMLID_174_" class="st1" d="M31.982,51.649c-0.029,0.185,0.074,0.372,0.217,0.506c0.145,0.016,0.276,0.123,0.423,0.033
				c0.159-0.01,0.267-0.167,0.309-0.313c0.056-0.197-0.007-0.383-0.137-0.518c-0.131-0.108-0.289-0.123-0.474-0.126
				C32.16,51.295,31.972,51.464,31.982,51.649z"/>
		</g>
		<g id="XMLID_167_">
			<path id="XMLID_172_" class="st1" d="M39.013,52.026c0.702-0.633,1.221-1.442,1.647-2.213c-0.198-0.018-0.383,0.005-0.531,0.068
				c-0.358,0.68-0.834,1.279-1.349,1.876L38.78,51.85C38.831,51.93,38.936,51.973,39.013,52.026z"/>
			<path id="XMLID_171_" class="st1" d="M37.041,49.872l-0.488-0.063c0.376,1,1.03,1.966,1.794,2.749
				c0.909,0.826,1.887,1.521,3.084,1.758C39.57,53.497,37.728,51.792,37.041,49.872z"/>
			<path id="XMLID_170_" class="st1" d="M39.023,49.954l-1.11-0.023l-0.016,0.753c0.14,0.254,0.387,0.511,0.58,0.713l0.599-0.808
				C39.041,50.377,39.111,50.154,39.023,49.954z"/>
			<path id="XMLID_169_" class="st1" d="M37.876,52.664c-0.876,0.749-1.907,1.362-2.919,1.685c1.194-0.186,2.276-0.653,3.218-1.44
				C38.084,52.827,38.007,52.707,37.876,52.664z"/>
			<path id="XMLID_168_" class="st1" d="M39.537,55.11c-0.618-0.198-0.498-0.87-0.513-1.399c-0.195-0.137-0.391-0.273-0.587-0.383
				l-0.484,0.373l-0.014,0.674c-0.073,0.317-0.329,0.562-0.571,0.729C38.008,55.448,38.948,55.402,39.537,55.11z"/>
		</g>
		<g id="XMLID_144_">
			<path id="XMLID_166_" class="st1" d="M48.491,29.317c-0.135-0.143-0.165-0.368-0.114-0.554c0.077-0.173,0.261-0.229,0.433-0.245
				c0.159,0.037,0.319,0.154,0.362,0.325c0.043,0.211-0.007,0.41-0.19,0.519C48.824,29.444,48.625,29.434,48.491,29.317z"/>
			<path id="XMLID_165_" class="st1" d="M50.507,30.528c-0.383,0.085-0.729-0.108-0.958-0.368c-0.216-0.275-0.223-0.697-0.082-1.017
				c0.102-0.213,0.337-0.428,0.574-0.485c0.395-0.125,0.808,0.04,1.064,0.34c0.189,0.222,0.168,0.566,0.146,0.87
				C51.137,30.188,50.81,30.444,50.507,30.528z"/>
			<path id="XMLID_164_" class="st1" d="M53.379,31.462c0.33,0.828-0.387,1.487-0.521,2.23c-0.372-0.96-0.784-1.905-1.287-2.823
				c-0.084-0.276-0.023-0.581,0.199-0.797c0.13-0.147,0.354-0.164,0.565-0.181c0.133,0.011,0.24,0.076,0.334,0.193
				c0.283,0.326,0.185,0.87,0.086,1.229C52.993,31.322,53.23,31.266,53.379,31.462z"/>
			<path id="XMLID_163_" class="st1" d="M51.973,33.759c-0.493-0.243-1.231-0.126-1.466-0.744c-0.096-0.236,0.099-0.425,0.136-0.624
				c-0.423,0.02-0.81-0.186-0.988-0.566c-0.003-0.238-0.034-0.515,0.188-0.664c0.259-0.308,0.789-0.277,1.07-0.057
				c0.701,0.849,1.06,1.848,1.408,2.848L51.973,33.759z"/>
			<path id="XMLID_162_" class="st1" d="M53.992,33.489c0.082,0.118,0.137,0.276,0.073,0.409c-0.065,0.12-0.129,0.253-0.287,0.295
				c-0.184,0.069-0.33-0.048-0.478-0.138c-0.122-0.157-0.125-0.395-0.009-0.555C53.46,33.273,53.831,33.294,53.992,33.489z"/>
			<path id="XMLID_161_" class="st1" d="M51.061,34.646c-0.055-0.131-0.111-0.329-0.021-0.463c0.103-0.173,0.326-0.27,0.539-0.233
				c0.2,0.076,0.268,0.26,0.298,0.458c-0.023,0.199-0.153,0.346-0.351,0.402C51.328,34.854,51.169,34.777,51.061,34.646z"/>
			<path id="XMLID_160_" class="st1" d="M53.853,34.708c0.19,0.328,0.277,0.776,0.137,1.149c-0.165,0.412-0.571,0.71-1.02,0.73
				c-0.45,0.033-0.824-0.212-1.08-0.539c-0.178-0.354-0.238-0.843-0.033-1.19c0.169-0.281,0.416-0.47,0.693-0.567
				C53.037,34.152,53.529,34.317,53.853,34.708z"/>
			<path id="XMLID_159_" class="st1" d="M52.402,40.035c-0.195-0.605-1.188-0.709-1.015-1.465c0.038-0.159,0.195-0.254,0.312-0.348
				c-0.001-0.093-0.095-0.131-0.162-0.209c-0.162-0.209-0.3-0.564-0.132-0.831c0.116-0.147,0.247-0.308,0.431-0.364
				c0.289-0.084,0.543,0.044,0.718,0.266c0.427,1.025,0.036,2.261-0.027,3.294L52.402,40.035z"/>
			<path id="XMLID_158_" class="st1" d="M54.441,38.468c0.413,1.012-0.906,1.257-1.331,2.018c-0.005-0.304,0.029-0.714,0.116-1.033
				c0.132-0.809-0.068-1.745,0.318-2.439c0.158-0.108,0.328-0.23,0.553-0.207c0.16,0.064,0.359,0.14,0.468,0.31
				c0.148,0.183,0.113,0.474,0.037,0.687C54.633,38.042,53.948,38.251,54.441,38.468z"/>
			<path id="XMLID_157_" class="st1" d="M51.662,40.892c-0.119-0.038-0.266-0.102-0.334-0.232c-0.082-0.145-0.059-0.343,0.033-0.464
				c0.116-0.174,0.353-0.257,0.552-0.207c0.226,0.102,0.257,0.352,0.247,0.591C52.07,40.781,51.874,40.889,51.662,40.892z"/>
			<path id="XMLID_156_" class="st1" d="M54.022,41.306c-0.144,0.094-0.302,0.123-0.462,0.047c-0.186-0.103-0.243-0.34-0.193-0.552
				c0.051-0.094,0.142-0.215,0.247-0.242c0.132-0.042,0.265-0.004,0.384,0.02c0.094,0.091,0.202,0.209,0.204,0.354
				C54.178,41.065,54.167,41.224,54.022,41.306z"/>
			<path id="XMLID_155_" class="st1" d="M52.386,43.209c-0.45,0.02-0.89-0.238-1.095-0.631c-0.164-0.315-0.104-0.766,0.05-1.072
				c0.128-0.227,0.363-0.455,0.614-0.512c0.434-0.14,0.899-0.001,1.195,0.311c0.309,0.286,0.37,0.814,0.231,1.2
				C53.215,42.932,52.808,43.15,52.386,43.209z"/>
			<path id="XMLID_154_" class="st1" d="M49.615,44.456c0.089-0.226,0.3-0.229,0.471-0.351c-0.109-0.236-0.102-0.594,0.014-0.833
				c0.233-0.321,0.775-0.276,0.992,0.011c0.161,0.156,0.165,0.421,0.129,0.633c-0.33,0.891-0.753,1.784-1.429,2.523
				C49.873,45.735,49.454,45.133,49.615,44.456z"/>
			<path id="XMLID_153_" class="st1" d="M52.436,45.562c0.082,0.171,0.019,0.371-0.111,0.504c-0.616,0.367-1.41,0.354-2.04,0.667
				c0.311-0.415,0.635-0.817,0.866-1.283c0.336-0.508,0.417-1.249,1.021-1.537c0.223-0.109,0.437,0.033,0.624,0.109
				c0.175,0.196,0.351,0.431,0.222,0.698c-0.167,0.307-0.455,0.536-0.811,0.568C52.262,45.42,52.408,45.431,52.436,45.562z"/>
			<path id="XMLID_152_" class="st1" d="M49.083,46.766c-0.171,0.069-0.37,0.045-0.504-0.084c-0.095-0.131-0.151-0.315-0.087-0.475
				c0.116-0.213,0.392-0.323,0.605-0.234c0.133,0.077,0.266,0.154,0.256,0.326C49.356,46.51,49.227,46.658,49.083,46.766z"/>
			<path id="XMLID_151_" class="st1" d="M50.344,47.936c-0.184,0.043-0.333-0.1-0.427-0.231c-0.043-0.171-0.072-0.409,0.084-0.543
				c0.119-0.082,0.236-0.149,0.395-0.125c0.133,0.024,0.241,0.115,0.335,0.193c0.054,0.118,0.123,0.289,0.032,0.396
				C50.686,47.786,50.53,47.933,50.344,47.936z"/>
			<path id="XMLID_150_" class="st1" d="M48.222,49.239c-0.28-0.141-0.562-0.388-0.659-0.717c-0.044-0.277-0.023-0.608,0.145-0.848
				c0.284-0.428,0.851-0.582,1.316-0.378c0.333,0.114,0.524,0.481,0.608,0.798c0.059,0.329-0.082,0.609-0.251,0.863
				C49.095,49.292,48.66,49.339,48.222,49.239z"/>
			<path id="XMLID_149_" class="st1" d="M45.559,49.757c-0.459,0.285-0.891,0.556-1.324,0.788c0.362-0.509,0.219-1.207,0.568-1.715
				c0.208-0.228,0.485-0.299,0.789-0.29c0.103-0.187,0.113-0.399,0.256-0.573c0.141-0.267,0.403-0.403,0.722-0.355
				c0.186,0.076,0.374,0.232,0.43,0.417C47.212,48.938,46.161,49.364,45.559,49.757z"/>
			<path id="XMLID_148_" class="st1" d="M46.59,51.407c-0.766,0.091-1.343-0.468-2.018-0.457c0.34-0.217,0.786-0.449,1.179-0.706
				c0.59-0.326,1.098-0.837,1.811-0.901c0.266,0.036,0.466,0.218,0.615,0.44c0.056,0.158,0.1,0.422-0.031,0.57
				c-0.232,0.334-0.696,0.315-1.066,0.334C47.045,50.99,46.892,51.297,46.59,51.407z"/>
			<path id="XMLID_147_" class="st1" d="M43.124,50.497c-0.095-0.118-0.098-0.29-0.073-0.449c0.075-0.239,0.312-0.336,0.55-0.339
				c0.132,0.037,0.266,0.088,0.334,0.219c0.069,0.145,0.098,0.329,0.047,0.476c-0.064,0.12-0.182,0.214-0.3,0.269
				C43.458,50.756,43.271,50.653,43.124,50.497z"/>
			<path id="XMLID_146_" class="st1" d="M43.149,52.175c-0.208,0.176-0.525,0.234-0.791,0.145c-0.226-0.089-0.441-0.27-0.55-0.507
				c-0.136-0.262-0.088-0.581,0.054-0.834c0.207-0.32,0.6-0.525,0.985-0.412c0.305,0.1,0.56,0.308,0.644,0.625
				C43.59,51.587,43.465,51.973,43.149,52.175z"/>
			<path id="XMLID_145_" class="st1" d="M44.9,51.633c0.029,0.184-0.073,0.371-0.216,0.505c-0.146,0.016-0.276,0.124-0.423,0.033
				c-0.159-0.01-0.267-0.168-0.309-0.312c-0.056-0.197,0.007-0.383,0.137-0.518c0.131-0.108,0.289-0.123,0.474-0.127
				C44.723,51.278,44.91,51.447,44.9,51.633z"/>
		</g>
		<path id="XMLID_143_" class="st1" d="M46.558,24.398c-0.29,0.059-0.594,0.065-0.874-0.048c-0.778-0.5-1.607-0.919-2.409-1.338
			l0.58-0.105C44.864,23.11,45.74,23.859,46.558,24.398z"/>
		<path id="XMLID_142_" class="st1" d="M43.931,24.638c-0.588-0.305-1.165-0.663-1.714-1.009c0.198-0.017,0.34-0.179,0.565-0.131
			c0.774,0.301,1.535,0.656,2.194,1.184C44.635,24.768,44.265,24.776,43.931,24.638z"/>
		<path id="XMLID_141_" class="st1" d="M43.317,24.994c-0.92,0.257-1.622-0.403-2.28-0.838
			C41.971,23.872,42.66,24.585,43.317,24.994z"/>
		<path id="XMLID_140_" class="st1" d="M41.787,25.211c-0.776,0.228-1.421-0.287-1.946-0.713
			C40.642,24.23,41.197,24.853,41.787,25.211z"/>
		<path id="XMLID_139_" class="st1" d="M47.59,25.05c0.968,0.76,1.923,1.494,2.814,2.375c-0.369,0.047-0.768-0.024-1.037-0.283
			c-0.942-0.774-1.952-1.652-2.932-2.306C46.844,24.788,47.281,24.792,47.59,25.05z"/>
		<path id="XMLID_138_" class="st1" d="M40.511,25.569c-0.185,0.017-0.422,0.049-0.596-0.027c-0.226-0.075-0.351-0.31-0.329-0.562
			C39.908,25.172,40.203,25.364,40.511,25.569z"/>
		<path id="XMLID_137_" class="st1" d="M47.501,26.468c-0.264,0.045-0.607,0.079-0.86,0.005c-0.642-0.33-1.301-0.859-1.866-1.284
			C45.919,24.808,46.632,26.023,47.501,26.468z"/>
		<path id="XMLID_136_" class="st1" d="M45.318,26.461l-0.238,0.031c-0.816,0.176-1.348-0.567-1.924-0.952l0.634-0.027
			C44.427,25.593,44.809,26.14,45.318,26.461z"/>
		<path id="XMLID_135_" class="st1" d="M42.021,25.63c0.58-0.065,0.947,0.403,1.378,0.712c-0.697,0.187-1.315-0.237-1.814-0.69
			C41.744,25.675,41.861,25.62,42.021,25.63z"/>
		<path id="XMLID_134_" class="st1" d="M40.268,25.971c0.539-0.183,1.046,0.031,1.437,0.38
			C41.169,26.654,40.67,26.214,40.268,25.971z"/>
		<g id="XMLID_125_">
			<path id="XMLID_133_" class="st1" d="M37.668,37.413c-0.34-0.179-0.679-0.411-1.033-0.564c-1.263,0.952-1.783,2.423-1.605,4.014
				c0.148,1.153,0.942,2.401,2.084,2.821c0.006-0.278,0.183-0.499,0.201-0.75c-0.81-0.493-1.228-1.362-1.329-2.25
				C35.856,39.319,36.567,38.197,37.668,37.413z"/>
			<path id="XMLID_132_" class="st1" d="M39.137,42.456l0.033-4.126c-0.402-0.392-0.925-0.628-1.423-0.877l0.067,4.988
				C38.214,42.305,38.73,42.329,39.137,42.456z"/>
			<path id="XMLID_129_" class="st1" d="M40.976,34.64c-0.593,0.4-1.13,0.694-1.774,0.999l-0.026-0.026l0.093-8.782l-0.035-2.257
				c-0.532,0.081-1.063,0.03-1.608,0.006l-0.054,0.025l-0.008,2.403l0.112,7.803l0.024,0.146c0.885,0.324,1.696,0.846,2.497,1.341
				c0.792-0.409,1.625-0.855,2.353-1.399c1.203-0.906,1.987-2.204,1.767-3.763c-0.087-0.919-0.896-1.614-1.645-2.042
				c0.19-0.154,0.404-0.243,0.58-0.412l0.001-0.053c-0.878,0.114-1.601-0.312-2.426-0.25c-0.213,0.021-0.337,0.218-0.407,0.389
				c-0.226,0.023-0.454,0.031-0.628,0.161c-0.231,0.194-0.316,0.444-0.321,0.723c0.267-0.087,0.573-0.094,0.85-0.009
				c0.157,0.123,0.34,0.286,0.349,0.513c0.009,0.172-0.074,0.304-0.207,0.406c-0.083,0.093-0.308,0.061-0.271,0.208
				c0.196,0.191,0.471,0.315,0.753,0.216c0.241-0.088,0.419-0.311,0.489-0.548c0.229-0.075,0.423,0.102,0.649,0.146
				c0.539,0.291,0.819,0.881,0.834,1.465C42.919,33.246,41.905,34.075,40.976,34.64z M40.774,28.865
				c0.075-0.093,0.145-0.165,0.206-0.187c0.47-0.053,0.694,0.096,1.034,0.204C41.638,29.061,41.166,29.118,40.774,28.865z"/>
			<path id="XMLID_126_" class="st1" d="M36.512,29.604c0.228-0.128,0.586-0.053,0.824,0.018c0.017-0.252-0.096-0.481-0.253-0.656
				c-0.208-0.283-0.677-0.055-0.802-0.402c-0.142-0.216-0.394-0.248-0.659-0.241c-0.668,0.172-1.337,0.358-2.079,0.343
				c0.155,0.19,0.405,0.3,0.587,0.464c-0.095,0.077-0.215,0.115-0.309,0.18c-0.969,0.564-1.441,1.577-1.306,2.696
				c0.303,2.61,3.126,3.6,5.003,4.702c1.26,0.744,2.959,1.483,3.283,3.112c0.293,1.174-0.025,2.47-0.998,3.233
				c0.128,0.229,0.229,0.471,0.317,0.712c0.524-0.335,1.094-0.829,1.345-1.407c0.703-1.235,0.489-3.059-0.245-4.205
				c-1.641-2.173-4.329-2.587-6.3-4.237c-0.64-0.612-1.155-1.392-0.908-2.318c0.129-0.541,0.565-1.051,1.126-1.159
				c0.429-0.203,0.284,0.365,0.588,0.464c0.183,0.084,0.463,0.117,0.663,0.04c0.108-0.062,0.23-0.141,0.258-0.287l-0.145-0.043
				c-0.158-0.096-0.38-0.234-0.362-0.459C36.146,29.929,36.323,29.72,36.512,29.604z M34.8,28.891
				c0.346-0.085,0.705-0.292,1.089-0.203l0.159,0.177C35.485,29.104,35.18,29.072,34.8,28.891z"/>
		</g>
	</g>
	<g id="XMLID_89_">
		<path id="XMLID_122_" class="st1" d="M15.132,35.018l0.289,0.533c-0.173,0.091-0.287,0.18-0.342,0.266
			c-0.062,0.09-0.096,0.207-0.102,0.352c-0.007,0.178,0.038,0.328,0.134,0.45c0.095,0.122,0.217,0.185,0.368,0.191
			c0.208,0.008,0.381-0.14,0.52-0.444l0.19-0.418c0.153-0.34,0.334-0.586,0.542-0.738c0.208-0.152,0.458-0.222,0.75-0.211
			c0.392,0.015,0.711,0.158,0.956,0.429c0.247,0.273,0.363,0.604,0.348,0.994c-0.015,0.37-0.136,0.671-0.365,0.903
			c-0.228,0.229-0.542,0.365-0.942,0.408l-0.118-0.657c0.251-0.02,0.426-0.064,0.525-0.134c0.189-0.125,0.288-0.315,0.298-0.569
			c0.008-0.201-0.053-0.369-0.182-0.507c-0.129-0.138-0.297-0.211-0.502-0.219c-0.083-0.003-0.159,0.005-0.229,0.026
			c-0.07,0.02-0.135,0.054-0.194,0.1c-0.06,0.047-0.117,0.107-0.17,0.182c-0.054,0.075-0.106,0.165-0.156,0.27l-0.187,0.404
			c-0.269,0.573-0.641,0.85-1.115,0.831c-0.32-0.012-0.583-0.145-0.788-0.397c-0.207-0.253-0.304-0.561-0.29-0.925
			C14.39,35.649,14.644,35.275,15.132,35.018z"/>
		<path id="XMLID_120_" class="st1" d="M15.579,32.146l3.584,0.732l-0.128,0.628l-3.584-0.732l-0.196,0.96l-0.592-0.121l0.52-2.546
			l0.592,0.121L15.579,32.146z"/>
		<path id="XMLID_117_" class="st1" d="M17.408,30.671c-0.553-0.233-0.942-0.636-1.168-1.208c-0.227-0.571-0.22-1.139,0.018-1.706
			c0.236-0.559,0.638-0.955,1.207-1.186c0.57-0.233,1.135-0.231,1.696,0.006c0.565,0.238,0.959,0.642,1.182,1.211
			c0.224,0.572,0.215,1.144-0.026,1.717c-0.214,0.507-0.581,0.888-1.102,1.143C18.639,30.929,18.037,30.936,17.408,30.671z
			 M17.666,30.076c0.433,0.183,0.851,0.187,1.253,0.014c0.402-0.172,0.683-0.448,0.843-0.827c0.173-0.412,0.178-0.819,0.013-1.223
			c-0.168-0.404-0.459-0.694-0.872-0.868c-0.418-0.177-0.828-0.184-1.228-0.024c-0.402,0.158-0.689,0.442-0.862,0.852
			c-0.172,0.409-0.176,0.813-0.01,1.215C16.965,29.615,17.253,29.902,17.666,30.076z"/>
		<path id="XMLID_115_" class="st1" d="M20.14,21.857l0.617,0.445c-0.47,0.12-0.821,0.341-1.053,0.663
			c-0.256,0.356-0.345,0.747-0.265,1.175c0.078,0.428,0.3,0.775,0.668,1.04c0.363,0.262,0.759,0.361,1.185,0.296
			c0.426-0.065,0.767-0.275,1.024-0.63c0.133-0.184,0.215-0.361,0.248-0.533c0.022-0.093,0.035-0.197,0.04-0.31
			c0.005-0.113,0.002-0.239-0.009-0.375l0.631,0.455c-0.046,0.421-0.188,0.795-0.425,1.124c-0.356,0.494-0.833,0.791-1.431,0.892
			c-0.6,0.098-1.146-0.03-1.637-0.385c-0.441-0.318-0.729-0.747-0.863-1.289c-0.164-0.664-0.041-1.28,0.369-1.849
			C19.463,22.266,19.763,22.026,20.14,21.857z"/>
		<path id="XMLID_113_" class="st1" d="M22.974,21.047l0.091-2.374l0.637-0.575l-0.136,2.724l3.002,0.432l-0.639,0.578l-2.41-0.378
			l-0.01,0.187l1.183,1.309l-0.476,0.43l-2.858-3.163l0.476-0.431L22.974,21.047z"/>
		<path id="XMLID_111_" class="st1" d="M26.624,18.147l1.599-0.913l-0.826-1.448l0.557-0.318l2.112,3.7l-0.557,0.318l-0.986-1.727
			l-1.599,0.913l0.986,1.727l-0.557,0.318l-2.112-3.7l0.557-0.318L26.624,18.147z"/>
		<path id="XMLID_108_" class="st1" d="M30.128,16.733c-0.171-0.575-0.108-1.132,0.191-1.671c0.297-0.538,0.74-0.895,1.33-1.07
			c0.582-0.174,1.144-0.114,1.684,0.178c0.542,0.292,0.901,0.73,1.075,1.314c0.175,0.588,0.114,1.149-0.184,1.683
			c-0.299,0.537-0.747,0.894-1.344,1.072c-0.528,0.157-1.056,0.116-1.585-0.124C30.712,17.848,30.323,17.388,30.128,16.733z
			 M30.751,16.555c0.135,0.452,0.398,0.778,0.788,0.979c0.389,0.201,0.781,0.243,1.177,0.125c0.429-0.128,0.747-0.384,0.954-0.769
			c0.205-0.388,0.244-0.798,0.115-1.228c-0.13-0.436-0.384-0.759-0.764-0.966c-0.378-0.21-0.781-0.252-1.208-0.124
			c-0.426,0.127-0.741,0.383-0.946,0.766C30.661,15.718,30.622,16.124,30.751,16.555z"/>
		<path id="XMLID_106_" class="st1" d="M36.135,13.192l0.347,3.641l1.248-0.119l0.057,0.602l-1.888,0.18l-0.404-4.243L36.135,13.192
			z"/>
		<path id="XMLID_104_" class="st1" d="M38.765,17.2l1.485-4.428l1.02,3.476l1.933-3.089l0.204,4.65l-0.654-0.086l-0.074-2.605
			l-1.61,2.58l-0.856-2.906l-0.789,2.495L38.765,17.2z"/>
		<path id="XMLID_102_" class="st1" d="M50.111,16.714l-0.604,0.045c-0.012-0.195-0.047-0.335-0.102-0.421
			c-0.056-0.094-0.15-0.173-0.28-0.237c-0.16-0.079-0.315-0.1-0.466-0.061c-0.15,0.037-0.259,0.123-0.326,0.258
			c-0.093,0.187-0.029,0.406,0.192,0.657l0.303,0.345c0.248,0.279,0.399,0.545,0.452,0.797c0.054,0.252,0.016,0.509-0.114,0.772
			c-0.174,0.352-0.435,0.584-0.782,0.698c-0.35,0.114-0.7,0.085-1.05-0.089c-0.331-0.164-0.556-0.398-0.674-0.702
			c-0.115-0.302-0.111-0.644,0.013-1.027l0.648,0.161c-0.085,0.237-0.116,0.415-0.092,0.533c0.037,0.224,0.169,0.392,0.397,0.505
			c0.18,0.089,0.358,0.103,0.537,0.041c0.178-0.062,0.313-0.184,0.404-0.369c0.037-0.074,0.06-0.147,0.07-0.22
			c0.01-0.072,0.006-0.145-0.012-0.219c-0.018-0.074-0.051-0.15-0.098-0.23c-0.047-0.08-0.108-0.164-0.183-0.253l-0.293-0.337
			c-0.415-0.481-0.516-0.934-0.305-1.359c0.142-0.287,0.371-0.472,0.686-0.556c0.316-0.086,0.638-0.048,0.964,0.115
			C49.838,15.781,50.076,16.165,50.111,16.714z"/>
		<path id="XMLID_100_" class="st1" d="M54.259,19.132l-0.458,0.606c-0.109-0.472-0.322-0.828-0.639-1.068
			c-0.349-0.264-0.738-0.361-1.168-0.291c-0.429,0.068-0.781,0.282-1.053,0.643c-0.27,0.357-0.377,0.749-0.322,1.176
			c0.055,0.427,0.258,0.773,0.607,1.037c0.181,0.136,0.356,0.223,0.527,0.26c0.092,0.024,0.196,0.039,0.309,0.047
			c0.113,0.007,0.238,0.007,0.375,0l-0.468,0.619c-0.419-0.056-0.79-0.206-1.113-0.45c-0.486-0.367-0.773-0.85-0.86-1.449
			c-0.084-0.601,0.056-1.142,0.421-1.625c0.327-0.433,0.762-0.71,1.304-0.833c0.666-0.149,1.279-0.012,1.838,0.411
			C53.865,18.447,54.098,18.752,54.259,19.132z"/>
		<path id="XMLID_98_" class="st1" d="M54.973,21.878l1.196,1.396l1.267-1.085l0.42,0.49l-3.24,2.775l-0.42-0.49l1.511-1.295
			l-1.195-1.396L53,23.568l-0.42-0.49l3.24-2.775l0.42,0.49L54.973,21.878z"/>
		<path id="XMLID_95_" class="st1" d="M56.98,24.999c0.531-0.279,1.09-0.323,1.675-0.134c0.585,0.188,1.02,0.554,1.306,1.098
			c0.282,0.538,0.332,1.1,0.149,1.686c-0.181,0.588-0.542,1.024-1.081,1.307c-0.543,0.285-1.105,0.333-1.686,0.143
			c-0.584-0.19-1.021-0.561-1.309-1.111c-0.256-0.487-0.317-1.013-0.183-1.578C55.998,25.787,56.375,25.317,56.98,24.999z
			 M57.276,25.578c-0.417,0.219-0.686,0.539-0.808,0.96c-0.123,0.419-0.089,0.811,0.103,1.176c0.208,0.395,0.52,0.657,0.936,0.786
			c0.42,0.126,0.828,0.085,1.226-0.123c0.402-0.211,0.669-0.522,0.8-0.933c0.133-0.411,0.097-0.813-0.11-1.207
			c-0.206-0.392-0.517-0.651-0.932-0.778C58.078,25.33,57.673,25.37,57.276,25.578z"/>
		<path id="XMLID_92_" class="st1" d="M59.434,29.977c0.584-0.138,1.136-0.041,1.656,0.288c0.519,0.328,0.85,0.791,0.991,1.39
			c0.139,0.592,0.047,1.148-0.276,1.671c-0.323,0.524-0.78,0.856-1.373,0.996c-0.596,0.14-1.152,0.046-1.668-0.283
			c-0.518-0.33-0.848-0.798-0.991-1.404c-0.127-0.536-0.054-1.061,0.216-1.575C58.287,30.494,58.77,30.133,59.434,29.977z
			 M59.576,30.611c-0.457,0.108-0.798,0.35-1.021,0.728c-0.222,0.376-0.287,0.764-0.192,1.166c0.102,0.435,0.34,0.767,0.71,0.996
			c0.374,0.227,0.779,0.29,1.216,0.187c0.441-0.104,0.777-0.339,1.006-0.705c0.231-0.365,0.296-0.764,0.194-1.197
			c-0.102-0.432-0.337-0.761-0.708-0.988C60.414,30.571,60.012,30.508,59.576,30.611z"/>
		<path id="XMLID_90_" class="st1" d="M62.631,36.554l-3.655,0.076l0.026,1.252l-0.603,0.013l-0.04-1.894l4.259-0.089L62.631,36.554
			z"/>
	</g>
	<g id="XMLID_63_">
		<path id="XMLID_86_" class="st1" d="M18.027,46.656c0.519-0.302,1.075-0.371,1.669-0.208c0.593,0.162,1.044,0.508,1.352,1.039
			c0.305,0.525,0.379,1.084,0.222,1.678c-0.157,0.595-0.498,1.046-1.025,1.353c-0.53,0.308-1.09,0.381-1.68,0.218
			c-0.592-0.165-1.045-0.516-1.357-1.053c-0.277-0.475-0.36-0.998-0.251-1.569C17.08,47.486,17.436,47,18.027,46.656z
			 M18.347,47.221c-0.407,0.237-0.663,0.569-0.766,0.994c-0.104,0.425-0.053,0.815,0.154,1.171c0.225,0.387,0.548,0.635,0.97,0.745
			c0.425,0.108,0.832,0.05,1.22-0.177c0.393-0.228,0.646-0.551,0.759-0.968c0.116-0.416,0.062-0.817-0.162-1.202
			c-0.223-0.383-0.545-0.629-0.965-0.738C19.139,46.937,18.736,46.995,18.347,47.221z"/>
		<path id="XMLID_84_" class="st1" d="M23.607,51.999l-0.981-1.115l-0.771,0.678l0.947,1.076l-0.453,0.398l-0.947-1.076
			l-1.525,1.342l-0.426-0.485L22.652,50l1.407,1.6L23.607,51.999z"/>
		<path id="XMLID_82_" class="st1" d="M28.086,55.471l-1.426-0.942l-0.563,0.853l1.385,0.914l-0.334,0.506l-1.384-0.914
			l-0.783,1.185l1.426,0.942l-0.334,0.506l-1.963-1.296l2.349-3.556l1.963,1.297L28.086,55.471z"/>
		<path id="XMLID_80_" class="st1" d="M32.129,56.897l-0.294,0.701c-0.222-0.431-0.516-0.723-0.883-0.877
			c-0.404-0.17-0.805-0.168-1.203,0.006c-0.399,0.171-0.687,0.466-0.863,0.883c-0.173,0.412-0.181,0.818-0.021,1.219
			c0.159,0.401,0.44,0.685,0.844,0.855c0.208,0.088,0.4,0.128,0.574,0.122c0.096,0,0.199-0.01,0.311-0.031
			c0.111-0.021,0.233-0.052,0.364-0.092l-0.301,0.715c-0.42,0.049-0.816-0.004-1.19-0.161c-0.562-0.236-0.958-0.634-1.191-1.192
			c-0.23-0.562-0.228-1.122,0.007-1.679c0.21-0.501,0.564-0.876,1.06-1.129c0.609-0.309,1.237-0.327,1.883-0.055
			C31.579,56.33,31.88,56.568,32.129,56.897z"/>
		<path id="XMLID_77_" class="st1" d="M32.453,59.005c0.103-0.59,0.409-1.06,0.916-1.408c0.506-0.349,1.061-0.47,1.667-0.364
			c0.598,0.105,1.074,0.408,1.426,0.911c0.354,0.503,0.48,1.054,0.375,1.653c-0.105,0.603-0.411,1.077-0.916,1.423
			c-0.507,0.346-1.067,0.466-1.68,0.358c-0.542-0.095-0.996-0.367-1.361-0.818C32.478,60.262,32.335,59.677,32.453,59.005z
			 M33.092,59.123c-0.081,0.463,0.008,0.871,0.268,1.223c0.258,0.352,0.589,0.564,0.995,0.635c0.44,0.077,0.838-0.01,1.194-0.261
			c0.356-0.254,0.573-0.602,0.65-1.043c0.078-0.446-0.006-0.847-0.252-1.201c-0.244-0.356-0.585-0.572-1.024-0.649
			c-0.437-0.076-0.832,0.011-1.186,0.262C33.384,58.338,33.169,58.683,33.092,59.123z"/>
		<path id="XMLID_75_" class="st1" d="M38.229,61.945l-0.291-4.543l3.31,3.047l-0.19-2.956l0.641-0.041l0.29,4.512l-3.309-3.038
			l0.191,2.978L38.229,61.945z"/>
		<path id="XMLID_72_" class="st1" d="M43.045,59.38c-0.177-0.573-0.12-1.13,0.174-1.672c0.291-0.541,0.731-0.902,1.319-1.083
			c0.58-0.179,1.141-0.125,1.684,0.162c0.545,0.286,0.908,0.72,1.088,1.303c0.181,0.586,0.125,1.147-0.168,1.685
			c-0.294,0.539-0.738,0.901-1.332,1.084c-0.525,0.162-1.054,0.126-1.585-0.109C43.64,60.489,43.246,60.033,43.045,59.38z
			 M43.667,59.195c0.139,0.45,0.404,0.773,0.796,0.97c0.39,0.197,0.782,0.235,1.175,0.113c0.427-0.132,0.742-0.391,0.944-0.776
			c0.201-0.39,0.235-0.799,0.104-1.228c-0.134-0.434-0.391-0.753-0.772-0.957c-0.379-0.206-0.782-0.243-1.207-0.112
			c-0.424,0.13-0.735,0.389-0.936,0.774C43.57,58.361,43.536,58.766,43.667,59.195z"/>
		<path id="XMLID_70_" class="st1" d="M49.208,59.568l-1.597-4.387l2.963,2.081l-0.412-3.619l3.056,3.508l-0.565,0.341L50.972,55.5
			l0.35,3.024l-2.481-1.742l0.937,2.442L49.208,59.568z"/>
		<path id="XMLID_68_" class="st1" d="M52.239,52.296l2.832,3.189l-0.482,0.428l-2.831-3.19L52.239,52.296z"/>
		<path id="XMLID_66_" class="st1" d="M55.47,49.079l0.581,0.49c-0.478,0.084-0.844,0.277-1.101,0.581
			c-0.282,0.335-0.4,0.718-0.353,1.15c0.045,0.433,0.24,0.795,0.586,1.087c0.342,0.289,0.728,0.417,1.158,0.384
			c0.429-0.032,0.785-0.216,1.068-0.551c0.146-0.173,0.242-0.344,0.288-0.512c0.029-0.091,0.05-0.193,0.063-0.306
			c0.014-0.113,0.02-0.237,0.02-0.375l0.594,0.501c-0.078,0.416-0.248,0.778-0.509,1.088c-0.392,0.465-0.891,0.725-1.494,0.781
			c-0.604,0.051-1.138-0.119-1.6-0.509c-0.415-0.35-0.669-0.799-0.763-1.348c-0.113-0.673,0.056-1.278,0.509-1.814
			C54.765,49.435,55.082,49.218,55.47,49.079z"/>
		<path id="XMLID_64_" class="st1" d="M57.55,46.184l0.021,0.606c-0.194,0.004-0.336,0.033-0.424,0.086
			c-0.095,0.053-0.178,0.143-0.248,0.27c-0.085,0.156-0.112,0.311-0.079,0.463c0.031,0.151,0.113,0.262,0.245,0.335
			c0.183,0.1,0.404,0.045,0.663-0.165l0.356-0.289c0.288-0.236,0.559-0.376,0.813-0.42c0.253-0.044,0.508,0.004,0.765,0.144
			c0.344,0.188,0.567,0.458,0.666,0.809c0.101,0.354,0.058,0.702-0.129,1.045c-0.177,0.325-0.42,0.54-0.729,0.646
			c-0.307,0.103-0.649,0.085-1.026-0.053l0.185-0.641c0.234,0.094,0.411,0.132,0.53,0.113c0.225-0.029,0.398-0.154,0.519-0.377
			c0.096-0.176,0.117-0.354,0.063-0.535c-0.054-0.18-0.172-0.32-0.353-0.419c-0.072-0.039-0.144-0.066-0.216-0.078
			c-0.071-0.013-0.144-0.012-0.218,0.003c-0.075,0.015-0.152,0.044-0.234,0.088c-0.082,0.043-0.168,0.101-0.259,0.173l-0.346,0.279
			c-0.496,0.394-0.952,0.477-1.369,0.25c-0.281-0.153-0.457-0.389-0.528-0.708c-0.073-0.319-0.022-0.639,0.151-0.959
			C56.605,46.42,56.998,46.197,57.55,46.184z"/>
	</g>
	<circle id="XMLID_62_" class="st1" cx="16.305" cy="42.106" r="0.562"/>
	<circle id="XMLID_61_" class="st1" cx="59.986" cy="42.106" r="0.562"/>
</g>
</svg>
