<?xml version="1.0" encoding="utf-8"?>
<!-- Generator: Adobe Illustrator 21.0.0, SVG Export Plug-In . SVG Version: 6.00 Build 0)  -->
<svg version="1.1" id="Layer_1" xmlns="http://www.w3.org/2000/svg" xmlns:xlink="http://www.w3.org/1999/xlink" x="0px" y="0px"
	 viewBox="0 0 100 100" style="enable-background:new 0 0 100 100;" xml:space="preserve">
<style type="text/css">
	.st0{fill:#FFFFFF;}
</style>
<g id="XMLID_122_">
	<path id="XMLID_129_" class="st0" d="M88.862,2.493C88.621,2,88.12,1.686,87.571,1.686H59.35c-0.442,0-0.858,0.203-1.13,0.55
		L50,12.728L41.779,2.236c-0.272-0.347-0.688-0.549-1.13-0.549h-9.112c-0.003,0-0.006-0.001-0.009-0.001H21.55
		c-0.002,0-0.004,0.001-0.007,0.001h-9.114c-0.549,0-1.05,0.313-1.29,0.806c-0.24,0.494-0.178,1.081,0.16,1.513l19.117,24.398
		c-0.475,0.646-0.745,1.435-0.745,2.267v14.044c-6.336,5.622-10.335,13.819-10.335,22.934c0,16.909,13.756,30.666,30.665,30.666
		c16.908,0,30.665-13.757,30.665-30.665c0-9.117-4-17.314-10.337-22.937V30.671c0-0.848-0.28-1.628-0.748-2.263L88.7,4.006
		C89.039,3.574,89.102,2.987,88.862,2.493L88.862,2.493z M69.171,4.556h6.331L59.55,24.916l-3.165-4.041L69.171,4.556z
		 M60.048,4.556h5.477L54.562,18.548l-2.738-3.494L60.048,4.556z M39.951,4.556l21.213,27.072h-5.476L34.476,4.556H39.951z
		 M62.676,34.498v5.232c-3.866-1.762-8.157-2.744-12.675-2.744c-4.518,0-8.811,0.982-12.677,2.745v-5.232H62.676z M15.376,4.556
		h5.476l7.534,9.614c0.488,0.624,1.39,0.733,2.014,0.244c0.624-0.488,0.733-1.391,0.245-2.014l-6.147-7.844h6.331l21.213,27.072
		H45.71l-10.782-13.76c-0.488-0.624-1.39-0.734-2.014-0.245v0.001c-0.624,0.488-0.733,1.39-0.245,2.014l9.395,11.99h-5.476
		L15.376,4.556z M34.454,33.558v7.671c-0.653,0.386-1.292,0.795-1.913,1.227v-11.34L34.454,33.558z M77.795,67.65
		c0,15.326-12.468,27.794-27.794,27.794S22.207,82.976,22.207,67.65s12.468-27.795,27.794-27.795S77.795,52.324,77.795,67.65
		L77.795,67.65z M65.538,32.912c0-0.002-0.001-0.004-0.001-0.006c-0.006-0.058-0.017-0.115-0.03-0.172
		c-0.003-0.013-0.007-0.027-0.01-0.04c-0.014-0.051-0.03-0.102-0.05-0.151c-0.003-0.008-0.004-0.015-0.007-0.022
		c-0.024-0.057-0.051-0.112-0.08-0.165c-0.005-0.01-0.012-0.019-0.017-0.029c-0.027-0.045-0.056-0.088-0.088-0.131
		c-0.004-0.006-0.008-0.013-0.013-0.019l-1.93-2.463h3.192c0.528,0,0.957,0.43,0.957,0.957v11.784
		c-0.621-0.432-1.259-0.841-1.913-1.227v-8.166C65.545,33.012,65.543,32.962,65.538,32.912L65.538,32.912z M67.117,26.898
		c-0.201-0.033-0.405-0.054-0.615-0.054h-4.817L79.149,4.556h5.475L67.117,26.898z M67.117,26.898"/>
	<path id="XMLID_126_" class="st0" d="M71.015,57.539c-0.362-0.753-1.279-1.05-2.006-0.638l-0.002,0.001
		c-0.657,0.372-0.91,1.19-0.582,1.872c1.326,2.752,2.022,5.795,2.022,8.875c0,11.542-9.613,20.882-21.254,20.43
		c-10.612-0.411-19.212-9.011-19.623-19.622c-0.451-11.641,8.888-21.255,20.431-21.255c5.639,0,10.97,2.304,14.825,6.366
		c0.523,0.55,1.379,0.605,1.962,0.12c0.636-0.529,0.697-1.487,0.127-2.087c-4.397-4.637-10.48-7.268-16.915-7.268
		c-13.163,0-23.813,10.963-23.299,24.238c0.469,12.101,10.276,21.909,22.377,22.378c13.275,0.514,24.238-10.137,24.238-23.299
		C73.317,64.142,72.525,60.677,71.015,57.539L71.015,57.539z M71.015,57.539"/>
	<path id="XMLID_123_" class="st0" d="M51.121,52.051c-0.505,0-0.842,0.168-1.137,0.463l-4.38,4.212
		c-0.547,0.379-0.885,1.095-0.885,1.726c0,0.885,0.632,1.812,1.517,1.812c0.252,0,0.631-0.126,0.926-0.421l1.474-1.853v23.416
		c0,0.968,1.095,1.474,2.232,1.474c1.096,0,2.233-0.505,2.233-1.474V53.525C53.1,52.598,52.048,52.051,51.121,52.051L51.121,52.051z
		 M51.121,52.051"/>
</g>
</svg>
