<?xml version="1.0" encoding="utf-8" ?>
<svg xmlns="http://www.w3.org/2000/svg" xmlns:xlink="http://www.w3.org/1999/xlink" width="50" height="70">
	<defs>
		<clipPath id="clip_0">
			<rect x="-617" y="-1428" width="1440" height="2560" clip-rule="evenodd"/>
		</clipPath>
	</defs>
	<g clip-path="url(#clip_0)">
		<path fill="rgb(255,255,255)" stroke="none" transform="translate(8 6)" d="M17 34C26.3888 34 34 26.3888 34 17C34 7.61116 26.3888 0 17 0C7.61116 0 0 7.61116 0 17C0 26.3888 7.61116 34 17 34Z"/>
	</g>
	<defs>
		<clipPath id="clip_1">
			<rect x="-617" y="-1428" width="1440" height="2560" clip-rule="evenodd"/>
		</clipPath>
	</defs>
	<g clip-path="url(#clip_1)">
		<path fill="rgb(160,143,89)" stroke="none" d="M42.3126 7.12577C37.4562 2.37523 31.6182 0 24.7986 0C17.979 0 12.141 2.37523 7.28459 7.12577C2.42817 11.8763 0 17.6078 0 24.3206C0 27.7286 0.904107 31.6529 2.71235 36.0936C4.52059 40.5343 6.50962 44.5102 8.67951 48.0215C10.8494 51.5328 13.3551 55.1473 16.1966 58.8651C19.0381 62.5829 21.0013 65.0872 22.0863 66.3781C23.1712 67.669 24.0753 68.6759 24.7986 69.3988L30.9983 62.273C35.1314 57.4192 39.2644 51.223 43.3976 43.6841C47.5307 36.1452 49.5972 29.6907 49.5972 24.3206C49.5972 17.6078 47.169 11.8763 42.3126 7.12577ZM32.35 30.3468C30.299 32.4224 27.7819 33.4601 24.7986 33.4601C21.8153 33.4601 19.2982 32.4224 17.2472 30.3468C15.1961 28.2713 14.1706 25.787 14.1706 22.8938C14.1706 20.0006 15.1961 17.5163 17.2472 15.4407C19.2982 13.3652 21.8153 12.3274 24.7986 12.3274C27.7819 12.3274 30.299 13.3652 32.35 15.4407C34.4011 17.5163 35.4266 20.0006 35.4266 22.8938C35.4266 25.787 34.4011 28.2713 32.35 30.3468Z" fill-rule="evenodd"/>
	</g>
</svg>
