<?xml version="1.0" encoding="utf-8"?>
<!-- Generator: Adobe Illustrator 21.0.0, SVG Export Plug-In . SVG Version: 6.00 Build 0)  -->
<svg version="1.1" id="Layer_1" xmlns="http://www.w3.org/2000/svg" xmlns:xlink="http://www.w3.org/1999/xlink" x="0px" y="0px"
	 viewBox="0 0 20 20" style="enable-background:new 0 0 20 20;" xml:space="preserve">
<style type="text/css">
	.st0{fill:#b5a781;}
</style>
<path id="XMLID_34_" class="st0" d="M18.16,14.721c0.034,0.265-0.046,0.496-0.242,0.692l-2.3,2.282
	c-0.104,0.115-0.239,0.213-0.406,0.294c-0.167,0.081-0.331,0.133-0.493,0.156c-0.011,0-0.046,0.003-0.104,0.009
	c-0.058,0.006-0.132,0.009-0.225,0.009c-0.219,0-0.574-0.037-1.064-0.112c-0.49-0.075-1.089-0.26-1.798-0.553
	c-0.709-0.294-1.513-0.735-2.412-1.323c-0.899-0.588-1.856-1.395-2.87-2.421c-0.807-0.795-1.476-1.556-2.006-2.282
	c-0.53-0.726-0.957-1.398-1.28-2.015C2.637,8.838,2.395,8.279,2.233,7.778C2.072,7.276,1.962,6.844,1.905,6.481
	C1.847,6.118,1.824,5.832,1.836,5.625c0.011-0.207,0.017-0.323,0.017-0.346c0.023-0.161,0.075-0.326,0.156-0.493
	C2.089,4.619,2.187,4.484,2.303,4.38l2.3-2.3c0.161-0.161,0.346-0.242,0.553-0.242c0.15,0,0.282,0.043,0.398,0.13
	c0.115,0.086,0.213,0.193,0.294,0.32l1.85,3.51C7.801,5.982,7.83,6.184,7.784,6.403C7.738,6.622,7.64,6.807,7.49,6.957L6.643,7.804
	C6.62,7.827,6.6,7.864,6.582,7.916c-0.017,0.052-0.026,0.095-0.026,0.13c0.046,0.242,0.15,0.519,0.311,0.83
	c0.138,0.277,0.352,0.614,0.64,1.012c0.288,0.398,0.697,0.856,1.228,1.375c0.519,0.53,0.98,0.942,1.383,1.236
	c0.403,0.294,0.741,0.51,1.012,0.648c0.271,0.138,0.478,0.222,0.622,0.251l0.216,0.043c0.023,0,0.061-0.009,0.112-0.026
	c0.052-0.017,0.089-0.038,0.112-0.061l0.986-1.003c0.208-0.184,0.45-0.277,0.726-0.277c0.196,0,0.352,0.035,0.467,0.104h0.017
	l3.337,1.971C17.969,14.3,18.113,14.49,18.16,14.721L18.16,14.721z M18.16,14.721"/>
</svg>
