<?xml version="1.0" encoding="utf-8"?>
<!-- Generator: Adobe Illustrator 21.1.0, SVG Export Plug-In . SVG Version: 6.00 Build 0)  -->
<svg version="1.1" id="Capa_1" xmlns="http://www.w3.org/2000/svg" xmlns:xlink="http://www.w3.org/1999/xlink" x="0px" y="0px"
	 viewBox="0 0 512.5 352" style="enable-background:new 0 0 512.5 352;" xml:space="preserve">
<style type="text/css">
	.st0{fill:#FFFFFF;}
</style>
<g>
	<path class="st0" d="M112.5,128c61.856,0,112,50.145,112,112s-50.144,112-112,112s-112-50.145-112-112L0,224
		C0,100.288,100.288,0,224,0v64c-42.737,0-82.917,16.643-113.137,46.863c-5.817,5.818-11.126,12.008-15.915,18.51
		C100.667,128.473,106.528,128,112.5,128z M400.5,128c61.855,0,112,50.145,112,112s-50.145,112-112,112s-112-50.145-112-112l-0.5-16
		C288,100.288,388.287,0,512,0v64c-42.736,0-82.918,16.643-113.137,46.863c-5.818,5.818-11.127,12.008-15.916,18.51
		C388.666,128.473,394.527,128,400.5,128z"/>
</g>
</svg>
