<?xml version="1.0" encoding="utf-8"?>
<!-- Generator: Adobe Illustrator 21.0.0, SVG Export Plug-In . SVG Version: 6.00 Build 0)  -->
<svg version="1.1" id="Layer_1" xmlns="http://www.w3.org/2000/svg" xmlns:xlink="http://www.w3.org/1999/xlink" x="0px" y="0px"
	 viewBox="0 0 50 50" style="enable-background:new 0 0 50 50;" xml:space="preserve">
<style type="text/css">
	.st0{fill:#FFFFFF;}
</style>
<path id="XMLID_2_" class="st0" d="M46.329,43.721L35.482,32.444c2.789-3.317,4.316-7.489,4.316-11.832
	c0-10.145-8.254-18.399-18.398-18.399c-10.145,0-18.399,8.254-18.399,18.399c0,10.148,8.254,18.402,18.399,18.402
	c3.808,0,7.437-1.148,10.542-3.332l10.926,11.367c0.457,0.477,1.074,0.738,1.731,0.738c0.625,0,1.215-0.238,1.664-0.671
	C47.216,46.198,47.247,44.678,46.329,43.721L46.329,43.721z M21.4,7.014c7.5,0,13.601,6.102,13.601,13.598
	c0,7.5-6.101,13.601-13.601,13.601S7.798,28.112,7.798,20.612C7.798,13.116,13.9,7.014,21.4,7.014L21.4,7.014z M21.4,7.014"/>
</svg>
