<?xml version="1.0" encoding="utf-8"?>
<!-- Generator: Adobe Illustrator 21.1.0, SVG Export Plug-In . SVG Version: 6.00 Build 0)  -->
<svg version="1.1" id="Layer_1" xmlns="http://www.w3.org/2000/svg" xmlns:xlink="http://www.w3.org/1999/xlink" x="0px" y="0px"
	 viewBox="0 0 113.247 79.649" style="enable-background:new 0 0 113.247 79.649;" xml:space="preserve">
<style type="text/css">
	.st0{clip-path:url(#SVGID_2_);}
	.st1{clip-path:url(#SVGID_4_);fill:#FFFFFF;}
	.st2{clip-path:url(#SVGID_6_);}
	.st3{clip-path:url(#SVGID_8_);fill:#FFFFFF;}
	.st4{clip-path:url(#SVGID_10_);}
	.st5{clip-path:url(#SVGID_12_);fill:#FFFFFF;}
	.st6{clip-path:url(#SVGID_14_);}
	.st7{clip-path:url(#SVGID_16_);fill:#FFFFFF;}
	.st8{clip-path:url(#SVGID_18_);}
	.st9{clip-path:url(#SVGID_20_);fill:#FFFFFF;}
	.st10{clip-path:url(#SVGID_22_);}
	.st11{clip-path:url(#SVGID_24_);fill:#FFFFFF;}
</style>
<g>
	<defs>
		<path id="SVGID_1_" d="M40.223,79.649v-5.084h-5.504C15.58,74.565,0,58.93,0,39.715C0,20.609,15.58,5.056,34.719,5.056h8.351
			v9.266h-8.351C20.7,14.322,9.282,25.72,9.282,39.715c0,14.104,11.418,25.584,25.437,25.584h5.504v-5.057l16.839,9.703
			L40.223,79.649z"/>
	</defs>
	<clipPath id="SVGID_2_">
		<use xlink:href="#SVGID_1_"  style="overflow:visible;"/>
	</clipPath>
	<g class="st0">
		<defs>
			<rect id="SVGID_3_" x="0" y="0" width="115" height="82"/>
		</defs>
		<clipPath id="SVGID_4_">
			<use xlink:href="#SVGID_3_"  style="overflow:visible;"/>
		</clipPath>
		<rect x="-5" y="0.056" class="st1" width="67.062" height="84.593"/>
	</g>
</g>
<g>
	<defs>
		<path id="SVGID_5_" d="M113.247,39.715c0,19.215-15.662,34.85-34.911,34.85h-8.351v-9.266h8.351
			c14.129,0,25.629-11.48,25.629-25.584c0-13.995-11.5-25.393-25.629-25.393h-5.504v5.084L55.994,9.703L72.833,0v5.057h5.504
			C97.585,5.057,113.247,20.609,113.247,39.715"/>
	</defs>
	<clipPath id="SVGID_6_">
		<use xlink:href="#SVGID_5_"  style="overflow:visible;"/>
	</clipPath>
	<g class="st2">
		<defs>
			<rect id="SVGID_7_" x="0" y="0" width="115" height="82"/>
		</defs>
		<clipPath id="SVGID_8_">
			<use xlink:href="#SVGID_7_"  style="overflow:visible;"/>
		</clipPath>
		<rect x="50.994" y="-5" class="st3" width="67.254" height="84.565"/>
	</g>
</g>
<g>
	<defs>
		<path id="SVGID_9_" d="M25.58,35.512c0.246-1.963,1.087-4.034,2.322-5.294c1.719-1.79,3.97-2.214,5.936-2.214
			c2.916,0,4.92,0.845,6.152,2.069c0.986,0.949,1.791,2.493,1.791,4.772c0,1.159-0.208,2.176-0.95,3.195
			c-0.523,0.702-1.087,1.159-1.755,1.471c0.986,0.385,2.001,1.02,2.67,1.897c0.704,0.946,1.09,2.419,1.09,3.682
			c0,1.79-0.704,3.824-2.355,5.336c-2.002,1.823-4.25,2.036-6.185,2.036c-2.283,0-4.781-0.353-6.851-2.424
			c-1.372-1.369-2.358-3.403-2.607-5.789h5.416c0.107,0.948,0.457,1.965,1.123,2.632c0.564,0.563,1.479,0.948,2.604,0.948
			c0.947,0,1.793-0.281,2.355-0.806c0.564-0.527,0.947-1.441,0.947-2.389c0-0.979-0.457-1.788-1.021-2.244
			c-0.841-0.667-2.07-0.735-2.878-0.735h-0.424v-3.72h0.32c0.312,0,1.544,0,2.352-0.667c0.526-0.421,0.876-1.159,0.876-2.105
			c0-0.809-0.312-1.473-0.769-1.894c-0.422-0.385-1.125-0.702-2.001-0.702c-0.953,0-1.657,0.317-2.114,0.773
			c-0.526,0.522-0.805,1.435-0.843,2.173H25.58z"/>
	</defs>
	<clipPath id="SVGID_10_">
		<use xlink:href="#SVGID_9_"  style="overflow:visible;"/>
	</clipPath>
	<g class="st4">
		<defs>
			<rect id="SVGID_11_" x="0" y="0" width="115" height="82"/>
		</defs>
		<clipPath id="SVGID_12_">
			<use xlink:href="#SVGID_11_"  style="overflow:visible;"/>
		</clipPath>
		<rect x="19.838" y="23.004" class="st5" width="27.997" height="34.458"/>
	</g>
</g>
<g>
	<defs>
		<path id="SVGID_13_" d="M60.053,28.564l-6.185,7.686c0.704-0.246,1.438-0.388,2.459-0.388c2.952,0,4.781,1.159,5.799,2.247
			c0.843,0.842,2.04,2.597,2.04,5.404c0,2.244-0.704,4.633-2.215,6.278c-2.144,2.318-5.131,2.632-7.207,2.632
			c-2.177,0-5.274-0.208-7.59-2.736c-1.55-1.651-2.037-3.578-2.037-5.685c0-3.753,1.755-6.35,3.759-8.982l5.375-7.049L60.053,28.564
			z M57.381,46.951c0.668-0.596,1.229-1.58,1.229-3.086c0-1.369-0.561-2.282-1.229-2.878c-0.879-0.809-1.865-0.984-2.809-0.984
			c-1.092,0-2.04,0.211-2.848,1.017c-0.457,0.424-1.196,1.334-1.196,2.982c0,1.088,0.315,2.107,1.196,2.914
			c0.665,0.664,1.613,1.088,2.848,1.088C55.974,48.004,56.853,47.408,57.381,46.951z"/>
	</defs>
	<clipPath id="SVGID_14_">
		<use xlink:href="#SVGID_13_"  style="overflow:visible;"/>
	</clipPath>
	<g class="st6">
		<defs>
			<rect id="SVGID_15_" x="0" y="0" width="115" height="82"/>
		</defs>
		<clipPath id="SVGID_16_">
			<use xlink:href="#SVGID_15_"  style="overflow:visible;"/>
		</clipPath>
		<rect x="40.117" y="22.971" class="st7" width="29.049" height="34.452"/>
	</g>
</g>
<g>
	<defs>
		<path id="SVGID_17_" d="M81.66,50.003c-1.372,1.367-3.373,2.422-6.292,2.422c-2.809,0-4.814-1.055-6.218-2.422
			c-2.286-2.247-3.376-5.754-3.376-9.788c0-4.07,1.09-7.579,3.376-9.824c1.405-1.369,3.409-2.422,6.218-2.422
			c2.919,0,4.92,1.052,6.292,2.422c2.284,2.244,3.373,5.754,3.373,9.824C85.033,44.249,83.944,47.756,81.66,50.003 M73.227,33.477
			c-1.689,1.687-1.969,5.054-1.969,6.702c0,1.788,0.279,5.122,1.969,6.738c0.665,0.596,1.227,0.875,2.177,0.875
			c0.95,0,1.511-0.279,2.18-0.875c1.687-1.615,1.971-4.95,1.971-6.738c0-1.648-0.285-5.016-1.971-6.702
			c-0.668-0.596-1.229-0.877-2.18-0.877C74.453,32.6,73.892,32.881,73.227,33.477"/>
	</defs>
	<clipPath id="SVGID_18_">
		<use xlink:href="#SVGID_17_"  style="overflow:visible;"/>
	</clipPath>
	<g class="st8">
		<defs>
			<rect id="SVGID_19_" x="0" y="0" width="115" height="82"/>
		</defs>
		<clipPath id="SVGID_20_">
			<use xlink:href="#SVGID_19_"  style="overflow:visible;"/>
		</clipPath>
		<rect x="60.774" y="22.969" class="st9" width="29.26" height="34.455"/>
	</g>
</g>
<g>
	<defs>
		<path id="SVGID_21_" d="M92.776,28.496c3.056,0,5.413,2.386,5.413,5.33c0,2.949-2.358,5.335-5.413,5.335
			c-3.061,0-5.416-2.386-5.416-5.335C87.36,30.882,89.715,28.496,92.776,28.496 M92.776,36.425c1.511,0,2.672-1.195,2.672-2.599
			c0-1.4-1.161-2.594-2.672-2.594c-1.514,0-2.672,1.194-2.672,2.594C90.103,35.231,91.262,36.425,92.776,36.425"/>
	</defs>
	<clipPath id="SVGID_22_">
		<use xlink:href="#SVGID_21_"  style="overflow:visible;"/>
	</clipPath>
	<g class="st10">
		<defs>
			<rect id="SVGID_23_" x="0" y="0" width="115" height="82"/>
		</defs>
		<clipPath id="SVGID_24_">
			<use xlink:href="#SVGID_23_"  style="overflow:visible;"/>
		</clipPath>
		<rect x="82.36" y="23.496" class="st11" width="20.829" height="20.665"/>
	</g>
</g>
</svg>
