<?xml version="1.0" encoding="UTF-8" standalone="no"?>
<svg
   xmlns:dc="http://purl.org/dc/elements/1.1/"
   xmlns:cc="http://creativecommons.org/ns#"
   xmlns:rdf="http://www.w3.org/1999/02/22-rdf-syntax-ns#"
   xmlns:svg="http://www.w3.org/2000/svg"
   xmlns="http://www.w3.org/2000/svg"
   height="150"
   width="388.85101"
   xml:space="preserve"
   viewBox="0 0 388.85101 150.00001"
   y="0px"
   x="0px"
   id="Layer_1"
   version="1.1"><metadata
     id="metadata4774"><rdf:RDF><cc:Work
         rdf:about=""><dc:format>image/svg+xml</dc:format><dc:type
           rdf:resource="http://purl.org/dc/dcmitype/StillImage" /><dc:title></dc:title></cc:Work></rdf:RDF></metadata><defs
     id="defs4772" /><style
     id="style4498"
     type="text/css">
	.st0{fill:#FFFFFF;}
	.st1{fill:none;stroke:#FFFFFF;stroke-width:0.9021;}
</style><g
     style="fill:#ffffff"
     transform="translate(-6.110916,-10.2)"
     id="g5421"><g
       id="g4500"
       style="fill:#ffffff"
       transform="matrix(0.88028169,0,0,0.88028169,6.110916,10.199997)"><g
         id="g4502"
         style="fill:#ffffff"><path
           class="st0"
           d="m 77.1,25.4 c -0.2,-1.4 -1,-3 -1.5,-3.7 -2.7,-3.3 -5.8,-4.3 -9.6,-3.9 -3.8,0.5 -6.9,4 -7.9,7.4 5.3,3.4 13.6,3.6 19,0.2 z"
           id="path4504"
           style="fill:#ffffff" /><path
           class="st0"
           d="m 54.4,27.2 0.2,0.2 c 1.2,0.8 2.3,1.5 3.6,2.1 6.9,3.6 16.8,2.7 22.6,-2.1 C 79.9,27 78.9,26.6 77.9,26.5 72.5,30.1 63.8,30.2 58.2,26.8 57.6,26.6 57.3,26 56.7,26.1 l -2.3,1.1 z"
           id="path4506"
           style="fill:#ffffff" /><path
           class="st0"
           d="m 44.8,32.6 c 0.8,0.2 1.7,0.2 2.4,-0.1 2.2,-1.4 4.5,-2.6 6.7,-3.8 l -1.6,-0.3 c -2.8,0.6 -5.2,2.7 -7.5,4.2 z"
           id="path4508"
           style="fill:#ffffff" /><path
           class="st0"
           d="m 52.1,33.3 c 1.6,-0.9 3.3,-1.9 4.8,-2.8 -0.6,0 -1,-0.5 -1.6,-0.4 -2.2,0.8 -4.3,1.8 -6.1,3.3 1,0.2 2,0.2 2.9,-0.1 z"
           id="path4510"
           style="fill:#ffffff" /><path
           class="st0"
           d="m 53.9,34.3 c 2.6,0.7 4.5,-1.1 6.4,-2.3 -2.7,-0.9 -4.6,1.1 -6.4,2.3 z"
           id="path4512"
           style="fill:#ffffff" /><path
           class="st0"
           d="m 58.1,34.9 c 2.2,0.6 4,-0.8 5.5,-2 -2.3,-0.8 -3.8,1 -5.5,2 z"
           id="path4514"
           style="fill:#ffffff" /><path
           class="st0"
           d="m 41.9,34.4 c -2.7,2.1 -5.4,4.2 -7.9,6.7 1,0.1 2.2,-0.1 2.9,-0.8 2.6,-2.2 5.5,-4.6 8.2,-6.5 -1.1,-0.1 -2.4,-0.1 -3.2,0.6 z"
           id="path4516"
           style="fill:#ffffff" /><path
           class="st0"
           d="m 61.7,35.9 c 0.5,0 1.2,0.1 1.7,-0.1 0.6,-0.2 1,-0.9 0.9,-1.6 -0.9,0.6 -1.7,1.1 -2.6,1.7 z"
           id="path4518"
           style="fill:#ffffff" /><path
           class="st0"
           d="m 42.1,38.4 c 0.7,0.1 1.7,0.2 2.4,0 1.8,-0.9 3.6,-2.4 5.2,-3.6 -3.1,-1.1 -5.1,2.3 -7.6,3.6 z"
           id="path4520"
           style="fill:#ffffff" /><path
           class="st0"
           d="m 48.2,38.4 0.7,0.1 c 2.3,0.5 3.8,-1.6 5.4,-2.7 l -1.8,-0.1 c -1.8,0.2 -2.8,1.8 -4.3,2.7 z"
           id="path4522"
           style="fill:#ffffff" /><path
           class="st0"
           d="m 57.5,36 c -1.6,-0.2 -2.7,1.1 -3.9,2 2,0.5 3.7,-0.7 5.1,-1.9 C 58.3,36.2 57.9,36 57.5,36 Z"
           id="path4524"
           style="fill:#ffffff" /><path
           class="st0"
           d="m 62.4,37 c -1.5,-0.5 -2.9,0.1 -4,1.1 1.5,0.8 2.9,-0.4 4,-1.1 z"
           id="path4526"
           style="fill:#ffffff" /><g
           id="g4528"
           style="fill:#ffffff"><path
             class="st0"
             d="m 90.3,61.4 c -1,-0.2 -2.1,-0.3 -2.9,0.5 -1,0.5 -0.3,2.2 -1.8,2 -0.2,0.1 -1,0.4 -1.1,1 0.7,0.1 1.5,0.3 1.9,0.9 0.6,-0.8 1.4,-1.5 2.5,-1.6 1.5,-0.2 2.8,0.5 3.6,1.7 0.6,-0.6 1.2,-0.7 1.8,-1.1 -0.4,-0.7 -1.2,-0.9 -2,-0.8 l -0.4,-1 c -0.3,-0.7 -1,-1.2 -1.6,-1.6 z"
             id="path4530"
             style="fill:#ffffff" /><path
             class="st0"
             d="m 97.7,69.8 c 0.7,-1.4 1.9,-2.7 3,-3.9 -0.8,-0.3 -1.8,-0.3 -2.5,0.1 -1.2,0.8 -1.5,2.2 -1.4,3.6 l -1.7,-0.4 c 0.2,-0.6 0.4,-1.1 0.4,-1.7 -0.2,-0.3 -0.4,-0.6 -0.8,-0.7 -0.6,-0.1 -1.1,0 -1.5,0.5 -0.5,0.4 -0.1,1 -0.4,1.4 -0.5,-0.1 -1.1,0 -1.6,-0.3 0.2,-0.8 0.2,-1.7 -0.4,-2.4 -0.6,-0.2 -1.1,-0.7 -1.8,-0.6 -0.7,0.1 -1.4,0.5 -1.8,1.1 -0.3,0.5 -0.2,1.1 -0.1,1.6 -0.6,0 -1.2,0.3 -1.8,0.2 0.2,-0.3 0,-0.7 0,-1 -0.2,-0.5 -0.6,-0.9 -1.1,-1 -0.4,0 -0.8,0.2 -1,0.5 -0.3,0.6 -0.3,1.3 0.1,1.9 -0.4,0.3 -0.9,0.4 -1.3,0.4 0.1,-0.8 -0.2,-1.6 -0.4,-2.3 -0.6,-0.9 -1.7,-1.2 -2.8,-1.1 1.1,1.9 2.2,3.8 2.9,6 4.5,-1.5 10.4,-1.5 15,-0.1 0.5,-0.6 0.7,-1.3 1,-1.8 z"
             id="path4532"
             style="fill:#ffffff" /><path
             class="st0"
             d="m 95.8,74.8 c 0.2,-0.6 0.5,-1.2 0.4,-1.8 -4.3,-1.3 -9.9,-1.7 -14.1,-0.1 0.2,0.5 0.1,1.3 0.4,1.6 4.2,-1.1 9.2,-1 13.3,0.3 z"
             id="path4534"
             style="fill:#ffffff" /><path
             class="st0"
             d="m 95.7,77.4 c 0.2,-0.4 0,-0.8 -0.3,-1 -3.5,-1.2 -8.1,-1.4 -11.7,-0.5 -0.3,0.1 -0.7,0.4 -0.8,0.7 -0.1,0.4 0.1,0.8 0.4,1 2.9,1.3 6.6,1.1 9.8,0.8 1,-0.2 2,-0.2 2.6,-1 z"
             id="path4536"
             style="fill:#ffffff" /></g><g
           id="g4538"
           style="fill:#ffffff"><path
             class="st0"
             d="m 42.2,65.7 c 0.5,-0.8 1.4,-1.4 2.3,-1.5 1.6,-0.3 2.9,0.5 3.8,1.6 l 1,-0.5 C 49.6,65.1 50,65.1 50.1,64.7 49.6,64 48.9,63.9 48.1,63.9 48,63.5 47.9,63 47.6,62.6 47,61.7 46,61.2 44.9,61.2 c -0.9,0.1 -1.7,0.4 -2.1,1.2 -0.5,0.4 -0.3,1.6 -1.1,1.4 -0.6,0.1 -1.4,0.4 -1.4,1 0.7,0.1 1.3,0.5 1.9,0.9 z"
             id="path4540"
             style="fill:#ffffff" /><path
             class="st0"
             d="m 56.6,65.7 c -0.9,-0.4 -2.1,-0.3 -2.8,0.2 -1.1,0.9 -1.1,2.2 -1.1,3.5 -0.6,-0.1 -1.1,-0.3 -1.6,-0.4 0.3,-0.5 0.4,-1.1 0.3,-1.7 -0.3,-0.3 -0.7,-0.8 -1.1,-0.7 -0.4,0.1 -0.9,0.2 -1.2,0.7 -0.2,0.4 -0.4,0.9 -0.2,1.3 -0.5,0.1 -1.1,0 -1.6,-0.2 0.2,-0.5 0.2,-1.2 0,-1.7 -0.3,-0.7 -1.1,-1.1 -1.8,-1.2 -0.7,0.1 -1.3,0.2 -1.8,0.7 -0.4,0.5 -0.7,1.3 -0.4,2 -0.6,0.1 -1.2,0.3 -1.8,0.3 0,-0.5 0.1,-1.1 -0.2,-1.6 -0.3,-0.3 -0.7,-0.6 -1.2,-0.5 -0.4,0.1 -0.8,0.4 -0.9,0.8 -0.3,0.6 0,1.2 0.2,1.7 -0.4,0 -0.8,0.5 -1.3,0.3 0.1,-0.8 0.1,-1.6 -0.4,-2.3 -0.6,-1 -1.8,-1.2 -2.8,-0.9 1.3,1.8 2.1,3.8 3,5.8 4.5,-1.5 10.4,-1.7 15.1,-0.3 0.6,-2.3 1.8,-4.1 3.6,-5.8 z"
             id="path4542"
             style="fill:#ffffff" /><path
             class="st0"
             d="M 38.3,72.8 38,73 l 0.4,1.6 c 4.1,-1.2 9.3,-1.2 13.4,0.1 0.1,-0.6 0.5,-1.2 0.3,-1.8 -4.2,-1.4 -9.6,-1.4 -13.8,-0.1 z"
             id="path4544"
             style="fill:#ffffff" /><path
             class="st0"
             d="m 51.8,76.8 c -0.2,-0.6 -0.9,-0.7 -1.5,-0.9 -2.7,-0.5 -5.7,-0.8 -8.4,-0.4 -1.1,0.3 -3,0.2 -3.1,1.5 0.2,0.6 0.9,0.8 1.4,1 3.5,0.6 7.6,0.8 10.9,-0.2 0.4,-0.2 0.7,-0.6 0.7,-1 z"
             id="path4546"
             style="fill:#ffffff" /></g><g
           id="g4548"
           style="fill:#ffffff"><path
             class="st0"
             d="m 67.4,88.3 c 1.4,-0.5 2.4,0.2 3.3,1.1 0.6,1.3 0.7,0.7 2,0.2 -0.3,-0.8 -1.6,-1.6 -1.9,-1.7 -0.4,-0.8 -0.5,-1 -0.9,-1.6 -0.8,-0.8 -1.5,-0.7 -2.4,-0.7 -1.4,0.1 -2,1.5 -2.3,2.6 -0.5,0.4 -1.2,0.6 -1.4,1.2 l 1.2,0.7 c 0.6,-0.8 1.4,-1.5 2.4,-1.8 z"
             id="path4550"
             style="fill:#ffffff" /><path
             class="st0"
             d="m 79.4,91.5 c 0.3,-0.5 1,-1 1.1,-1.4 C 79.8,90 79,90 78.3,90.2 c -1.6,0.2 -2,2 -2.3,3.3 l -1.7,-0.4 c 0.1,-0.7 0,-1.3 -0.4,-1.8 -0.4,-0.3 -0.9,-0.4 -1.4,-0.2 -0.6,0.3 -0.8,1 -1,1.6 -0.5,-0.1 -1.1,0.1 -1.6,-0.2 0.1,-0.7 0.1,-1.6 -0.3,-2.2 -0.4,-0.4 -0.8,-0.7 -1.4,-0.7 -0.6,0 -1.2,0.2 -1.6,0.7 -0.4,0.5 -0.6,1.2 -0.5,2 -0.3,0.4 -0.9,0.2 -1.4,0.3 -0.5,-0.5 -0.1,-1.3 -0.8,-1.7 -0.3,-0.3 -0.9,-0.2 -1.3,-0.1 -0.4,0.2 -0.7,0.6 -0.9,1 -0.2,0.4 0.1,1 -0.2,1.2 -2.3,1.4 -0.6,-1.9 -1.9,-2.7 -0.2,-0.8 -2.2,-1.2 -3.1,-0.9 1.3,1.8 2.5,3.8 2.9,6 l 0.3,0 c 5.3,-2 12.1,-1 17.5,0.3 0.9,-1.5 1.3,-3 2.2,-4.2 z"
             id="path4552"
             style="fill:#ffffff" /><path
             class="st0"
             d="m 76.7,97 c -5,-1.3 -11.2,-1.8 -16.2,-0.1 -0.9,0.1 -0.1,0.9 -0.1,1.4 4.8,-1.8 10.9,-1.1 15.8,0 L 76.7,97 Z"
             id="path4554"
             style="fill:#ffffff" /><path
             class="st0"
             d="m 75.3,100.6 c 0.2,-0.3 0.1,-0.7 -0.2,-0.9 -0.9,-0.5 -2,-0.7 -3.1,-0.8 -3.4,-0.1 -7.3,-0.6 -10.3,0.5 -0.4,0.2 -0.9,0.5 -0.7,1.1 0.7,0.7 1.8,0.7 2.7,0.9 3.1,0.2 6.3,0.2 9.4,0.1 0.7,-0.2 1.6,-0.3 2.2,-0.9 z"
             id="path4556"
             style="fill:#ffffff" /></g><g
           id="g4558"
           style="fill:#ffffff"><path
             class="st0"
             d="m 39.5,46.4 c 0.4,-0.4 0.5,-1 0.3,-1.6 -0.2,-0.5 -0.7,-0.6 -1.2,-0.7 -0.4,0.1 -0.9,0.4 -1,0.9 -0.1,0.6 0,1.1 0.5,1.5 0.5,0.3 1,0.2 1.4,-0.1 z"
             id="path4560"
             style="fill:#ffffff" /><path
             class="st0"
             d="m 33.9,49.8 c 1.1,0.2 2,-0.3 2.7,-1 0.6,-0.8 0.6,-2 0.2,-2.8 -0.3,-0.6 -0.9,-1.2 -1.6,-1.4 -1.1,-0.4 -2.3,0.1 -3,1 -0.5,0.6 -0.5,1.6 -0.4,2.4 0.3,0.8 1.2,1.6 2.1,1.8 z"
             id="path4562"
             style="fill:#ffffff" /><path
             class="st0"
             d="m 25.8,52.4 c -0.9,2.3 1.1,4.2 1.5,6.2 1,-2.7 2.2,-5.3 3.6,-7.9 0.2,-0.8 0.1,-1.6 -0.6,-2.2 -0.4,-0.4 -1,-0.5 -1.6,-0.5 -0.4,0 -0.7,0.2 -0.9,0.5 -0.8,1 -0.5,2.5 -0.2,3.5 -0.7,0 -1.4,-0.1 -1.8,0.4 z"
             id="path4564"
             style="fill:#ffffff" /><path
             class="st0"
             d="m 29.8,58.8 c 1.4,-0.7 3.5,-0.4 4.1,-2.1 0.3,-0.7 -0.3,-1.2 -0.4,-1.7 1.2,0.1 2.3,-0.5 2.8,-1.6 0,-0.7 0.1,-1.4 -0.5,-1.9 -0.7,-0.9 -2.2,-0.8 -3,-0.2 -2,2.4 -3,5.2 -3.9,8 l 0.9,-0.5 z"
             id="path4566"
             style="fill:#ffffff" /><path
             class="st0"
             d="m 24.1,58.1 c -0.2,0.3 -0.4,0.8 -0.2,1.1 0.2,0.3 0.4,0.7 0.8,0.8 0.5,0.2 0.9,-0.1 1.3,-0.4 0.3,-0.4 0.4,-1.1 0,-1.6 -0.4,-0.5 -1.5,-0.5 -1.9,0.1 z"
             id="path4568"
             style="fill:#ffffff" /><path
             class="st0"
             d="m 32.3,61.3 c 0.2,-0.4 0.3,-0.9 0.1,-1.3 -0.3,-0.5 -0.9,-0.8 -1.5,-0.7 -0.6,0.2 -0.8,0.7 -0.8,1.3 0.1,0.6 0.4,1 1,1.1 0.5,0.2 0.9,0 1.2,-0.4 z"
             id="path4570"
             style="fill:#ffffff" /><path
             class="st0"
             d="m 24.5,61.5 c -0.5,0.9 -0.8,2.2 -0.4,3.2 0.5,1.2 1.6,2 2.9,2 1.3,0.1 2.3,-0.6 3,-1.5 0.5,-1 0.7,-2.4 0.1,-3.3 -0.5,-0.8 -1.2,-1.3 -1.9,-1.6 -1.4,-0.4 -2.8,0.1 -3.7,1.2 z"
             id="path4572"
             style="fill:#ffffff" /><path
             class="st0"
             d="m 28.5,76.4 c 0.5,-1.7 3.3,-2 2.8,-4.1 -0.1,-0.4 -0.5,-0.7 -0.9,-1 0,-0.3 0.3,-0.4 0.5,-0.6 0.5,-0.6 0.8,-1.6 0.4,-2.3 -0.3,-0.4 -0.7,-0.9 -1.2,-1 -0.8,-0.2 -1.5,0.1 -2,0.7 -1.2,2.9 -0.1,6.3 0.1,9.2 l 0.3,-0.9 z"
             id="path4574"
             style="fill:#ffffff" /><path
             class="st0"
             d="m 22.8,72 c -1.2,2.8 2.5,3.5 3.7,5.7 0,-0.9 -0.1,-2 -0.3,-2.9 -0.4,-2.3 0.2,-4.9 -0.9,-6.8 -0.4,-0.3 -0.9,-0.6 -1.5,-0.6 -0.4,0.2 -1,0.4 -1.3,0.9 -0.4,0.5 -0.3,1.3 -0.1,1.9 -0.1,0.6 1.8,1.2 0.4,1.8 z"
             id="path4576"
             style="fill:#ffffff" /><path
             class="st0"
             d="m 30.6,78.8 c 0.3,-0.1 0.7,-0.3 0.9,-0.7 0.2,-0.4 0.2,-1 -0.1,-1.3 -0.3,-0.5 -1,-0.7 -1.5,-0.6 -0.6,0.3 -0.7,1 -0.7,1.7 0.3,0.6 0.8,0.9 1.4,0.9 z"
             id="path4578"
             style="fill:#ffffff" /><path
             class="st0"
             d="m 24,80 c 0.4,0.3 0.8,0.3 1.3,0.1 0.5,-0.3 0.7,-1 0.5,-1.5 -0.1,-0.3 -0.4,-0.6 -0.7,-0.7 -0.4,-0.1 -0.7,0 -1.1,0.1 -0.3,0.3 -0.6,0.6 -0.6,1 0.2,0.3 0.2,0.8 0.6,1 z"
             id="path4580"
             style="fill:#ffffff" /><path
             class="st0"
             d="m 28.6,85.3 c 1.3,0.1 2.5,-0.7 3.1,-1.8 0.5,-0.9 0.3,-2.1 -0.1,-3 -0.4,-0.6 -1,-1.3 -1.7,-1.4 -1.2,-0.4 -2.5,0 -3.3,0.9 -0.9,0.8 -1,2.3 -0.6,3.4 0.3,1.1 1.4,1.8 2.6,1.9 z"
             id="path4582"
             style="fill:#ffffff" /><path
             class="st0"
             d="m 36.4,88.8 c -0.3,-0.6 -0.8,-0.6 -1.3,-1 0.3,-0.7 0.3,-1.7 0,-2.3 -0.7,-0.9 -2.2,-0.8 -2.8,0 -0.5,0.4 -0.5,1.2 -0.4,1.8 0.9,2.5 2.1,5 4,7.1 -0.3,-2 0.9,-3.7 0.5,-5.6 z"
             id="path4584"
             style="fill:#ffffff" /><path
             class="st0"
             d="m 28.5,91.9 c -0.2,0.5 -0.1,1 0.3,1.4 1.7,1 3.9,1 5.7,1.9 -0.9,-1.2 -1.8,-2.3 -2.4,-3.6 -0.9,-1.4 -1.2,-3.5 -2.9,-4.3 -0.6,-0.3 -1.2,0.1 -1.7,0.3 -0.5,0.5 -1,1.2 -0.6,2 0.5,0.9 1.3,1.5 2.3,1.6 -0.3,0.3 -0.7,0.3 -0.7,0.7 z"
             id="path4586"
             style="fill:#ffffff" /><path
             class="st0"
             d="m 37.8,95.3 c 0.5,0.2 1,0.1 1.4,-0.2 0.3,-0.4 0.4,-0.9 0.2,-1.3 -0.3,-0.6 -1.1,-0.9 -1.7,-0.7 -0.4,0.2 -0.7,0.4 -0.7,0.9 0.1,0.6 0.4,1 0.8,1.3 z"
             id="path4588"
             style="fill:#ffffff" /><path
             class="st0"
             d="m 34.3,98.6 c 0.5,0.1 0.9,-0.3 1.2,-0.6 0.1,-0.5 0.2,-1.1 -0.2,-1.5 -0.3,-0.2 -0.7,-0.4 -1.1,-0.4 -0.4,0.1 -0.7,0.3 -0.9,0.5 -0.2,0.3 -0.3,0.8 -0.1,1.1 0.2,0.4 0.6,0.9 1.1,0.9 z"
             id="path4590"
             style="fill:#ffffff" /><path
             class="st0"
             d="m 40.3,102.2 c 0.8,-0.4 1.6,-1.1 1.8,-2 0.1,-0.8 0.1,-1.7 -0.4,-2.4 -0.8,-1.2 -2.4,-1.6 -3.7,-1.1 -0.9,0.3 -1.5,1.3 -1.7,2.2 -0.2,0.9 0.2,1.7 0.7,2.4 0.8,1.1 2,1.2 3.3,0.9 z"
             id="path4592"
             style="fill:#ffffff" /><path
             class="st0"
             d="m 47.7,103.7 c 1.3,0.8 2.5,1.6 3.7,2.2 -1,-1.4 -0.6,-3.4 -1.6,-4.8 -0.6,-0.6 -1.4,-0.8 -2.2,-0.8 -0.3,-0.5 -0.3,-1.1 -0.7,-1.6 -0.4,-0.7 -1.1,-1.1 -2,-1 -0.5,0.2 -1,0.6 -1.2,1.2 -0.6,2.5 2.3,3.7 4,4.8 z"
             id="path4594"
             style="fill:#ffffff" /><path
             class="st0"
             d="m 44.8,108.3 c 2.1,0.3 3.8,-1.3 5.7,-1.3 -1,-0.6 -2.2,-1.3 -3.3,-2 -1.7,-0.9 -3.1,-2.3 -5.1,-2.5 -0.7,0.1 -1.3,0.6 -1.7,1.2 -0.2,0.4 -0.3,1.2 0.1,1.6 0.7,0.9 2,0.9 3,0.9 0.1,0.9 0.5,1.8 1.3,2.1 z"
             id="path4596"
             style="fill:#ffffff" /><path
             class="st0"
             d="m 54.5,105.7 c 0.3,-0.3 0.3,-0.8 0.2,-1.3 -0.2,-0.7 -0.9,-0.9 -1.5,-1 -0.4,0.1 -0.7,0.2 -0.9,0.6 -0.2,0.4 -0.3,0.9 -0.1,1.3 0.2,0.3 0.5,0.6 0.8,0.8 0.6,0.4 1.1,0.1 1.5,-0.4 z"
             id="path4598"
             style="fill:#ffffff" /><path
             class="st0"
             d="m 54.5,110.4 c 0.6,0.5 1.5,0.7 2.2,0.4 0.6,-0.3 1.2,-0.8 1.5,-1.4 0.4,-0.7 0.2,-1.6 -0.1,-2.3 -0.6,-0.9 -1.7,-1.5 -2.8,-1.2 -0.9,0.3 -1.6,0.9 -1.8,1.8 -0.3,1.1 0.1,2.2 1,2.7 z"
             id="path4600"
             style="fill:#ffffff" /><path
             class="st0"
             d="m 49.6,108.9 c -0.1,0.5 0.2,1 0.6,1.4 0.4,0 0.8,0.3 1.2,0.1 0.4,0 0.7,-0.5 0.9,-0.9 0.2,-0.6 0,-1.1 -0.4,-1.5 -0.4,-0.3 -0.8,-0.3 -1.3,-0.4 -0.5,0.3 -1.1,0.8 -1,1.3 z"
             id="path4602"
             style="fill:#ffffff" /></g><g
           id="g4604"
           style="fill:#ffffff"><path
             class="st0"
             d="m 69.3,110 c 2,-1.8 3.4,-4 4.6,-6.2 -0.6,-0.1 -1.1,0 -1.5,0.2 -1,1.9 -2.3,3.6 -3.8,5.3 l 0,0.3 c 0.2,0.1 0.4,0.2 0.7,0.4 z"
             id="path4606"
             style="fill:#ffffff" /><path
             class="st0"
             d="m 63.7,103.9 -1.4,-0.2 c 1.1,2.8 2.9,5.5 5,7.7 2.5,2.3 5.3,4.3 8.6,4.9 -5.1,-2.2 -10.2,-7 -12.2,-12.4 z"
             id="path4608"
             style="fill:#ffffff" /><path
             class="st0"
             d="m 69.3,104.2 -3.1,-0.1 0,2.1 c 0.4,0.7 1.1,1.4 1.6,2 l 1.7,-2.3 c -0.2,-0.5 0,-1.2 -0.2,-1.7 z"
             id="path4610"
             style="fill:#ffffff" /><path
             class="st0"
             d="m 66.1,111.8 c -2.5,2.1 -5.3,3.8 -8.2,4.7 3.3,-0.5 6.4,-1.8 9,-4 -0.2,-0.3 -0.5,-0.6 -0.8,-0.7 z"
             id="path4612"
             style="fill:#ffffff" /><path
             class="st0"
             d="m 70.7,118.6 c -1.7,-0.6 -1.4,-2.4 -1.4,-3.9 -0.5,-0.4 -1.1,-0.8 -1.6,-1.1 l -1.4,1 0,1.9 c -0.2,0.9 -0.9,1.6 -1.6,2 1.7,1.1 4.4,0.9 6,0.1 z"
             id="path4614"
             style="fill:#ffffff" /></g><g
           id="g4616"
           style="fill:#ffffff"><path
             class="st0"
             d="m 95.8,46.4 c -0.4,-0.4 -0.5,-1 -0.3,-1.6 0.2,-0.5 0.7,-0.6 1.2,-0.7 0.4,0.1 0.9,0.4 1,0.9 0.1,0.6 0,1.1 -0.5,1.5 -0.5,0.2 -1,0.2 -1.4,-0.1 z"
             id="path4618"
             style="fill:#ffffff" /><path
             class="st0"
             d="m 101.5,49.7 c -1.1,0.2 -2,-0.3 -2.7,-1 -0.6,-0.8 -0.6,-2 -0.2,-2.8 0.3,-0.6 0.9,-1.2 1.6,-1.4 1.1,-0.4 2.3,0.1 3,1 0.5,0.6 0.5,1.6 0.4,2.4 -0.4,0.9 -1.3,1.6 -2.1,1.8 z"
             id="path4620"
             style="fill:#ffffff" /><path
             class="st0"
             d="m 109.5,52.4 c 0.9,2.3 -1.1,4.2 -1.5,6.2 -1,-2.7 -2.2,-5.3 -3.6,-7.9 -0.2,-0.8 -0.1,-1.6 0.6,-2.2 0.4,-0.4 1,-0.5 1.6,-0.5 0.4,0 0.7,0.2 0.9,0.5 0.8,0.9 0.5,2.4 0.2,3.4 0.7,0.1 1.4,-0.1 1.8,0.5 z"
             id="path4622"
             style="fill:#ffffff" /><path
             class="st0"
             d="m 105.6,58.8 c -1.4,-0.7 -3.4,-0.4 -4.1,-2.1 -0.3,-0.7 0.3,-1.2 0.4,-1.7 -1.2,0.1 -2.3,-0.5 -2.8,-1.6 0,-0.7 -0.1,-1.4 0.5,-1.9 0.7,-0.9 2.2,-0.8 3,-0.2 2,2.4 3,5.2 3.9,8 l -0.9,-0.5 z"
             id="path4624"
             style="fill:#ffffff" /><path
             class="st0"
             d="m 111.2,58 c 0.2,0.3 0.4,0.8 0.2,1.1 -0.2,0.3 -0.4,0.7 -0.8,0.8 -0.5,0.2 -0.9,-0.1 -1.3,-0.4 -0.3,-0.4 -0.4,-1.1 0,-1.6 0.4,-0.5 1.5,-0.4 1.9,0.1 z"
             id="path4626"
             style="fill:#ffffff" /><path
             class="st0"
             d="m 103,61.3 c -0.2,-0.4 -0.3,-0.9 -0.1,-1.3 0.3,-0.5 0.9,-0.8 1.5,-0.7 0.6,0.2 0.8,0.7 0.8,1.3 -0.1,0.6 -0.4,1 -1,1.1 -0.4,0.2 -0.9,-0.1 -1.2,-0.4 z"
             id="path4628"
             style="fill:#ffffff" /><path
             class="st0"
             d="m 110.8,61.5 c 0.5,0.9 0.8,2.2 0.4,3.2 -0.5,1.2 -1.6,2 -2.9,2 -1.3,0.1 -2.3,-0.6 -3,-1.5 -0.5,-1 -0.7,-2.4 -0.1,-3.3 0.5,-0.8 1.2,-1.3 1.9,-1.6 1.5,-0.4 2.8,0.1 3.7,1.2 z"
             id="path4630"
             style="fill:#ffffff" /><path
             class="st0"
             d="m 106.8,76.4 c -0.5,-1.7 -3.3,-2 -2.8,-4.1 0.1,-0.4 0.5,-0.7 0.9,-1 0,-0.3 -0.3,-0.4 -0.5,-0.6 -0.5,-0.6 -0.8,-1.6 -0.4,-2.3 0.3,-0.4 0.7,-0.9 1.2,-1 0.8,-0.2 1.5,0.1 2,0.7 1.2,2.9 0.1,6.3 -0.1,9.2 l -0.3,-0.9 z"
             id="path4632"
             style="fill:#ffffff" /><path
             class="st0"
             d="m 112.5,72 c 1.2,2.8 -2.5,3.5 -3.7,5.7 0,-0.9 0.1,-2 0.3,-2.9 0.4,-2.3 -0.2,-4.9 0.9,-6.8 0.4,-0.3 0.9,-0.6 1.5,-0.6 0.4,0.2 1,0.4 1.3,0.9 0.4,0.5 0.3,1.3 0.1,1.9 0.1,0.6 -1.8,1.2 -0.4,1.8 z"
             id="path4634"
             style="fill:#ffffff" /><path
             class="st0"
             d="m 104.7,78.8 c -0.3,-0.1 -0.7,-0.3 -0.9,-0.7 -0.2,-0.4 -0.2,-1 0.1,-1.3 0.3,-0.5 1,-0.7 1.5,-0.6 0.6,0.3 0.7,1 0.7,1.7 -0.3,0.6 -0.8,0.9 -1.4,0.9 z"
             id="path4636"
             style="fill:#ffffff" /><path
             class="st0"
             d="m 111.3,79.9 c -0.4,0.3 -0.8,0.3 -1.3,0.1 -0.5,-0.3 -0.7,-1 -0.5,-1.5 0.1,-0.3 0.4,-0.6 0.7,-0.7 0.4,-0.1 0.7,0 1.1,0.1 0.3,0.3 0.6,0.6 0.6,1 -0.2,0.4 -0.2,0.8 -0.6,1 z"
             id="path4638"
             style="fill:#ffffff" /><path
             class="st0"
             d="m 106.7,85.3 c -1.3,0.1 -2.5,-0.7 -3.1,-1.8 -0.5,-0.9 -0.3,-2.1 0.1,-3 0.4,-0.6 1,-1.3 1.7,-1.4 1.2,-0.4 2.5,0 3.3,0.9 0.9,0.8 1,2.3 0.6,3.4 -0.2,1.1 -1.4,1.7 -2.6,1.9 z"
             id="path4640"
             style="fill:#ffffff" /><path
             class="st0"
             d="m 99,88.8 c 0.3,-0.6 0.8,-0.6 1.3,-1 -0.3,-0.7 -0.3,-1.7 0,-2.3 0.7,-0.9 2.2,-0.8 2.8,0 0.5,0.4 0.5,1.2 0.4,1.8 -0.9,2.5 -2.1,5 -4,7.1 0.2,-2.1 -1,-3.7 -0.5,-5.6 z"
             id="path4642"
             style="fill:#ffffff" /><path
             class="st0"
             d="m 106.9,91.9 c 0.2,0.5 0.1,1 -0.3,1.4 -1.7,1 -3.9,1 -5.7,1.9 0.9,-1.2 1.8,-2.3 2.4,-3.6 0.9,-1.4 1.2,-3.5 2.9,-4.3 0.6,-0.3 1.2,0.1 1.7,0.3 0.5,0.5 1,1.2 0.6,2 -0.5,0.9 -1.3,1.5 -2.3,1.6 0.2,0.3 0.6,0.3 0.7,0.7 z"
             id="path4644"
             style="fill:#ffffff" /><path
             class="st0"
             d="m 97.5,95.2 c -0.5,0.2 -1,0.1 -1.4,-0.2 -0.3,-0.4 -0.4,-0.9 -0.2,-1.3 0.3,-0.6 1.1,-0.9 1.7,-0.7 0.4,0.2 0.7,0.4 0.7,0.9 -0.1,0.6 -0.4,1 -0.8,1.3 z"
             id="path4646"
             style="fill:#ffffff" /><path
             class="st0"
             d="m 101,98.5 c -0.5,0.1 -0.9,-0.3 -1.2,-0.6 -0.1,-0.5 -0.2,-1.1 0.2,-1.5 0.3,-0.2 0.7,-0.4 1.1,-0.4 0.4,0.1 0.7,0.3 0.9,0.5 0.2,0.3 0.3,0.8 0.1,1.1 -0.1,0.5 -0.6,0.9 -1.1,0.9 z"
             id="path4648"
             style="fill:#ffffff" /><path
             class="st0"
             d="m 95.1,102.2 c -0.8,-0.4 -1.6,-1.1 -1.8,-2 -0.1,-0.8 -0.1,-1.7 0.4,-2.4 0.8,-1.2 2.4,-1.6 3.7,-1.1 0.9,0.3 1.5,1.3 1.7,2.2 0.2,0.9 -0.2,1.7 -0.7,2.4 -0.9,1 -2.1,1.1 -3.3,0.9 z"
             id="path4650"
             style="fill:#ffffff" /><path
             class="st0"
             d="m 87.6,103.6 c -1.3,0.8 -2.5,1.6 -3.7,2.2 1,-1.4 0.6,-3.4 1.6,-4.8 0.6,-0.6 1.4,-0.8 2.2,-0.8 0.3,-0.5 0.3,-1.1 0.7,-1.6 0.4,-0.7 1.1,-1.1 2,-1 0.5,0.2 1,0.7 1.2,1.2 0.6,2.5 -2.3,3.7 -4,4.8 z"
             id="path4652"
             style="fill:#ffffff" /><path
             class="st0"
             d="m 90.5,108.2 c -2.1,0.3 -3.8,-1.3 -5.7,-1.3 1,-0.6 2.2,-1.3 3.3,-2 1.7,-0.9 3.1,-2.3 5.1,-2.5 0.7,0.1 1.3,0.6 1.7,1.2 0.2,0.4 0.3,1.2 -0.1,1.6 -0.7,0.9 -1.9,0.9 -3,0.9 0,1 -0.5,1.8 -1.3,2.1 z"
             id="path4654"
             style="fill:#ffffff" /><path
             class="st0"
             d="m 80.8,105.7 c -0.3,-0.3 -0.3,-0.8 -0.2,-1.3 0.2,-0.7 0.9,-0.9 1.5,-0.9 0.4,0.1 0.7,0.2 0.9,0.6 0.2,0.4 0.3,0.9 0.1,1.3 -0.2,0.3 -0.5,0.6 -0.8,0.8 -0.6,0.2 -1.1,-0.1 -1.5,-0.5 z"
             id="path4656"
             style="fill:#ffffff" /><path
             class="st0"
             d="m 80.9,110.4 c -0.6,0.5 -1.5,0.7 -2.2,0.4 -0.6,-0.3 -1.2,-0.8 -1.5,-1.4 -0.4,-0.7 -0.2,-1.6 0.2,-2.3 0.6,-0.9 1.7,-1.5 2.8,-1.2 0.9,0.3 1.6,0.9 1.8,1.8 0.1,1 -0.3,2.1 -1.1,2.7 z"
             id="path4658"
             style="fill:#ffffff" /><path
             class="st0"
             d="m 85.8,108.9 c 0.1,0.5 -0.2,1 -0.6,1.4 -0.4,0 -0.8,0.3 -1.2,0.1 -0.4,0 -0.7,-0.5 -0.9,-0.9 -0.2,-0.6 0,-1.1 0.4,-1.5 0.4,-0.3 0.8,-0.3 1.3,-0.4 0.5,0.3 1,0.8 1,1.3 z"
             id="path4660"
             style="fill:#ffffff" /></g><path
           class="st0"
           d="m 90.4,32.6 c -0.8,0.2 -1.7,0.2 -2.4,-0.1 -2.2,-1.4 -4.5,-2.6 -6.7,-3.8 l 1.6,-0.3 c 2.8,0.6 5.2,2.7 7.5,4.2 z"
           id="path4662"
           style="fill:#ffffff" /><path
           class="st0"
           d="m 83,33.2 c -1.6,-0.9 -3.3,-1.9 -4.8,-2.8 0.6,0 1,-0.5 1.6,-0.4 2.2,0.8 4.3,1.8 6.1,3.3 C 85,33.6 84,33.6 83,33.2 Z"
           id="path4664"
           style="fill:#ffffff" /><path
           class="st0"
           d="m 81.3,34.2 c -2.6,0.7 -4.5,-1.1 -6.4,-2.3 2.6,-0.8 4.6,1.2 6.4,2.3 z"
           id="path4666"
           style="fill:#ffffff" /><path
           class="st0"
           d="m 77,34.9 c -2.2,0.6 -4,-0.8 -5.5,-2 2.3,-0.8 3.9,0.9 5.5,2 z"
           id="path4668"
           style="fill:#ffffff" /><path
           class="st0"
           d="m 93.3,34.4 c 2.7,2.1 5.4,4.2 7.9,6.7 -1,0.1 -2.2,-0.1 -2.9,-0.8 -2.6,-2.2 -5.5,-4.6 -8.2,-6.5 1.1,-0.1 2.3,-0.1 3.2,0.6 z"
           id="path4670"
           style="fill:#ffffff" /><path
           class="st0"
           d="m 73.5,35.9 c -0.5,0 -1.2,0.1 -1.7,-0.1 -0.6,-0.2 -1,-0.9 -0.9,-1.6 0.9,0.5 1.7,1.1 2.6,1.7 z"
           id="path4672"
           style="fill:#ffffff" /><path
           class="st0"
           d="m 93,38.4 c -0.7,0.1 -1.7,0.2 -2.4,0 -1.8,-0.9 -3.6,-2.4 -5.2,-3.6 3.2,-1.1 5.2,2.3 7.6,3.6 z"
           id="path4674"
           style="fill:#ffffff" /><path
           class="st0"
           d="m 86.9,38.3 -0.7,0.1 c -2.3,0.5 -3.8,-1.6 -5.4,-2.7 l 1.8,-0.1 c 1.8,0.3 2.9,1.9 4.3,2.7 z"
           id="path4676"
           style="fill:#ffffff" /><path
           class="st0"
           d="m 77.7,36 c 1.6,-0.2 2.7,1.1 3.9,2 -2,0.5 -3.7,-0.7 -5.1,-1.9 0.4,0.1 0.7,-0.1 1.2,-0.1 z"
           id="path4678"
           style="fill:#ffffff" /><path
           class="st0"
           d="m 72.8,37 c 1.5,-0.5 2.9,0.1 4,1.1 -1.5,0.8 -2.9,-0.4 -4,-1.1 z"
           id="path4680"
           style="fill:#ffffff" /><g
           id="g4682"
           style="fill:#ffffff"><path
             class="st0"
             d="m 65.5,69 c -1,-0.5 -1.9,-1.2 -2.9,-1.6 -3.5,2.7 -5,6.8 -4.5,11.2 0.4,3.2 2.6,6.7 5.8,7.9 0,-0.8 0.5,-1.4 0.6,-2.1 -2.3,-1.4 -3.4,-3.8 -3.7,-6.3 -0.4,-3.7 1.6,-6.9 4.7,-9.1 z"
             id="path4684"
             style="fill:#ffffff" /><path
             class="st0"
             d="m 69.6,83.2 0.1,-11.6 c -1.1,-1.1 -2.6,-1.8 -4,-2.5 l 0.2,14 c 1.1,-0.4 2.6,-0.3 3.7,0.1 z"
             id="path4686"
             style="fill:#ffffff" /><path
             class="st0"
             d="m 74.8,61.3 c -1.7,1.1 -3.2,1.9 -5,2.8 L 69.7,64 70,39.4 69.9,33.1 c -1.5,0.2 -3,0.1 -4.5,0 l -0.2,0.1 0,6.7 0.3,21.9 0.1,0.4 c 2.5,0.9 4.8,2.4 7,3.8 2.2,-1.1 4.6,-2.4 6.6,-3.9 3.4,-2.5 5.6,-6.2 4.9,-10.5 -0.2,-2.6 -2.5,-4.5 -4.6,-5.7 0.5,-0.4 1.1,-0.7 1.6,-1.2 l 0,-0.1 c -2.5,0.3 -4.5,-0.9 -6.8,-0.7 -0.6,0.1 -0.9,0.6 -1.1,1.1 -0.6,0.1 -1.3,0.1 -1.8,0.5 -0.6,0.5 -0.9,1.2 -0.9,2 0.7,-0.2 1.6,-0.3 2.4,0 0.4,0.3 1,0.8 1,1.4 0,0.5 -0.2,0.9 -0.6,1.1 -0.2,0.3 -0.9,0.2 -0.8,0.6 0.5,0.5 1.3,0.9 2.1,0.6 0.7,-0.2 1.2,-0.9 1.4,-1.5 0.6,-0.2 1.2,0.3 1.8,0.4 1.5,0.8 2.3,2.5 2.3,4.1 0.1,3.2 -2.7,5.5 -5.3,7.1 z M 74.2,45.1 c 0.2,-0.3 0.4,-0.5 0.6,-0.5 1.3,-0.1 1.9,0.3 2.9,0.6 -1.1,0.4 -2.4,0.6 -3.5,-0.1 z"
             id="path4688"
             style="fill:#ffffff" /><path
             class="st0"
             d="m 62.3,47.2 c 0.6,-0.4 1.6,-0.1 2.3,0.1 0,-0.7 -0.3,-1.3 -0.7,-1.8 -0.6,-0.8 -1.9,-0.2 -2.2,-1.1 -0.4,-0.6 -1.1,-0.7 -1.8,-0.7 -1.9,0.5 -3.7,1 -5.8,1 0.4,0.5 1.1,0.8 1.6,1.3 -0.3,0.2 -0.6,0.3 -0.9,0.5 -2.7,1.6 -4,4.4 -3.7,7.6 0.8,7.3 8.8,10.1 14,13.2 3.5,2.1 8.3,4.2 9.2,8.7 0.8,3.3 -0.1,6.9 -2.8,9.1 0.4,0.6 0.6,1.3 0.9,2 1.5,-0.9 3.1,-2.3 3.8,-3.9 2,-3.5 1.4,-8.6 -0.7,-11.8 C 70.9,65.3 63.4,64.2 57.8,59.5 56,57.8 54.6,55.6 55.3,53 c 0.4,-1.5 1.6,-2.9 3.2,-3.2 1.2,-0.6 0.8,1 1.6,1.3 0.5,0.2 1.3,0.3 1.9,0.1 0.3,-0.2 0.6,-0.4 0.7,-0.8 L 62.2,50 c -0.4,-0.3 -1.1,-0.7 -1,-1.3 0,-0.6 0.5,-1.2 1.1,-1.5 z m -4.8,-2 c 1,-0.2 2,-0.8 3,-0.6 l 0.4,0.5 c -1.5,0.7 -2.4,0.6 -3.4,0.1 z"
             id="path4690"
             style="fill:#ffffff" /></g></g><g
         id="g4692"
         style="fill:#ffffff"><path
           class="st0"
           d="m 2.4,62.3 0.8,1.5 c -0.5,0.3 -0.8,0.5 -1,0.7 -0.2,0.3 -0.3,0.6 -0.3,1 0,0.5 0.1,0.9 0.4,1.3 0.3,0.3 0.6,0.5 1,0.5 0.6,0 1.1,-0.4 1.5,-1.2 l 0.5,-1.2 c 0.4,-1 0.9,-1.6 1.5,-2.1 0.6,-0.5 1.3,-0.6 2.1,-0.6 1.1,0 2,0.4 2.7,1.2 0.7,0.8 1,1.7 1,2.8 0,1 -0.4,1.9 -1,2.5 -0.6,0.6 -1.5,1 -2.6,1.1 L 8.7,68 C 9.4,67.9 9.9,67.8 10.2,67.6 10.7,67.2 11,66.7 11,66 11,65.4 10.9,65 10.5,64.6 10,64.3 9.6,64.1 9,64.1 8.8,64.1 8.6,64.1 8.4,64.2 8.2,64.3 8,64.3 7.8,64.4 7.6,64.5 7.5,64.7 7.3,64.9 7.1,65.1 7,65.4 6.9,65.7 L 6.4,66.8 C 5.6,68.4 4.6,69.2 3.3,69.1 2.4,69.1 1.7,68.7 1.1,68 0.5,67.3 0.2,66.4 0.3,65.4 0.3,64.1 1,63 2.4,62.3 Z"
           id="path4694"
           style="fill:#ffffff" /><path
           class="st0"
           d="m 3.6,54.3 10,2.1 -0.4,1.8 L 3.3,56 2.8,58.7 1,58.4 2.5,51.3 4.2,51.6 3.6,54.3 Z"
           id="path4696"
           style="fill:#ffffff" /><path
           class="st0"
           d="M 8.7,50.1 C 7.2,49.4 6.1,48.3 5.4,46.7 4.8,45.1 4.8,43.5 5.5,41.9 c 0.7,-1.6 1.8,-2.7 3.4,-3.3 1.6,-0.7 3.2,-0.6 4.8,0 1.6,0.7 2.7,1.8 3.3,3.4 0.6,1.6 0.6,3.2 -0.1,4.8 -0.6,1.4 -1.6,2.5 -3.1,3.2 -1.6,0.9 -3.3,0.9 -5.1,0.1 z m 0.8,-1.6 c 1.2,0.5 2.4,0.5 3.5,0 1.1,-0.5 1.9,-1.3 2.4,-2.3 0.5,-1.2 0.5,-2.3 0,-3.4 -0.5,-1.1 -1.3,-1.9 -2.4,-2.4 -1.2,-0.5 -2.3,-0.5 -3.4,-0.1 -1.1,0.4 -1.9,1.2 -2.4,2.4 -0.5,1.1 -0.5,2.3 0,3.4 0.3,1.1 1.1,1.9 2.3,2.4 z"
           id="path4698"
           style="fill:#ffffff" /><path
           class="st0"
           d="m 16.4,25.5 1.7,1.2 c -1.3,0.3 -2.3,1 -3,1.9 -0.7,1 -1,2.1 -0.7,3.3 0.2,1.2 0.8,2.2 1.9,2.9 1,0.7 2.1,1 3.3,0.8 1.2,-0.2 2.1,-0.8 2.9,-1.8 0.4,-0.5 0.6,-1 0.7,-1.5 0.1,-0.3 0.1,-0.6 0.1,-0.9 0,-0.3 0,-0.7 0,-1.1 l 1.8,1.3 c -0.1,1.2 -0.5,2.2 -1.2,3.1 -1,1.4 -2.3,2.2 -4,2.5 -1.7,0.3 -3.2,-0.1 -4.6,-1.1 -1.2,-0.9 -2,-2.1 -2.4,-3.6 -0.5,-1.9 -0.1,-3.6 1,-5.2 0.6,-0.7 1.4,-1.4 2.5,-1.8 z"
           id="path4700"
           style="fill:#ffffff" /><path
           class="st0"
           d="m 24.3,23.2 0.3,-6.7 1.8,-1.6 -0.4,7.7 8.4,1.2 -1.8,1.6 -6.8,-1.1 0,0.5 3.3,3.7 -1.3,1.2 -8,-8.9 1.3,-1.2 3.2,3.6 z"
           id="path4702"
           style="fill:#ffffff" /><path
           class="st0"
           d="m 34.6,15.1 4.5,-2.6 -2.3,-4.1 1.6,-0.9 5.9,10.4 -1.6,0.9 -2.8,-4.8 -4.5,2.6 2.8,4.8 -1.6,0.9 -5.9,-10.4 1.6,-0.9 2.3,4.1 z"
           id="path4704"
           style="fill:#ffffff" /><path
           class="st0"
           d="m 44.4,11.1 c -0.5,-1.6 -0.3,-3.2 0.5,-4.7 0.8,-1.5 2.1,-2.5 3.7,-3 1.6,-0.5 3.2,-0.3 4.7,0.5 1.5,0.8 2.5,2 3,3.7 0.5,1.6 0.3,3.2 -0.5,4.7 -0.8,1.5 -2.1,2.5 -3.8,3 -1.5,0.4 -3,0.3 -4.4,-0.3 -1.6,-0.8 -2.7,-2.1 -3.2,-3.9 z m 1.7,-0.5 c 0.4,1.3 1.1,2.2 2.2,2.7 1.1,0.6 2.2,0.7 3.3,0.4 1.2,-0.4 2.1,-1.1 2.7,-2.2 C 54.9,10.4 55,9.3 54.6,8.1 54.2,6.9 53.5,6 52.5,5.4 51.4,4.8 50.3,4.7 49.1,5.1 47.9,5.5 47,6.2 46.5,7.2 45.9,8.3 45.8,9.4 46.1,10.6 Z"
           id="path4706"
           style="fill:#ffffff" /><path
           class="st0"
           d="m 61.2,1.2 1,10.2 3.5,-0.3 0.2,1.7 -5.3,0.5 -1.2,-12 1.8,-0.1 z"
           id="path4708"
           style="fill:#ffffff" /><path
           class="st0"
           d="M 68.6,12.4 72.7,0 75.6,9.7 81,1.1 l 0.6,13 -1.8,-0.2 -0.2,-7.3 -4.6,7.2 -2.4,-8.1 -2.2,7 -1.8,-0.3 z"
           id="path4710"
           style="fill:#ffffff" /><path
           class="st0"
           d="m 100.4,11 -1.7,0.1 C 98.7,10.6 98.6,10.2 98.4,9.9 98.2,9.6 98,9.4 97.6,9.2 97.2,9 96.7,8.9 96.3,9 c -0.4,0.1 -0.7,0.3 -0.9,0.7 -0.3,0.5 -0.1,1.1 0.5,1.8 l 0.8,1 c 0.7,0.8 1.1,1.5 1.3,2.2 0.2,0.7 0,1.4 -0.3,2.2 -0.5,1 -1.2,1.6 -2.2,2 -1,0.3 -2,0.2 -2.9,-0.2 -0.9,-0.5 -1.6,-1.1 -1.9,-2 -0.3,-0.8 -0.3,-1.8 0,-2.9 l 1.8,0.5 c -0.2,0.7 -0.3,1.2 -0.3,1.5 0.1,0.6 0.5,1.1 1.1,1.4 0.5,0.2 1,0.3 1.5,0.1 0.5,-0.2 0.9,-0.5 1.1,-1 0.1,-0.2 0.2,-0.4 0.2,-0.6 0,-0.2 0,-0.4 0,-0.6 C 96,14.9 96,14.7 95.8,14.5 95.7,14.3 95.5,14 95.3,13.8 l -0.8,-0.9 c -1.2,-1.3 -1.4,-2.6 -0.9,-3.8 0.4,-0.8 1,-1.3 1.9,-1.6 0.9,-0.2 1.8,-0.1 2.7,0.3 1.4,0.6 2.1,1.7 2.2,3.2 z"
           id="path4712"
           style="fill:#ffffff" /><path
           class="st0"
           d="m 112,17.8 -1.3,1.7 c -0.3,-1.3 -0.9,-2.3 -1.8,-3 -1,-0.7 -2.1,-1 -3.3,-0.8 -1.2,0.2 -2.2,0.8 -3,1.8 -0.8,1 -1.1,2.1 -0.9,3.3 0.2,1.2 0.7,2.2 1.7,2.9 0.5,0.4 1,0.6 1.5,0.7 0.3,0.1 0.5,0.1 0.9,0.1 0.3,0 0.7,0 1.1,0 l -1.3,1.7 c -1.2,-0.2 -2.2,-0.6 -3.1,-1.3 -1.4,-1 -2.2,-2.4 -2.4,-4.1 -0.2,-1.7 0.2,-3.2 1.2,-4.6 0.9,-1.2 2.1,-2 3.7,-2.3 1.9,-0.4 3.6,0 5.2,1.2 0.7,0.8 1.3,1.7 1.8,2.7 z"
           id="path4714"
           style="fill:#ffffff" /><path
           class="st0"
           d="m 114,25.5 3.3,3.9 3.5,-3 1.2,1.4 -9.1,7.8 -1.2,-1.4 4.2,-3.6 -3.3,-3.9 -4.2,3.6 -1.2,-1.4 9.1,-7.8 1.2,1.4 -3.5,3 z"
           id="path4716"
           style="fill:#ffffff" /><path
           class="st0"
           d="m 119.6,34.3 c 1.5,-0.8 3.1,-0.9 4.7,-0.4 1.6,0.5 2.9,1.6 3.7,3.1 0.8,1.5 0.9,3.1 0.4,4.7 -0.5,1.6 -1.5,2.9 -3,3.7 -1.5,0.8 -3.1,0.9 -4.7,0.4 -1.6,-0.5 -2.9,-1.6 -3.7,-3.1 -0.7,-1.4 -0.9,-2.8 -0.5,-4.4 0.3,-1.8 1.4,-3.2 3.1,-4 z m 0.8,1.6 c -1.2,0.6 -1.9,1.5 -2.3,2.7 -0.3,1.2 -0.2,2.3 0.3,3.3 0.6,1.1 1.5,1.8 2.6,2.2 1.2,0.4 2.3,0.2 3.4,-0.3 1.1,-0.6 1.9,-1.5 2.2,-2.6 0.4,-1.2 0.3,-2.3 -0.3,-3.4 -0.6,-1.1 -1.4,-1.8 -2.6,-2.2 -1,-0.4 -2.2,-0.3 -3.3,0.3 z"
           id="path4718"
           style="fill:#ffffff" /><path
           class="st0"
           d="m 126.5,48.2 c 1.6,-0.4 3.2,-0.1 4.6,0.8 1.5,0.9 2.4,2.2 2.8,3.9 0.4,1.7 0.1,3.2 -0.8,4.7 -0.9,1.5 -2.2,2.4 -3.8,2.8 -1.7,0.4 -3.2,0.1 -4.7,-0.8 -1.5,-0.9 -2.4,-2.2 -2.8,-3.9 -0.4,-1.5 -0.2,-3 0.6,-4.4 0.9,-1.6 2.2,-2.7 4.1,-3.1 z m 0.4,1.8 c -1.3,0.3 -2.2,1 -2.9,2 -0.6,1.1 -0.8,2.1 -0.5,3.3 0.3,1.2 1,2.2 2,2.8 1,0.6 2.2,0.8 3.4,0.5 1.2,-0.3 2.2,-1 2.8,-2 0.6,-1 0.8,-2.1 0.5,-3.4 -0.3,-1.2 -0.9,-2.1 -2,-2.8 -1,-0.5 -2.1,-0.7 -3.3,-0.4 z"
           id="path4720"
           style="fill:#ffffff" /><path
           class="st0"
           d="m 135.4,66.6 -10.2,0.2 0.1,3.5 -1.7,0 -0.1,-5.3 11.9,-0.2 0,1.8 z"
           id="path4722"
           style="fill:#ffffff" /></g><g
         id="g4724"
         style="fill:#ffffff"><path
           class="st0"
           d="m 10.5,94.9 c 1.5,-0.8 3,-1 4.7,-0.6 1.7,0.5 2.9,1.4 3.8,2.9 0.9,1.5 1.1,3 0.6,4.7 -0.4,1.7 -1.4,2.9 -2.9,3.8 -1.5,0.9 -3.1,1.1 -4.7,0.6 -1.7,-0.5 -2.9,-1.4 -3.8,-3 -0.8,-1.3 -1,-2.8 -0.7,-4.4 0.3,-1.6 1.3,-3 3,-4 z m 0.9,1.6 c -1.1,0.7 -1.9,1.6 -2.1,2.8 -0.3,1.2 -0.1,2.3 0.4,3.3 0.6,1.1 1.5,1.8 2.7,2.1 1.2,0.3 2.3,0.1 3.4,-0.5 1.1,-0.6 1.8,-1.5 2.1,-2.7 0.3,-1.2 0.2,-2.3 -0.5,-3.4 C 16.8,97 15.9,96.3 14.7,96 13.6,95.7 12.5,95.9 11.4,96.5 Z"
           id="path4726"
           style="fill:#ffffff" /><path
           class="st0"
           d="m 26.1,109.9 -2.7,-3.1 -2.2,1.9 2.7,3 -1.3,1.1 -2.7,-3 -4.3,3.8 -1.2,-1.4 9,-7.9 3.9,4.5 -1.2,1.1 z"
           id="path4728"
           style="fill:#ffffff" /><path
           class="st0"
           d="m 38.6,119.6 -4,-2.6 -1.6,2.4 3.9,2.6 -0.9,1.4 -3.9,-2.6 -2.2,3.3 4,2.6 -0.9,1.4 -5.5,-3.6 6.6,-10 5.5,3.6 -1,1.5 z"
           id="path4730"
           style="fill:#ffffff" /><path
           class="st0"
           d="m 50,123.6 -0.8,2 c -0.6,-1.2 -1.4,-2 -2.5,-2.5 -1.1,-0.5 -2.3,-0.5 -3.4,0 -1.1,0.5 -1.9,1.3 -2.4,2.5 -0.5,1.2 -0.5,2.3 -0.1,3.4 0.4,1.1 1.2,1.9 2.4,2.4 0.6,0.2 1.1,0.4 1.6,0.3 0.3,0 0.6,0 0.9,-0.1 0.3,-0.1 0.7,-0.1 1,-0.3 l -0.8,2 c -1.2,0.1 -2.3,0 -3.3,-0.5 -1.6,-0.7 -2.7,-1.8 -3.3,-3.3 -0.6,-1.6 -0.6,-3.1 0,-4.7 0.6,-1.4 1.6,-2.5 3,-3.2 1.7,-0.9 3.5,-0.9 5.3,-0.2 0.8,0.6 1.7,1.3 2.4,2.2 z"
           id="path4732"
           style="fill:#ffffff" /><path
           class="st0"
           d="m 50.9,129.5 c 0.3,-1.7 1.1,-3 2.6,-3.9 1.4,-1 3,-1.3 4.7,-1 1.7,0.3 3,1.1 4,2.6 1,1.4 1.3,3 1,4.6 -0.3,1.7 -1.2,3 -2.6,4 -1.4,1 -3,1.3 -4.7,1 -1.5,-0.3 -2.8,-1 -3.8,-2.3 -1.1,-1.5 -1.5,-3.1 -1.2,-5 z m 1.8,0.4 c -0.2,1.3 0,2.4 0.8,3.4 0.7,1 1.7,1.6 2.8,1.8 1.2,0.2 2.3,0 3.3,-0.7 1,-0.7 1.6,-1.7 1.8,-2.9 0.2,-1.3 0,-2.4 -0.7,-3.4 -0.7,-1 -1.6,-1.6 -2.9,-1.8 -1.2,-0.2 -2.3,0 -3.3,0.7 -1,0.7 -1.6,1.6 -1.8,2.9 z"
           id="path4734"
           style="fill:#ffffff" /><path
           class="st0"
           d="m 67.1,137.8 -0.8,-12.8 9.3,8.5 -0.5,-8.3 1.8,-0.1 0.8,12.6 -9.3,-8.5 0.5,8.3 -1.8,0.3 z"
           id="path4736"
           style="fill:#ffffff" /><path
           class="st0"
           d="m 80.6,130.6 c -0.5,-1.6 -0.3,-3.2 0.5,-4.7 0.8,-1.5 2,-2.5 3.7,-3 1.6,-0.5 3.2,-0.4 4.7,0.5 1.5,0.8 2.5,2 3,3.6 0.5,1.6 0.4,3.2 -0.5,4.7 -0.8,1.5 -2.1,2.5 -3.7,3 -1.5,0.5 -3,0.4 -4.4,-0.3 -1.7,-0.7 -2.8,-2 -3.3,-3.8 z m 1.7,-0.5 c 0.4,1.3 1.1,2.2 2.2,2.7 1.1,0.6 2.2,0.7 3.3,0.3 1.2,-0.4 2.1,-1.1 2.6,-2.2 0.6,-1.1 0.7,-2.2 0.3,-3.4 -0.4,-1.2 -1.1,-2.1 -2.2,-2.7 -1.1,-0.6 -2.2,-0.7 -3.4,-0.3 -1.2,0.4 -2.1,1.1 -2.6,2.2 -0.5,1 -0.6,2.2 -0.2,3.4 z"
           id="path4738"
           style="fill:#ffffff" /><path
           class="st0"
           d="m 97.8,131.1 -4.5,-12.3 8.3,5.8 -1.2,-10.1 8.6,9.8 -1.6,1 -4.7,-5.6 1,8.5 -7,-4.9 2.6,6.8 -1.5,1 z"
           id="path4740"
           style="fill:#ffffff" /><path
           class="st0"
           d="m 106.3,110.7 7.9,8.9 -1.4,1.2 -7.9,-8.9 1.4,-1.2 z"
           id="path4742"
           style="fill:#ffffff" /><path
           class="st0"
           d="m 115.4,101.7 1.6,1.4 c -1.3,0.2 -2.4,0.8 -3.1,1.6 -0.8,0.9 -1.1,2 -1,3.2 0.1,1.2 0.7,2.2 1.6,3 1,0.8 2,1.2 3.2,1.1 1.2,-0.1 2.2,-0.6 3,-1.5 0.4,-0.5 0.7,-1 0.8,-1.4 0.1,-0.3 0.1,-0.5 0.2,-0.9 0,-0.3 0.1,-0.7 0.1,-1.1 l 1.7,1.4 c -0.2,1.2 -0.7,2.2 -1.4,3 -1.1,1.3 -2.5,2 -4.2,2.2 -1.7,0.1 -3.2,-0.3 -4.5,-1.4 -1.2,-1 -1.9,-2.2 -2.1,-3.8 -0.3,-1.9 0.2,-3.6 1.4,-5.1 0.7,-0.7 1.6,-1.3 2.7,-1.7 z"
           id="path4744"
           style="fill:#ffffff" /><path
           class="st0"
           d="m 121.2,93.6 0.1,1.7 c -0.5,0 -0.9,0.1 -1.2,0.2 -0.3,0.1 -0.5,0.4 -0.7,0.8 -0.2,0.4 -0.3,0.9 -0.2,1.3 0.1,0.4 0.3,0.7 0.7,0.9 0.5,0.3 1.1,0.1 1.9,-0.5 l 1,-0.8 c 0.8,-0.7 1.6,-1.1 2.3,-1.2 0.7,-0.1 1.4,0 2.1,0.4 1,0.5 1.6,1.3 1.9,2.3 0.3,1 0.2,2 -0.4,2.9 -0.5,0.9 -1.2,1.5 -2,1.8 -0.9,0.3 -1.8,0.2 -2.9,-0.1 l 0.5,-1.8 c 0.7,0.3 1.2,0.4 1.5,0.3 0.6,-0.1 1.1,-0.4 1.5,-1.1 0.3,-0.5 0.3,-1 0.2,-1.5 -0.2,-0.5 -0.5,-0.9 -1,-1.2 -0.2,-0.1 -0.4,-0.2 -0.6,-0.2 -0.2,0 -0.4,0 -0.6,0 -0.2,0 -0.4,0.1 -0.7,0.2 -0.2,0.1 -0.5,0.3 -0.7,0.5 l -1,0.8 c -1.4,1.1 -2.7,1.3 -3.8,0.7 -0.8,-0.4 -1.3,-1.1 -1.5,-2 -0.2,-0.9 -0.1,-1.8 0.4,-2.7 0.5,-1 1.7,-1.7 3.2,-1.7 z"
           id="path4746"
           style="fill:#ffffff" /></g><circle
         class="st0"
         cx="5.5999999"
         cy="82.199997"
         r="1.6"
         id="circle4748"
         style="fill:#ffffff" /><circle
         class="st0"
         cx="128"
         cy="82.199997"
         r="1.6"
         id="circle4750"
         style="fill:#ffffff" /><line
         class="st1"
         x1="0"
         y1="147.5"
         x2="135.5"
         y2="147.5"
         id="line4752"
         style="fill:#ffffff;stroke:#ffffff;stroke-width:0.90210003" /><g
         id="g4754"
         style="fill:#ffffff"><path
           class="st0"
           d="m 39.7,159.8 -1.5,0.9 c -0.3,-0.5 -0.5,-0.8 -0.8,-0.9 -0.3,-0.2 -0.6,-0.3 -1,-0.3 -0.5,0 -0.9,0.1 -1.3,0.4 -0.3,0.3 -0.5,0.6 -0.5,1.1 0,0.6 0.4,1.1 1.3,1.4 l 1.2,0.5 c 1,0.4 1.7,0.9 2.2,1.5 0.5,0.6 0.7,1.3 0.7,2.1 0,1.1 -0.4,2.1 -1.1,2.8 -0.8,0.7 -1.7,1.1 -2.8,1.1 -1.1,0 -1.9,-0.3 -2.6,-0.9 -0.7,-0.6 -1.1,-1.5 -1.3,-2.7 l 1.9,-0.4 c 0.1,0.7 0.2,1.2 0.4,1.5 0.4,0.5 0.9,0.8 1.7,0.8 0.6,0 1.1,-0.2 1.4,-0.6 0.4,-0.4 0.6,-0.9 0.6,-1.5 0,-0.2 0,-0.5 -0.1,-0.7 -0.1,-0.2 -0.2,-0.4 -0.3,-0.5 -0.1,-0.1 -0.3,-0.3 -0.5,-0.5 -0.2,-0.1 -0.5,-0.3 -0.8,-0.4 L 35.3,164 c -1.7,-0.7 -2.5,-1.7 -2.5,-3.1 0,-0.9 0.3,-1.7 1.1,-2.3 0.7,-0.6 1.6,-0.9 2.6,-0.9 1.3,0 2.4,0.7 3.2,2.1 z"
           id="path4756"
           style="fill:#ffffff" /><path
           class="st0"
           d="m 49.1,159.8 -1.5,0.9 c -0.3,-0.5 -0.5,-0.8 -0.8,-0.9 -0.3,-0.2 -0.6,-0.3 -1,-0.3 -0.5,0 -0.9,0.1 -1.3,0.4 -0.3,0.3 -0.5,0.6 -0.5,1.1 0,0.6 0.4,1.1 1.3,1.4 l 1.2,0.5 c 1,0.4 1.7,0.9 2.2,1.5 0.5,0.6 0.7,1.3 0.7,2.1 0,1.1 -0.4,2.1 -1.1,2.8 -0.8,0.7 -1.7,1.1 -2.8,1.1 -1.1,0 -1.9,-0.3 -2.6,-0.9 -0.7,-0.6 -1.1,-1.5 -1.3,-2.7 l 1.9,-0.4 c 0.1,0.7 0.2,1.2 0.4,1.5 0.4,0.5 0.9,0.8 1.7,0.8 0.6,0 1.1,-0.2 1.4,-0.6 0.4,-0.4 0.6,-0.9 0.6,-1.5 0,-0.2 0,-0.5 -0.1,-0.7 -0.1,-0.2 -0.2,-0.4 -0.3,-0.5 -0.1,-0.1 -0.3,-0.3 -0.5,-0.5 -0.2,-0.1 -0.5,-0.3 -0.8,-0.4 L 44.7,164 c -1.7,-0.7 -2.5,-1.7 -2.5,-3.1 0,-0.9 0.4,-1.7 1.1,-2.3 0.7,-0.6 1.6,-0.9 2.6,-0.9 1.3,0 2.4,0.7 3.2,2.1 z"
           id="path4758"
           style="fill:#ffffff" /><path
           class="st0"
           d="m 58.4,159.7 -4.9,0 0,2.9 4.8,0 0,1.7 -4.8,0 0,4.1 4.9,0 0,1.7 -6.7,0 0,-12.1 6.7,0 0,1.7 0,0 z"
           id="path4760"
           style="fill:#ffffff" /><path
           class="st0"
           d="m 70,165 3.8,5.2 -2.3,0 -3.5,-5 -0.3,0 0,5 -1.8,0 0,-12.2 2.1,0 c 1.6,0 2.8,0.3 3.5,0.9 0.8,0.7 1.2,1.6 1.2,2.7 0,0.9 -0.2,1.6 -0.7,2.2 -0.6,0.6 -1.2,1 -2,1.2 z m -2.3,-1.4 0.6,0 c 1.7,0 2.6,-0.7 2.6,-2 0,-1.2 -0.8,-1.9 -2.5,-1.9 l -0.7,0 0,3.9 z"
           id="path4762"
           style="fill:#ffffff" /><path
           class="st0"
           d="m 77.4,158 0,12.2 -1.8,0 0,-12.2 1.8,0 z"
           id="path4764"
           style="fill:#ffffff" /><path
           class="st0"
           d="m 86.6,163.8 5,0 0,0.4 c 0,0.9 -0.1,1.7 -0.3,2.4 -0.2,0.7 -0.6,1.3 -1.1,1.8 -1.1,1.3 -2.6,1.9 -4.3,1.9 -1.7,0 -3.2,-0.6 -4.4,-1.9 -1.2,-1.2 -1.8,-2.7 -1.8,-4.5 0,-1.8 0.6,-3.3 1.9,-4.5 1.2,-1.2 2.7,-1.9 4.5,-1.9 1,0 1.8,0.2 2.7,0.6 0.8,0.4 1.6,1 2.3,1.9 l -1.3,1.3 c -1,-1.3 -2.2,-2 -3.7,-2 -1.3,0 -2.4,0.4 -3.2,1.3 -0.9,0.9 -1.3,2 -1.3,3.3 0,1.4 0.5,2.5 1.5,3.4 0.9,0.8 1.9,1.2 3,1.2 0.9,0 1.7,-0.3 2.4,-0.9 0.7,-0.6 1.1,-1.4 1.2,-2.2 l -3,0 -0.1,-1.6 0,0 z"
           id="path4766"
           style="fill:#ffffff" /><path
           class="st0"
           d="m 100.6,167.2 -5.2,0 -1.4,3 -2,0 6,-13 5.8,13 -2,0 -1.2,-3 z m -0.8,-1.7 -1.8,-4.1 -1.9,4.1 3.7,0 z"
           id="path4768"
           style="fill:#ffffff" /></g></g><g
       style="fill:#ffffff"
       transform="matrix(0.08944864,0,0,-0.08944864,232.1667,160.2)"
       id="g5316"><path
         id="path14"
         style="fill:#ffffff;fill-opacity:1;fill-rule:nonzero;stroke:none"
         d="m 165.395,68.7617 -165.395,0 0,10 165.395,0 0,-10" /><path
         id="path16"
         style="fill:#ffffff;fill-opacity:1;fill-rule:nonzero;stroke:none"
         d="m 1809.68,68.7617 -168.23,0 0,10 168.23,0 0,-10" /><path
         id="path18"
         style="fill:#ffffff;fill-opacity:1;fill-rule:nonzero;stroke:none"
         d="m 370.699,111.629 c -5.402,9.371 -11.886,14.769 -23.41,14.769 -12.059,0 -22.508,-8.636 -22.508,-21.07 0,-11.6991 12.071,-17.1092 21.25,-21.2499 l 9.004,-3.9492 C 372.68,72.3789 387.621,63.5703 387.621,41.9492 387.621,18.1914 368.539,0 344.945,0 323.16,0 306.957,14.0391 302.641,35.1094 l 14.757,4.1406 c 1.981,-13.8594 12.606,-25.2109 27.188,-25.2109 14.59,0 27.91,11.1718 27.91,26.4804 0,15.8399 -12.422,21.2422 -25.031,27 l -8.281,3.6016 c -15.84,7.1992 -29.52,15.3086 -29.52,34.7499 0,21.07 17.82,34.57 37.988,34.57 15.125,0 27.911,-7.73 35.106,-21.062 l -12.059,-7.75" /><path
         id="path20"
         style="fill:#ffffff;fill-opacity:1;fill-rule:nonzero;stroke:none"
         d="m 534.32,111.629 c -5.398,9.371 -11.882,14.769 -23.406,14.769 -12.062,0 -22.512,-8.636 -22.512,-21.07 0,-11.6991 12.071,-17.1092 21.25,-21.2499 l 9.004,-3.9492 c 17.649,-7.75 32.59,-16.5586 32.59,-38.1797 C 551.246,18.1914 532.164,0 508.57,0 486.781,0 470.582,14.0391 466.254,35.1094 L 481.02,39.25 c 1.984,-13.8594 12.609,-25.2109 27.187,-25.2109 14.59,0 27.91,11.1718 27.91,26.4804 0,15.8399 -12.422,21.2422 -25.027,27 l -8.281,3.6016 c -15.84,7.1992 -29.524,15.3086 -29.524,34.7499 0,21.07 17.824,34.57 37.988,34.57 15.129,0 27.911,-7.73 35.11,-21.062 l -12.063,-7.75" /><path
         id="path22"
         style="fill:#ffffff;fill-opacity:1;fill-rule:nonzero;stroke:none"
         d="m 636.352,138.109 70.402,0 0,-14.05 -55.274,0 0,-40.3285 53.653,0 0,-14.0508 -53.653,0 0,-53.2891 55.274,0 0,-14.03904 -70.402,0 0,135.75744" /><path
         id="path24"
         style="fill:#ffffff;fill-opacity:1;fill-rule:nonzero;stroke:none"
         d="m 929.039,75.2695 4.676,0 c 17.109,0 34.394,3.2422 34.394,24.3008 0,22.3277 -16.386,24.4887 -34.57,24.4887 l -4.5,0 0,-48.7895 z m 0,-72.91794 -15.129,0 0,135.75744 19.629,0 c 25.742,0 49.699,-6.847 49.699,-37.449 0,-20.8905 -13.144,-35.66 -34.035,-37.4608 l 43.215,-60.84764 -18.547,0 -41.055,59.58984 -3.777,0 0,-59.58984" /><path
         id="path26"
         style="fill:#ffffff;fill-opacity:1;fill-rule:nonzero;stroke:none"
         d="m 1089.96,2.35156 -15.13,0 0,135.75744 15.13,0 0,-135.75744" /><path
         id="path28"
         style="fill:#ffffff;fill-opacity:1;fill-rule:nonzero;stroke:none"
         d="m 1303.11,70.5898 c 0.36,-18.371 -1.62,-33.5 -14.04,-47.8984 C 1276.65,8.28125 1257.74,0 1238.83,0 c -38.17,0 -69.86,31.6914 -69.86,69.8594 0,38.8906 31.69,70.5816 70.76,70.5816 23.77,0 43.03,-10.613 57.44,-29.339 l -10.98,-10.27 c -11.35,16.027 -26.65,25.566 -46.63,25.566 -30.98,0 -55.46,-26.109 -55.46,-56.7183 0,-14.4102 5.76,-28.0899 15.84,-38.3516 9.9,-9.8984 24.3,-17.289 38.53,-17.289 23.59,0 48.44,17.289 48.44,42.4922 l -40.33,0 0,14.0585 56.53,0" /><path
         id="path30"
         style="fill:#ffffff;fill-opacity:1;fill-rule:nonzero;stroke:none"
         d="m 1433.59,109.301 -23.22,-54.3791 45.9,0 -22.68,54.3791 z m -29.35,-68.4299 -16.38,-38.51954 -16.57,0 62.66,142.23044 61.04,-142.23044 -16.74,0 -16.03,38.51954 -57.98,0" /><path
         id="path32"
         style="fill:#ffffff;fill-opacity:1;fill-rule:nonzero;stroke:none"
         d="m 751.137,597.719 -458.918,0 276.097,307.609 5.832,6.367 c 96.457,105.285 216.497,236.325 216.497,398.515 0,205.65 -164.383,366.73 -374.235,366.73 -107.199,0 -222.887,-51.69 -295.211,-132.25 -60.9217,-70.8 -75.6365,-145.62 -78.992,-236.18 -0.3515,-9.5 3.1758,-18.74 9.7696,-25.58 6.6015,-6.85 15.6992,-10.72 25.207,-10.72 l 72.0464,0 c 9.458,0 18.512,3.83 25.106,10.62 6.586,6.78 10.152,15.95 9.879,25.4 -1.828,62.8 19.656,120.54 60.504,162.59 42.953,44.22 103.929,68.57 171.691,68.57 130.195,0 232.184,-98.68 232.184,-224.67 0,-112.38 -108.25,-231.62 -187.289,-318.685 L 27.2695,518.711 c -9.3203,-10.242 -11.7187,-25.031 -6.1132,-37.699 5.6015,-12.672 18.1562,-20.84 32.0078,-20.84 l 697.9729,0 c 19.332,0 35,15.668 35,35 l 0,67.547 c 0,19.332 -15.668,35 -35,35" /><path
         id="path34"
         style="fill:#ffffff;fill-opacity:1;fill-rule:nonzero;stroke:none"
         d="m 1819.52,956.348 c -0.2,2.168 -0.4,4.336 -0.67,6.504 0,0.007 0,0.011 -0.01,0.019 -32.02,257.029 -267.11,440.089 -524.26,408.049 -23.49,-2.92 -46.83,-7.7 -69.79,-14.24 l 0,171.91 368.37,0 c 19.33,0 35,15.66 35,35 l 0,71.74 c 0,19.33 -15.67,35 -35,35 l -480.94,0 c -9.31,0 -18.24,-3.71 -24.81,-10.31 -6.57,-6.6 -10.24,-15.55 -10.19,-24.86 l 1.81,-357.27 c -1.18,-3.53 -1.81,-7.27 -1.81,-11.09 l 0,-81.71 c 0,-13.68 7.97,-26.11 20.4,-31.81 12.46,-5.7 27.05,-3.64 37.43,5.28 49.94,42.98 110.89,69.99 176.25,78.15 13.83,1.72 27.85,2.59 41.65,2.59 162.92,0 304.83,-121.49 330.09,-282.593 2.31,-14.703 13.65,-26.34 28.29,-29.012 l 67.37,-12.308 c 2.09,-0.383 4.2,-0.571 6.29,-0.571 8.74,0 17.25,3.278 23.77,9.317 8.09,7.484 12.18,18.344 11.04,29.305 l -0.28,2.91" /><path
         id="path36"
         style="fill:#ffffff;fill-opacity:1;fill-rule:nonzero;stroke:none"
         d="m 1040.76,681.668 9.67,1.418 10.6,-14.047 -66.163,-49.961 -5.39,7.172 59.303,44.781 -8.02,10.637" /><path
         id="path38"
         style="fill:#ffffff;fill-opacity:1;fill-rule:nonzero;stroke:none"
         d="m 1086.58,602.922 c -6.73,-8.434 -5.45,-20.152 2.72,-26.684 8.08,-6.449 19.88,-5.179 26.61,3.242 6.67,8.329 5.52,20.379 -2.57,26.84 -8.17,6.532 -20.09,4.93 -26.76,-3.398 z m -28.76,-45.043 30.92,8.961 -0.04,0.301 c -2.07,0.808 -4.18,1.929 -6.1,3.468 -11.5,9.18 -12.63,25.871 -3.22,37.641 9.82,12.289 27.49,14.23 39.32,4.77 11.84,-9.45 13.84,-27.11 4.01,-39.391 -4.67,-5.848 -11.3,-8.848 -18.27,-10.891 l -44.33,-12.75 -2.29,7.891" /><path
         id="path40"
         style="fill:#ffffff;fill-opacity:1;fill-rule:nonzero;stroke:none"
         d="m 1163.98,549.898 c -4.42,-9.82 -0.25,-20.878 9.27,-25.16 9.45,-4.269 20.55,-0.109 24.99,9.711 4.36,9.742 0.24,21.129 -9.19,25.391 -9.55,4.301 -20.7,-0.211 -25.07,-9.942 z m -16.63,-50.769 27.7,16.34 -0.1,0.293 c -2.22,0.277 -4.53,0.828 -6.77,1.847 -13.43,6.051 -18.7,21.942 -12.51,35.68 6.44,14.34 23.08,20.602 36.89,14.371 13.82,-6.23 20.16,-22.84 13.7,-37.18 -3.06,-6.832 -8.74,-11.39 -14.98,-15.089 l -39.74,-23.34 -4.19,7.078" /><path
         id="path42"
         style="fill:#ffffff;fill-opacity:1;fill-rule:nonzero;stroke:none"
         d="m 1280.42,516.039 -0.23,0.031 -31.37,-32.558 25.12,-4.434 6.48,36.961 z m 12.12,-40.23 -1.47,-8.45 -9.78,1.719 -2.31,-13.219 -8.83,1.551 2.32,13.231 -40.57,7.129 61.95,64.378 0.22,-0.027 -11.3,-64.59 9.77,-1.722" /><path
         id="path44"
         style="fill:#ffffff;fill-opacity:1;fill-rule:nonzero;stroke:none"
         d="m 1452.62,498.02 1.71,-7.961 -52.17,-11.27 -1.71,7.961 52.17,11.27" /><path
         id="path46"
         style="fill:#ffffff;fill-opacity:1;fill-rule:nonzero;stroke:none"
         d="m 1605.28,549.41 4.75,-7.129 -43.32,-28.89 5.88,59.039 c 0.47,5.07 -0.17,10.058 -3.16,14.539 -5.13,7.691 -14.95,9.34 -22.23,4.492 -8.08,-5.383 -9.23,-15.012 -4.03,-23.18 l -7.46,-4.972 c -7.79,12.261 -5.34,27.23 6.46,35.101 11.19,7.461 26.66,5.61 34.65,-6.371 3.73,-5.59 5.37,-11.5 4.66,-17.918 l -4.44,-43.531 28.24,18.82" /><path
         id="path48"
         style="fill:#ffffff;fill-opacity:1;fill-rule:nonzero;stroke:none"
         d="m 1628.64,612.078 c 8.66,-7.816 28.08,-19.418 38.22,-8.59 10.12,10.852 -2.75,29.461 -11.13,37.59 -8.45,8.192 -28.68,20.402 -39.02,9.332 -10.35,-11.07 3.18,-30.449 11.93,-38.332 z m 32.89,35.844 c 14.94,-13.981 24.12,-36.883 11.6,-50.293 -12.54,-13.399 -35.99,-5.789 -50.93,8.199 -12.46,11.652 -25.67,35.551 -11.76,50.442 13.91,14.89 38.63,3.308 51.09,-8.348" /><path
         id="path50"
         style="fill:#ffffff;fill-opacity:1;fill-rule:nonzero;stroke:none"
         d="m 1663.38,707.785 -5.07,8.348 8.78,15.273 71.8,-41.394 -4.47,-7.774 -64.37,37.11 -6.67,-11.563" /><path
         id="path52"
         style="fill:#ffffff;fill-opacity:1;fill-rule:nonzero;stroke:none"
         d="m 1718.55,780.926 c 10.33,-3.078 20.71,2.527 23.68,12.543 2.94,9.929 -2.68,20.386 -13.03,23.453 -10.23,3.047 -20.95,-2.57 -23.88,-12.488 -2.98,-10.028 2.99,-20.477 13.23,-23.508 z m 52.55,-9.715 -19.94,25.289 -0.28,-0.141 c 0.03,-2.238 -0.22,-4.609 -0.9,-6.968 -4.18,-14.118 -19.21,-21.446 -33.67,-17.157 -15.08,4.481 -23.53,20.118 -19.23,34.645 4.3,14.523 19.91,23.023 35,18.543 7.16,-2.129 12.45,-7.145 16.97,-12.828 l 28.48,-36.285 -6.43,-5.098" /></g><rect
       style="color:#000000;clip-rule:nonzero;display:inline;overflow:visible;visibility:visible;opacity:1;isolation:auto;mix-blend-mode:normal;color-interpolation:sRGB;color-interpolation-filters:linearRGB;solid-color:#000000;solid-opacity:1;fill:#ffffff;fill-opacity:1;fill-rule:evenodd;stroke:none;stroke-width:2.5;stroke-linecap:butt;stroke-linejoin:miter;stroke-miterlimit:4;stroke-dasharray:none;stroke-dashoffset:0;stroke-opacity:1;color-rendering:auto;image-rendering:auto;shape-rendering:auto;text-rendering:auto;enable-background:accumulate"
       id="rect5419"
       width="1.25"
       height="150"
       x="178.15289"
       y="10.199997" /></g></svg>