<?xml version="1.0" encoding="utf-8"?>
<!-- Generator: Adobe Illustrator 21.1.0, SVG Export Plug-In . SVG Version: 6.00 Build 0)  -->
<svg version="1.1" id="Layer_1" xmlns="http://www.w3.org/2000/svg" xmlns:xlink="http://www.w3.org/1999/xlink" x="0px" y="0px"
	 viewBox="0 0 175 202" style="enable-background:new 0 0 175 202;" xml:space="preserve">
<style type="text/css">
	.st0{clip-path:url(#SVGID_2_);}
	.st1{clip-path:url(#SVGID_4_);fill:#FFFFFF;}
	.st2{clip-path:url(#SVGID_6_);}
	.st3{clip-path:url(#SVGID_8_);fill:#FFFFFF;}
	.st4{clip-path:url(#SVGID_10_);}
	.st5{clip-path:url(#SVGID_12_);fill:#FFFFFF;}
	.st6{clip-path:url(#SVGID_14_);}
	.st7{clip-path:url(#SVGID_16_);fill:#FFFFFF;}
	.st8{clip-path:url(#SVGID_18_);}
	.st9{clip-path:url(#SVGID_20_);fill:#FFFFFF;}
	.st10{clip-path:url(#SVGID_22_);}
	.st11{clip-path:url(#SVGID_24_);fill:#FFFFFF;}
	.st12{clip-path:url(#SVGID_26_);}
	.st13{clip-path:url(#SVGID_28_);fill:#FFFFFF;}
	.st14{clip-path:url(#SVGID_30_);}
	.st15{clip-path:url(#SVGID_32_);fill:#FFFFFF;}
	.st16{clip-path:url(#SVGID_34_);}
	.st17{clip-path:url(#SVGID_36_);fill:#FFFFFF;}
	.st18{clip-path:url(#SVGID_38_);}
	.st19{clip-path:url(#SVGID_40_);fill:#FFFFFF;}
	.st20{clip-path:url(#SVGID_42_);}
	.st21{clip-path:url(#SVGID_44_);fill:#FFFFFF;}
	.st22{clip-path:url(#SVGID_46_);}
	.st23{clip-path:url(#SVGID_48_);fill:#FFFFFF;}
	.st24{clip-path:url(#SVGID_50_);}
	.st25{clip-path:url(#SVGID_52_);fill:#FFFFFF;}
	.st26{clip-path:url(#SVGID_54_);}
	.st27{clip-path:url(#SVGID_56_);fill:#FFFFFF;}
	.st28{clip-path:url(#SVGID_58_);}
	.st29{clip-path:url(#SVGID_60_);fill:#FFFFFF;}
	.st30{clip-path:url(#SVGID_62_);}
	.st31{clip-path:url(#SVGID_64_);fill:#FFFFFF;}
	.st32{clip-path:url(#SVGID_66_);}
	.st33{clip-path:url(#SVGID_68_);fill:#FFFFFF;}
</style>
<g>
	<defs>
		<path id="SVGID_1_" d="M87.749,2.535c-6.516,3.423-12.742,7.41-19.193,10.962c0,7.282,0,14.563,0,21.845
			c6.435,3.632,12.855,7.281,19.225,11.01c6.097-3.794,12.726-6.861,18.612-10.978c1.294-6.926,0.275-14.741,0.614-21.828
			C100.556,9.945,94.314,5.941,87.749,2.535z M110.015,40.75c-6.322,3.633-12.661,7.233-18.935,10.93
			c0,7.395-0.032,14.789,0.032,22.184c6.226,3.632,12.516,7.136,18.709,10.817c6.436-3.52,12.709-7.314,19.113-10.866
			c0.097-7.33,0.048-14.66,0.064-21.989C122.692,48.08,116.305,44.496,110.015,40.75z M87.507,0h0.355
			c7.164,3.81,14.003,8.169,21.118,12.06c0.016,8.25,0,16.501,0,24.751c-4.657,2.518-9.217,5.166-13.906,7.636
			c0.873,0.323,1.746,0.662,2.636,1.001c4.026-2.518,8.166-4.859,12.321-7.152c7.083,4.052,14.197,8.073,21.199,12.27
			c0.016,8.154,0.048,16.307-0.033,24.476c-7.066,4.085-14.197,8.057-21.231,12.222c-7.05-4.149-14.245-8.073-21.263-12.27
			c-0.048-7.927,0.016-15.855,0-23.782c1.617-1.518,3.25-3.035,4.77-4.682l-5.999,1.744c-7.017-3.213-13.987-7.395-20.471-11.592
			c-1.067-8.089-0.291-16.598-0.355-24.767C73.681,8.089,80.57,3.988,87.507,0z"/>
	</defs>
	<clipPath id="SVGID_2_">
		<use xlink:href="#SVGID_1_"  style="overflow:visible;"/>
	</clipPath>
	<g class="st0">
		<defs>
			<rect id="SVGID_3_" width="175" height="202"/>
		</defs>
		<clipPath id="SVGID_4_">
			<use xlink:href="#SVGID_3_"  style="overflow:visible;"/>
		</clipPath>
		<rect x="61.435" y="-5" class="st1" width="74.815" height="97.264"/>
	</g>
</g>
<g>
	<defs>
		<path id="SVGID_5_" d="M21.121,41.091c-6.378,3.605-12.692,7.306-19.006,11.007c0.112,7.257,0.24,14.531,0.176,21.788
			c6.218,3.461,12.227,7.707,18.781,10.462c6.522-2.868,12.483-7.033,18.765-10.414c0.128-7.273,0.064-14.531,0.08-21.82
			C33.668,48.413,27.355,44.84,21.121,41.091z M21.089,38.784c7.099,3.829,14.038,7.963,20.993,12.032
			c0.064,8.107,0.064,16.213,0,24.304c-6.987,4.101-14.054,8.043-21.025,12.144C14.022,83.227,6.971,79.221,0,75.088
			c0.064-8.123,0-16.229,0.08-24.352C7.067,46.747,13.878,42.357,21.089,38.784z"/>
	</defs>
	<clipPath id="SVGID_6_">
		<use xlink:href="#SVGID_5_"  style="overflow:visible;"/>
	</clipPath>
	<g class="st2">
		<defs>
			<rect id="SVGID_7_" width="175" height="202"/>
		</defs>
		<clipPath id="SVGID_8_">
			<use xlink:href="#SVGID_7_"  style="overflow:visible;"/>
		</clipPath>
		<rect x="-5" y="33.784" class="st3" width="52.13" height="58.48"/>
	</g>
</g>
<g>
	<defs>
		<path id="SVGID_9_" d="M64.934,40.907c-6.386,3.716-12.82,7.383-19.126,11.26c0.16,7.141,0.112,14.267,0.064,21.393
			c6.322,3.844,12.708,7.543,19.191,11.114c6.225-3.715,12.579-7.222,18.821-10.937c0-7.255-0.032-14.493,0.032-21.731
			C77.626,48.242,71.256,44.607,64.934,40.907z M64.79,38.784c7.349,3.12,14.04,7.962,21.051,11.774
			c0.048,8.252,0.065,16.487-0.032,24.723c-6.979,3.941-13.927,7.962-20.875,11.983c-7.012-4.069-14.023-8.123-21.051-12.144
			c-0.193-8.123-0.128-16.278-0.096-24.401C50.782,46.778,57.537,42.194,64.79,38.784z"/>
	</defs>
	<clipPath id="SVGID_10_">
		<use xlink:href="#SVGID_9_"  style="overflow:visible;"/>
	</clipPath>
	<g class="st4">
		<defs>
			<rect id="SVGID_11_" width="175" height="202"/>
		</defs>
		<clipPath id="SVGID_12_">
			<use xlink:href="#SVGID_11_"  style="overflow:visible;"/>
		</clipPath>
		<rect x="38.75" y="33.784" class="st5" width="52.13" height="58.48"/>
	</g>
</g>
<g>
	<defs>
		<path id="SVGID_13_" d="M153.835,41.282c-6.477,3.394-12.744,7.172-19.028,10.887c0,7.205,0,14.409,0,21.614
			c6.284,3.554,12.407,7.637,18.996,10.567c6.701-2.866,12.824-7.141,19.14-10.727c-0.048-7.061-0.08-14.137,0.048-21.198
			C166.675,48.598,160.376,44.708,153.835,41.282z M153.835,38.784c7.183,3.778,14.078,8.085,21.149,12.072
			c0.016,8.085-0.016,16.155,0.016,24.24c-7.055,4.083-14.142,8.101-21.213,12.168c-6.927-4.003-13.886-7.957-20.86-11.896
			c-0.081-8.213-0.065-16.443-0.016-24.672C139.885,46.741,146.683,42.434,153.835,38.784z"/>
	</defs>
	<clipPath id="SVGID_14_">
		<use xlink:href="#SVGID_13_"  style="overflow:visible;"/>
	</clipPath>
	<g class="st6">
		<defs>
			<rect id="SVGID_15_" width="175" height="202"/>
		</defs>
		<clipPath id="SVGID_16_">
			<use xlink:href="#SVGID_15_"  style="overflow:visible;"/>
		</clipPath>
		<rect x="127.87" y="33.784" class="st7" width="52.13" height="58.48"/>
	</g>
</g>
<g>
	<defs>
		<path id="SVGID_17_" d="M1.865,89.112c3.421-0.298,6.887-0.215,10.323-0.232v4.453c-1.885-0.033-3.77-0.05-5.655-0.083
			c-0.076,1.788-0.137,3.576-0.213,5.363c3.77,0.811,5.123,0.033,6.644,4.552c-2.189,0.199-4.378,0.365-6.583,0.53
			c0.046,2.251,0.076,4.486,0.122,6.737c1.976-0.033,3.953-0.066,5.929-0.099l0.076,4.403c-3.618,0-7.252,0-10.87-0.017
			C1.819,106.195,1.363,97.62,1.865,89.112z"/>
	</defs>
	<clipPath id="SVGID_18_">
		<use xlink:href="#SVGID_17_"  style="overflow:visible;"/>
	</clipPath>
	<g class="st8">
		<defs>
			<rect id="SVGID_19_" width="175" height="202"/>
		</defs>
		<clipPath id="SVGID_20_">
			<use xlink:href="#SVGID_19_"  style="overflow:visible;"/>
		</clipPath>
		<rect x="-3.38" y="83.88" class="st9" width="21.343" height="35.856"/>
	</g>
</g>
<g>
	<defs>
		<path id="SVGID_21_" d="M21.065,88.912l4.825-0.016c-0.046,3.59-0.093,7.179-0.093,10.768c1.542-3.54,2.96-7.113,4.332-10.719
			c1.804-0.016,3.607-0.049,5.411-0.065c-1.834,3.719-3.669,7.406-5.503,11.109c1.958,4.889,3.885,9.777,5.611,14.747l-5.087-0.991
			c-1.757-3.183-2.806-6.902-4.131-10.313c-0.416,3.606-0.601,7.227-0.771,10.849l-4.563-0.146
			C21.049,105.738,21.08,97.325,21.065,88.912z"/>
	</defs>
	<clipPath id="SVGID_22_">
		<use xlink:href="#SVGID_21_"  style="overflow:visible;"/>
	</clipPath>
	<g class="st10">
		<defs>
			<rect id="SVGID_23_" width="175" height="202"/>
		</defs>
		<clipPath id="SVGID_24_">
			<use xlink:href="#SVGID_23_"  style="overflow:visible;"/>
		</clipPath>
		<rect x="16.065" y="83.88" class="st11" width="24.583" height="35.856"/>
	</g>
</g>
<g>
	<defs>
		<path id="SVGID_25_" d="M50.725,91.816c-3.791,4.94-4.444,11.072-2.198,16.865c0.589,0.933,1.465,1.674,2.596,2.221
			C54.214,104.899,53.656,97.754,50.725,91.816z M47.094,89.708c3.52-1.69,7.613-0.821,9.398,2.864
			c2.453,4.571,2.422,13.47,0.112,18.088c-2.453,5.15-9.318,5.504-12.233,0.58C41.009,105.205,41.057,94.069,47.094,89.708z"/>
	</defs>
	<clipPath id="SVGID_26_">
		<use xlink:href="#SVGID_25_"  style="overflow:visible;"/>
	</clipPath>
	<g class="st12">
		<defs>
			<rect id="SVGID_27_" width="175" height="202"/>
		</defs>
		<clipPath id="SVGID_28_">
			<use xlink:href="#SVGID_27_"  style="overflow:visible;"/>
		</clipPath>
		<rect x="37.13" y="83.88" class="st13" width="26.203" height="35.856"/>
	</g>
</g>
<g>
	<defs>
		<path id="SVGID_29_" d="M76.602,88.88l-0.063,4.336c-2.292,0.44-5.379-0.261-6.86,1.924c1.31,5.102,9.448,6.422,7.905,13.578
			c-1.575,6.896-7.375,6.064-12.769,5.901c0.218-1.467,0.421-2.95,0.639-4.417c3.009-0.229,5.66,1.059,7.78-1.81
			c-1.793-5.738-9.542-6.797-7.889-14.051C66.842,88.293,71.878,89.288,76.602,88.88z"/>
	</defs>
	<clipPath id="SVGID_30_">
		<use xlink:href="#SVGID_29_"  style="overflow:visible;"/>
	</clipPath>
	<g class="st14">
		<defs>
			<rect id="SVGID_31_" width="175" height="202"/>
		</defs>
		<clipPath id="SVGID_32_">
			<use xlink:href="#SVGID_31_"  style="overflow:visible;"/>
		</clipPath>
		<rect x="59.815" y="83.88" class="st15" width="22.963" height="35.856"/>
	</g>
</g>
<g>
	<defs>
		<path id="SVGID_33_" d="M93.073,93.16c-2.752,5.015-2.546,12.378-0.047,17.474c1.829-0.225,2.879-1.238,3.15-3.087
			c1.193-4.533,1.066-9.79-0.955-14.082L93.073,93.16z M90.13,90.266c3.596-2.652,8.464-1.366,10.31,2.733
			c2.307,5.064,2.228,13.391-0.509,18.278c-2.944,4.822-9.865,4.597-12.236-0.643C85.038,104.798,84.863,94.767,90.13,90.266z"/>
	</defs>
	<clipPath id="SVGID_34_">
		<use xlink:href="#SVGID_33_"  style="overflow:visible;"/>
	</clipPath>
	<g class="st16">
		<defs>
			<rect id="SVGID_35_" width="175" height="202"/>
		</defs>
		<clipPath id="SVGID_36_">
			<use xlink:href="#SVGID_35_"  style="overflow:visible;"/>
		</clipPath>
		<rect x="80.88" y="83.88" class="st17" width="26.203" height="35.856"/>
	</g>
</g>
<g>
	<defs>
		<path id="SVGID_37_" d="M122.913,87.264l-0.605,3.973c-1.949,0.702-4.687,0.973-6.233,2.409
			c-2.218,3.128-2.167,7.707-1.159,11.217c0.739,3.51,5.477,3.542,8.232,4.755c-0.571,5.217-7.224,3.606-10.332,1.547
			c-5.528-4.722-5.376-14.567-1.21-20.056C114.395,87.376,118.662,88.014,122.913,87.264z"/>
	</defs>
	<clipPath id="SVGID_38_">
		<use xlink:href="#SVGID_37_"  style="overflow:visible;"/>
	</clipPath>
	<g class="st18">
		<defs>
			<rect id="SVGID_39_" width="175" height="202"/>
		</defs>
		<clipPath id="SVGID_40_">
			<use xlink:href="#SVGID_39_"  style="overflow:visible;"/>
		</clipPath>
		<rect x="103.565" y="82.264" class="st19" width="24.583" height="35.856"/>
	</g>
</g>
<g>
	<defs>
		<path id="SVGID_41_" d="M153.871,118.649c-6.603,2.978-12.707,7.155-19.052,10.651c0.048,7.317,0.048,14.634-0.016,21.951
			c6.361,3.723,12.787,7.316,19.084,11.185c6.345-3.788,12.723-7.527,19.132-11.218c-0.064-7.333-0.016-14.649-0.048-21.966
			C166.561,125.852,160.522,121.514,153.871,118.649z M141.969,88.88l4.961,0.631c0.241,6.896,0.096,13.808,0.032,20.72
			c1.949,0.033,3.897,0.065,5.83,0.081c0.58,2.59,0.129,4.759,2.657,6.281c6.394,4.015,13.109,7.479,19.551,11.429
			c-0.016,8.158-0.016,16.333,0,24.507c-7.006,4.177-14.011,8.337-21.129,12.303c-7.006-4.047-14.027-8.094-20.985-12.238
			c0-8.207,0.017-16.414-0.016-24.605c6.346-4.468,15.348-7.203,20.147-13.371c-3.688-0.097-7.36-0.162-11.048-0.194
			C142.002,105.909,142.002,97.395,141.969,88.88z"/>
	</defs>
	<clipPath id="SVGID_42_">
		<use xlink:href="#SVGID_41_"  style="overflow:visible;"/>
	</clipPath>
	<g class="st20">
		<defs>
			<rect id="SVGID_43_" width="175" height="202"/>
		</defs>
		<clipPath id="SVGID_44_">
			<use xlink:href="#SVGID_43_"  style="overflow:visible;"/>
		</clipPath>
		<rect x="127.87" y="83.88" class="st21" width="52.13" height="85.952"/>
	</g>
</g>
<g>
	<defs>
		<path id="SVGID_45_" d="M157.176,88.88c1.977,0.017,3.937,0.033,5.897,0.05c0.971,6.352,1.993,12.671,2.68,19.073
			c1.39-6.336,2.278-12.738,3.334-19.123c1.96,0.017,3.936,0.033,5.913,0.05c-2.195,8.536-4.071,17.171-6.114,25.756
			c-1.927,0.017-3.87,0.033-5.797,0.05C161.062,106.134,159.136,97.499,157.176,88.88z"/>
	</defs>
	<clipPath id="SVGID_46_">
		<use xlink:href="#SVGID_45_"  style="overflow:visible;"/>
	</clipPath>
	<g class="st22">
		<defs>
			<rect id="SVGID_47_" width="175" height="202"/>
		</defs>
		<clipPath id="SVGID_48_">
			<use xlink:href="#SVGID_47_"  style="overflow:visible;"/>
		</clipPath>
		<rect x="152.176" y="83.88" class="st23" width="27.824" height="35.856"/>
	</g>
</g>
<g>
	<defs>
		<path id="SVGID_49_" d="M132.554,96.96c0.94,0.738,1.865,1.493,2.758,2.283c0.282,1.318,0.548,2.635,0.799,3.97
			c-1.473,1.142-2.962,2.301-4.435,3.443c-0.909-1.071-1.786-2.161-2.664-3.25c-0.345-1.493-0.689-2.986-1.003-4.479
			C129.514,98.26,131.034,97.61,132.554,96.96z"/>
	</defs>
	<clipPath id="SVGID_50_">
		<use xlink:href="#SVGID_49_"  style="overflow:visible;"/>
	</clipPath>
	<g class="st24">
		<defs>
			<rect id="SVGID_51_" width="175" height="202"/>
		</defs>
		<clipPath id="SVGID_52_">
			<use xlink:href="#SVGID_51_"  style="overflow:visible;"/>
		</clipPath>
		<rect x="123.009" y="91.96" class="st25" width="18.102" height="19.696"/>
	</g>
</g>
<g>
	<defs>
		<path id="SVGID_53_" d="M21.097,117.447c-6.6,2.84-12.607,7.123-18.966,10.492c-0.08,7.267-0.016,14.55-0.08,21.817
			c6.344,3.674,12.671,7.364,18.966,11.086c6.279-3.786,12.655-7.396,19.014-11.037c0-7.268-0.016-14.535,0.032-21.802
			C33.72,124.57,27.649,120.447,21.097,117.447z M21.033,114.736c7.128,3.818,14.097,7.973,21.097,12.048
			c-0.208,8.069-0.112,16.154-0.032,24.224c-6.968,4.139-13.984,8.181-21.001,12.208C14,159.286,7,155.163,0,151.056
			c0-8.101,0-16.203,0-24.304C7,122.741,13.904,118.522,21.033,114.736z"/>
	</defs>
	<clipPath id="SVGID_54_">
		<use xlink:href="#SVGID_53_"  style="overflow:visible;"/>
	</clipPath>
	<g class="st26">
		<defs>
			<rect id="SVGID_55_" width="175" height="202"/>
		</defs>
		<clipPath id="SVGID_56_">
			<use xlink:href="#SVGID_55_"  style="overflow:visible;"/>
		</clipPath>
		<rect x="-5" y="109.736" class="st27" width="52.13" height="58.48"/>
	</g>
</g>
<g>
	<defs>
		<path id="SVGID_57_" d="M64.958,117.477c-6.595,2.916-12.678,7.083-18.969,10.593c0.016,7.212,0.016,14.408-0.032,21.62
			c6.371,3.702,12.742,7.372,19.097,11.106c6.259-3.734,12.55-7.404,18.857-11.026c-0.08-7.292-0.016-14.584-0.048-21.876
			C77.524,124.544,71.505,120.361,64.958,117.477z M65.038,114.736c7.027,3.798,13.91,7.949,20.842,11.94
			c-0.016,8.109-0.016,16.234,0,24.344c-6.932,4.119-13.911,8.173-20.906,12.196c-7.092-4.023-14.103-8.141-21.098-12.292
			c0.08-7.933-0.464-15.963,0.24-23.864C50.647,122.397,57.994,118.614,65.038,114.736z"/>
	</defs>
	<clipPath id="SVGID_58_">
		<use xlink:href="#SVGID_57_"  style="overflow:visible;"/>
	</clipPath>
	<g class="st28">
		<defs>
			<rect id="SVGID_59_" width="175" height="202"/>
		</defs>
		<clipPath id="SVGID_60_">
			<use xlink:href="#SVGID_59_"  style="overflow:visible;"/>
		</clipPath>
		<rect x="38.75" y="109.736" class="st29" width="52.13" height="58.48"/>
	</g>
</g>
<g>
	<defs>
		<path id="SVGID_61_" d="M108.75,117.356c-6.589,2.604-12.571,7.025-18.825,10.368c-0.207,7.33-0.095,14.66-0.127,21.99
			c6.237,3.745,12.57,7.329,18.808,11.059c6.19-3.794,12.523-7.346,18.76-11.059c-0.032-7.266-0.032-14.515,0.016-21.781
			C121.241,124.348,115.21,120.346,108.75,117.356z M108.446,114.736c5.424,2.25,10.386,5.787,15.538,8.6
			c1.739,1.157,4.116,2.138,5.329,3.858c0.638,7.828,0.079,15.784,0.287,23.645c-7.019,4.195-14.071,8.375-21.201,12.377
			c-6.876-4.244-13.927-8.182-20.835-12.377c0.256-7.973-0.526-16.187,0.415-24.096C94.344,122.291,101.555,118.321,108.446,114.736
			z"/>
	</defs>
	<clipPath id="SVGID_62_">
		<use xlink:href="#SVGID_61_"  style="overflow:visible;"/>
	</clipPath>
	<g class="st30">
		<defs>
			<rect id="SVGID_63_" width="175" height="202"/>
		</defs>
		<clipPath id="SVGID_64_">
			<use xlink:href="#SVGID_63_"  style="overflow:visible;"/>
		</clipPath>
		<rect x="82.5" y="109.736" class="st31" width="52.13" height="58.48"/>
	</g>
</g>
<g>
	<defs>
		<path id="SVGID_65_" d="M87.412,156.062c-6.476,3.406-12.726,7.244-19.122,10.793c0,7.243,0,14.471,0,21.714
			c6.412,3.597,12.823,7.179,19.139,10.937c6.411-3.742,12.904-7.371,19.283-11.161c-0.096-7.131-0.08-14.263-0.016-21.394
			C100.236,163.401,93.969,159.468,87.412,156.062z M87.396,153.52c7.153,3.837,14.032,8.139,21.169,11.976
			c0,8.155,0,16.309,0,24.464c-7.121,3.837-14.096,7.963-21.088,12.04c-7.008-4.013-13.984-8.059-21.007-12.04
			c-0.033-8.235-0.081-16.469,0.064-24.688C73.655,161.627,80.372,157.309,87.396,153.52z"/>
	</defs>
	<clipPath id="SVGID_66_">
		<use xlink:href="#SVGID_65_"  style="overflow:visible;"/>
	</clipPath>
	<g class="st32">
		<defs>
			<rect id="SVGID_67_" width="175" height="202"/>
		</defs>
		<clipPath id="SVGID_68_">
			<use xlink:href="#SVGID_67_"  style="overflow:visible;"/>
		</clipPath>
		<rect x="61.435" y="148.52" class="st33" width="52.13" height="58.48"/>
	</g>
</g>
</svg>
