<?xml version="1.0" encoding="utf-8"?>
<!-- Generator: Adobe Illustrator 21.0.0, SVG Export Plug-In . SVG Version: 6.00 Build 0)  -->
<svg version="1.1" id="Layer_1" xmlns="http://www.w3.org/2000/svg" xmlns:xlink="http://www.w3.org/1999/xlink" x="0px" y="0px"
	 viewBox="0 0 17 17" style="enable-background:new 0 0 17 17;" xml:space="preserve">
<style type="text/css">
	.st0{fill:#b5a781;}
</style>
<path id="RSS_2_" class="st0" d="M3.853,13.141c0.412,0.411,0.663,0.969,0.665,1.591c-0.002,0.62-0.253,1.179-0.663,1.588l-0.002,0
	c-0.41,0.409-0.972,0.66-1.596,0.66c-0.625,0-1.184-0.251-1.595-0.66C0.253,15.91,0,15.352,0,14.732
	c0-0.621,0.253-1.181,0.662-1.591v0c0.411-0.409,0.97-0.662,1.595-0.662C2.881,12.479,3.443,12.732,3.853,13.141z M3.853,13.141
	L3.853,13.141L3.853,13.141L3.853,13.141z M0.662,16.32L0.662,16.32C0.661,16.319,0.661,16.319,0.662,16.32L0.662,16.32z
	 M0.002,5.781v3.246C2.12,9.028,4.126,9.86,5.624,11.363c1.501,1.498,2.329,3.505,2.333,5.632l0,0V17h3.261
	c-0.003-3.093-1.26-5.893-3.292-7.926C5.895,7.041,3.093,5.782,0.002,5.781z M0.007,0v3.245C7.582,3.25,13.74,9.417,13.746,17H17
	c-0.002-4.686-1.907-8.932-4.985-12.013C8.936,1.908,4.692,0.002,0.007,0z"/>
</svg>
