<?xml version="1.0" encoding="utf-8"?>
<!-- Generator: Adobe Illustrator 21.1.0, SVG Export Plug-In . SVG Version: 6.00 Build 0)  -->
<svg version="1.1" id="Layer_1" xmlns="http://www.w3.org/2000/svg" xmlns:xlink="http://www.w3.org/1999/xlink" x="0px" y="0px"
	 viewBox="0 0 24 24" style="enable-background:new 0 0 24 24;" xml:space="preserve">
<style type="text/css">
	.st0{fill:#6B82A4;}
</style>
<title>Assets / Icons / Social / Twitter</title>
<desc>Created with Sketch.</desc>
<g id="Assets-_x2F_-Icons-_x2F_-Social-_x2F_-Twitter">
	<path id="Twitter" class="st0" d="M22.471,8.861c-0.623,0.276-1.294,0.463-1.996,0.547c0.719-0.431,1.27-1.111,1.528-1.923
		c-0.672,0.399-1.415,0.687-2.208,0.842c-0.633-0.676-1.537-1.097-2.537-1.097c-1.919,0-3.475,1.557-3.475,3.475
		c0,0.273,0.03,0.537,0.09,0.791c-2.888-0.145-5.449-1.527-7.164-3.631c-0.299,0.515-0.47,1.112-0.47,1.749
		c0,1.205,0.614,2.269,1.547,2.893c-0.57-0.018-1.107-0.176-1.576-0.435v0.043c0,1.685,1.198,3.09,2.79,3.408
		c-0.292,0.082-0.599,0.123-0.916,0.123c-0.224,0-0.443-0.021-0.654-0.062c0.442,1.38,1.725,2.386,3.246,2.413
		c-1.19,0.932-2.689,1.488-4.317,1.488c-0.281,0-0.558-0.016-0.829-0.048C7.067,20.425,8.894,21,10.857,21
		c6.394,0,9.89-5.296,9.89-9.89c0-0.151-0.003-0.302-0.009-0.449C21.417,10.17,22.007,9.558,22.471,8.861"/>
</g>
</svg>
