<?xml version="1.0" encoding="utf-8"?>
<!-- Generator: Adobe Illustrator 21.1.0, SVG Export Plug-In . SVG Version: 6.00 Build 0)  -->
<svg version="1.1" id="Layer_1" xmlns="http://www.w3.org/2000/svg" xmlns:xlink="http://www.w3.org/1999/xlink" x="0px" y="0px"
	 viewBox="0 0 24 24" style="enable-background:new 0 0 24 24;" xml:space="preserve">
<style type="text/css">
	.st0{fill:none;}
	.st1{fill:#b5a781;}
</style>
<title>Assets / Icons / Social / IG</title>
<desc>Created with Sketch.</desc>
<g id="Assets-_x2F_-Icons-_x2F_-Social-_x2F_-IG">
	<rect id="Rectangle-2" class="st0" width="24" height="24"/>
	<g id="Instagram" transform="translate(4.701871, 4.513370)">
		<path id="Fill-1" class="st1" d="M7.903,0.507c-2.06,0-2.319,0.009-3.128,0.046C3.967,0.59,3.416,0.718,2.933,0.906
			C2.435,1.1,2.011,1.359,1.59,1.781S0.908,2.626,0.715,3.125C0.527,3.607,0.399,4.159,0.362,4.966
			C0.325,5.776,0.316,6.034,0.316,8.094s0.009,2.319,0.046,3.128c0.037,0.808,0.165,1.359,0.353,1.842
			c0.194,0.499,0.453,0.922,0.875,1.344c0.422,0.422,0.845,0.681,1.344,0.875c0.483,0.188,1.034,0.316,1.842,0.353
			c0.809,0.037,1.068,0.046,3.128,0.046c2.06,0,2.319-0.009,3.128-0.046c0.808-0.037,1.359-0.165,1.842-0.353
			c0.499-0.194,0.922-0.453,1.344-0.875c0.422-0.422,0.681-0.845,0.875-1.344c0.188-0.483,0.316-1.034,0.353-1.842
			c0.037-0.809,0.046-1.068,0.046-3.128c0-2.06-0.009-2.319-0.046-3.128c-0.037-0.808-0.165-1.359-0.353-1.842
			c-0.194-0.499-0.453-0.922-0.875-1.344S13.372,1.1,12.873,0.906c-0.483-0.188-1.034-0.316-1.842-0.353
			C10.222,0.516,9.964,0.507,7.903,0.507 M7.903,1.874c2.026,0,2.266,0.008,3.066,0.044c0.74,0.034,1.141,0.157,1.409,0.261
			c0.354,0.138,0.607,0.302,0.872,0.568c0.266,0.265,0.43,0.518,0.568,0.872c0.104,0.267,0.227,0.669,0.261,1.409
			c0.037,0.8,0.044,1.04,0.044,3.066c0,2.026-0.008,2.266-0.044,3.066c-0.034,0.74-0.157,1.141-0.261,1.409
			c-0.138,0.354-0.302,0.607-0.568,0.872c-0.266,0.266-0.518,0.43-0.872,0.568c-0.267,0.104-0.669,0.227-1.409,0.261
			c-0.8,0.037-1.04,0.044-3.066,0.044s-2.266-0.008-3.066-0.044c-0.74-0.034-1.141-0.157-1.409-0.261
			c-0.354-0.138-0.607-0.302-0.872-0.568c-0.266-0.265-0.43-0.518-0.568-0.872C1.885,12.302,1.761,11.9,1.727,11.16
			c-0.037-0.8-0.044-1.04-0.044-3.066c0-2.026,0.008-2.266,0.044-3.066c0.034-0.74,0.157-1.141,0.261-1.409
			c0.138-0.354,0.302-0.607,0.568-0.872s0.518-0.43,0.872-0.568c0.267-0.104,0.669-0.227,1.409-0.261
			C5.637,1.882,5.877,1.874,7.903,1.874"/>
		<path id="Fill-4" class="st1" d="M7.903,10.623c-1.397,0-2.529-1.132-2.529-2.529c0-1.397,1.132-2.529,2.529-2.529
			c1.397,0,2.529,1.132,2.529,2.529C10.432,9.491,9.3,10.623,7.903,10.623 M7.903,4.198c-2.152,0-3.896,1.744-3.896,3.896
			s1.744,3.896,3.896,3.896s3.896-1.744,3.896-3.896S10.055,4.198,7.903,4.198"/>
		<path id="Fill-6" class="st1" d="M12.863,4.044c0,0.503-0.408,0.91-0.91,0.91c-0.503,0-0.91-0.408-0.91-0.91
			c0-0.503,0.408-0.91,0.91-0.91C12.456,3.134,12.863,3.542,12.863,4.044"/>
	</g>
</g>
</svg>
