<?xml version="1.0" encoding="utf-8"?>
<!-- Generator: Adobe Illustrator 21.0.0, SVG Export Plug-In . SVG Version: 6.00 Build 0)  -->
<svg version="1.1" id="Layer_1" xmlns="http://www.w3.org/2000/svg" xmlns:xlink="http://www.w3.org/1999/xlink" x="0px" y="0px"
	 viewBox="0 0 17 17" style="enable-background:new 0 0 17 17;" xml:space="preserve">
<style type="text/css">
	.st0{fill:#6B82A4;}
</style>
<path class="st0" d="M11.978,2.758v3.24c-0.078,0.094-0.171,0.171-0.266,0.231c-0.103,0.06-0.18,0.094-0.248,0.094
	c-0.077,0-0.137-0.025-0.171-0.068c-0.043-0.052-0.06-0.12-0.06-0.222V2.758h-0.874v3.565c0,0.258,0.052,0.446,0.155,0.574
	c0.102,0.129,0.258,0.189,0.454,0.189c0.172,0,0.334-0.043,0.514-0.128c0.171-0.094,0.335-0.223,0.497-0.403v0.471h0.875V2.758
	H11.978z M9.313,2.965c-0.232-0.214-0.531-0.317-0.89-0.317c-0.395,0-0.712,0.103-0.952,0.3c-0.232,0.197-0.35,0.453-0.35,0.788
	v2.211c0,0.369,0.119,0.651,0.342,0.865c0.231,0.214,0.54,0.325,0.917,0.325c0.394,0,0.712-0.103,0.934-0.317
	c0.232-0.206,0.343-0.488,0.343-0.857V3.762C9.656,3.436,9.536,3.17,9.313,2.965z M8.765,6.032c0,0.111-0.034,0.197-0.103,0.265
	C8.594,6.367,8.5,6.4,8.379,6.4c-0.111,0-0.205-0.034-0.266-0.102c-0.059-0.06-0.094-0.154-0.094-0.265V3.701
	c0-0.094,0.035-0.171,0.103-0.222c0.061-0.061,0.154-0.086,0.257-0.086c0.111,0,0.206,0.025,0.282,0.086
	c0.069,0.051,0.103,0.128,0.103,0.222V6.032z M6.057,1.242L5.45,3.556H5.38L4.746,1.242H3.753l1.174,3.496v2.288h0.985V4.627
	l1.14-3.385H6.057z M12.87,11.431c0.051,0.068,0.077,0.188,0.077,0.342v0.394h-0.677v-0.394c0-0.154,0.017-0.274,0.078-0.342
	c0.051-0.069,0.137-0.112,0.266-0.112C12.732,11.319,12.818,11.362,12.87,11.431z M10.179,11.413
	c-0.051-0.069-0.137-0.103-0.24-0.103c-0.051,0-0.111,0.009-0.163,0.034c-0.052,0.026-0.111,0.069-0.163,0.121v2.416
	c0.06,0.06,0.128,0.112,0.188,0.137c0.06,0.026,0.12,0.043,0.18,0.043c0.103,0,0.171-0.026,0.213-0.086
	c0.043-0.051,0.069-0.137,0.069-0.266v-2.004C10.265,11.576,10.238,11.482,10.179,11.413z M10.179,11.413
	c-0.051-0.069-0.137-0.103-0.24-0.103c-0.051,0-0.111,0.009-0.163,0.034c-0.052,0.026-0.111,0.069-0.163,0.121v2.416
	c0.06,0.06,0.128,0.112,0.188,0.137c0.06,0.026,0.12,0.043,0.18,0.043c0.103,0,0.171-0.026,0.213-0.086
	c0.043-0.051,0.069-0.137,0.069-0.266v-2.004C10.265,11.576,10.238,11.482,10.179,11.413z M14.575,8.423H2.425
	C1.096,8.423,0,9.52,0,10.856v2.477c0,1.336,1.096,2.425,2.425,2.425h12.15c1.328,0,2.425-1.089,2.425-2.425v-2.477
	C17,9.52,15.903,8.423,14.575,8.423z M5.698,10.128H4.79v4.49H3.915v-4.49H3.016V9.366h2.682V10.128z M8.251,14.618H7.471V14.19
	c-0.137,0.162-0.291,0.283-0.445,0.36c-0.154,0.086-0.301,0.128-0.447,0.128c-0.179,0-0.316-0.06-0.411-0.18
	c-0.086-0.111-0.128-0.283-0.128-0.514v-3.248h0.771v2.982c0,0.085,0.017,0.154,0.052,0.197c0.026,0.043,0.085,0.06,0.155,0.06
	c0.059,0,0.128-0.025,0.214-0.085c0.094-0.052,0.171-0.12,0.239-0.206v-2.947h0.779V14.618z M11.061,13.813
	c0,0.274-0.06,0.488-0.18,0.634c-0.119,0.145-0.3,0.222-0.53,0.222c-0.156,0-0.284-0.026-0.404-0.085
	c-0.12-0.061-0.23-0.146-0.333-0.266v0.3h-0.78V9.366h0.78v1.687c0.103-0.111,0.214-0.205,0.333-0.265
	c0.12-0.06,0.24-0.094,0.36-0.094c0.24,0,0.429,0.085,0.557,0.248c0.129,0.163,0.197,0.402,0.197,0.72V13.813z M13.752,12.776
	h-1.483v0.728c0,0.205,0.017,0.343,0.069,0.42c0.051,0.085,0.145,0.12,0.265,0.12c0.128,0,0.214-0.034,0.266-0.103
	c0.051-0.06,0.077-0.214,0.077-0.437v-0.18h0.806v0.197c0,0.404-0.103,0.703-0.301,0.9c-0.188,0.205-0.48,0.3-0.865,0.3
	c-0.352,0-0.626-0.103-0.823-0.317c-0.196-0.214-0.299-0.506-0.299-0.883v-1.739c0-0.334,0.111-0.609,0.334-0.822
	c0.214-0.207,0.496-0.317,0.848-0.317c0.352,0,0.626,0.103,0.814,0.3c0.189,0.197,0.292,0.471,0.292,0.839V12.776z M9.939,11.31
	c-0.051,0-0.111,0.009-0.163,0.034c-0.052,0.026-0.111,0.069-0.163,0.121v2.416c0.06,0.06,0.128,0.112,0.188,0.137
	c0.06,0.026,0.12,0.043,0.18,0.043c0.103,0,0.171-0.026,0.213-0.086c0.043-0.051,0.069-0.137,0.069-0.266v-2.004
	c0-0.129-0.026-0.223-0.086-0.292C10.128,11.344,10.042,11.31,9.939,11.31z M10.179,11.413c-0.051-0.069-0.137-0.103-0.24-0.103
	c-0.051,0-0.111,0.009-0.163,0.034c-0.052,0.026-0.111,0.069-0.163,0.121v2.416c0.06,0.06,0.128,0.112,0.188,0.137
	c0.06,0.026,0.12,0.043,0.18,0.043c0.103,0,0.171-0.026,0.213-0.086c0.043-0.051,0.069-0.137,0.069-0.266v-2.004
	C10.265,11.576,10.238,11.482,10.179,11.413z M10.179,11.413c-0.051-0.069-0.137-0.103-0.24-0.103c-0.051,0-0.111,0.009-0.163,0.034
	c-0.052,0.026-0.111,0.069-0.163,0.121v2.416c0.06,0.06,0.128,0.112,0.188,0.137c0.06,0.026,0.12,0.043,0.18,0.043
	c0.103,0,0.171-0.026,0.213-0.086c0.043-0.051,0.069-0.137,0.069-0.266v-2.004C10.265,11.576,10.238,11.482,10.179,11.413z"/>
</svg>
