<?xml version="1.0" encoding="utf-8"?>
<!-- Generator: Adobe Illustrator 21.1.0, SVG Export Plug-In . SVG Version: 6.00 Build 0)  -->
<svg version="1.1" id="Layer_1" xmlns="http://www.w3.org/2000/svg" xmlns:xlink="http://www.w3.org/1999/xlink" x="0px" y="0px"
	 viewBox="0 0 24 24" style="enable-background:new 0 0 24 24;" xml:space="preserve">
<style type="text/css">
	.st0{fill:#6B82A4;}
</style>
<title>Assets / Icons / Social / Linkedin</title>
<desc>Created with Sketch.</desc>
<g id="Assets-_x2F_-Icons-_x2F_-Social-_x2F_-Linkedin">
	<path id="Shape" class="st0" d="M8.154,20H4.827V9.131h3.327V20H8.154z M6.406,7.771H6.381c-1.204,0-1.985-0.831-1.985-1.884
		C4.396,4.814,5.201,4,6.429,4c1.227,0,1.982,0.812,2.006,1.884C8.435,6.938,7.656,7.771,6.406,7.771z M21.466,20h-3.772v-5.625
		c0-1.472-0.589-2.476-1.888-2.476c-0.993,0-1.544,0.678-1.801,1.331c-0.096,0.234-0.081,0.561-0.081,0.889V20h-3.738
		c0,0,0.048-9.964,0-10.869h3.737v1.706c0.221-0.746,1.415-1.81,3.321-1.81c2.364,0,4.222,1.564,4.222,4.93V20z"/>
</g>
</svg>
