<?xml version="1.0" encoding="utf-8"?>
<!-- Generator: Adobe Illustrator 21.1.0, SVG Export Plug-In . SVG Version: 6.00 Build 0)  -->
<svg version="1.1" id="Layer_1" xmlns="http://www.w3.org/2000/svg" xmlns:xlink="http://www.w3.org/1999/xlink" x="0px" y="0px"
	 viewBox="0 0 24 24" style="enable-background:new 0 0 24 24;" xml:space="preserve">
<style type="text/css">
	.st0{fill:#b5a781;}
</style>
<title>Assets / Icons / Social / Vimeo</title>
<desc>Created with Sketch.</desc>
<g id="Assets-_x2F_-Icons-_x2F_-Social-_x2F_-Vimeo">
	<path id="Shape" class="st0" d="M19.885,9.944c-0.069,1.474-1.144,3.489-3.216,6.046c-2.146,2.674-3.965,4.01-5.45,4.01
		c-0.919,0-1.697-0.813-2.333-2.444c-0.426-1.495-0.85-2.992-1.274-4.485c-0.474-1.632-0.98-2.447-1.523-2.447
		c-0.118,0-0.529,0.238-1.238,0.714l-0.743-0.919c0.778-0.654,1.544-1.312,2.3-1.969c1.036-0.86,1.815-1.312,2.335-1.36
		c1.225-0.114,1.98,0.691,2.265,2.411c0.304,1.858,0.517,3.014,0.635,3.467c0.355,1.54,0.742,2.308,1.167,2.308
		c0.329,0,0.825-0.497,1.486-1.493c0.661-0.998,1.013-1.756,1.061-2.277c0.095-0.86-0.259-1.288-1.061-1.288
		c-0.377,0-0.767,0.077-1.167,0.237c0.78-2.423,2.265-3.601,4.459-3.533C19.212,6.967,19.979,7.975,19.885,9.944z"/>
</g>
</svg>
